<svg width="318" height="183" viewBox="0 0 318 183" fill="none" xmlns="http://www.w3.org/2000/svg">
<g opacity="0.1" clip-path="url(#clip0)">
<path d="M159 183C246.813 183 318 178.906 318 173.856C318 168.806 246.813 164.713 159 164.713C71.1867 164.713 0 168.806 0 173.856C0 178.906 71.1867 183 159 183Z" fill="#F2F2F2"/>
<path d="M289.502 0H50.639V7.59843H289.502V0Z" fill="#F2F2F2"/>
<path d="M57.0309 5.65374C58.1171 5.65374 58.9977 4.7733 58.9977 3.68722C58.9977 2.60114 58.1171 1.7207 57.0309 1.7207C55.9447 1.7207 55.0642 2.60114 55.0642 3.68722C55.0642 4.7733 55.9447 5.65374 57.0309 5.65374Z" fill="#EB5452"/>
<path d="M63.4229 5.65374C64.5091 5.65374 65.3897 4.7733 65.3897 3.68722C65.3897 2.60114 64.5091 1.7207 63.4229 1.7207C62.3367 1.7207 61.4562 2.60114 61.4562 3.68722C61.4562 4.7733 62.3367 5.65374 63.4229 5.65374Z" fill="#EB5452"/>
<path d="M69.8148 5.65374C70.901 5.65374 71.7815 4.7733 71.7815 3.68722C71.7815 2.60114 70.901 1.7207 69.8148 1.7207C68.7286 1.7207 67.848 2.60114 67.848 3.68722C67.848 4.7733 68.7286 5.65374 69.8148 5.65374Z" fill="#EB5452"/>
<path d="M50.8082 120.176L50.6389 120.321V171.579H289.502V81.5432L286.656 81.7591L50.8082 120.176Z" fill="#3F3D56"/>
<path d="M134.58 50.8282H67.8773V53.5176H134.58V50.8282Z" fill="#3F3D56"/>
<path d="M134.58 56.7448H67.8773V59.4341H134.58V56.7448Z" fill="#3F3D56"/>
<path d="M90.4702 62.6613H67.8773V65.3506H90.4702V62.6613Z" fill="#3F3D56"/>
<path d="M270.607 125.49H203.905V128.18H270.607V125.49Z" fill="white"/>
<path d="M270.607 131.407H203.905V134.096H270.607V131.407Z" fill="white"/>
<path d="M226.497 137.323H203.905V140.012H226.497V137.323Z" fill="white"/>
<path d="M162.462 169.099C163.911 169.099 165.085 167.925 165.085 166.476C165.085 165.027 163.911 163.852 162.462 163.852C161.012 163.852 159.838 165.027 159.838 166.476C159.838 167.925 161.012 169.099 162.462 169.099Z" fill="#F2F2F2"/>
<path d="M170.071 169.362C171.52 169.362 172.695 168.187 172.695 166.738C172.695 165.289 171.52 164.115 170.071 164.115C168.622 164.115 167.447 165.289 167.447 166.738C167.447 168.187 168.622 169.362 170.071 169.362Z" fill="#F2F2F2"/>
<path d="M177.68 169.624C179.129 169.624 180.304 168.449 180.304 167C180.304 165.551 179.129 164.377 177.68 164.377C176.231 164.377 175.056 165.551 175.056 167C175.056 168.449 176.231 169.624 177.68 169.624Z" fill="#F2F2F2"/>
<path d="M170.095 168.837C171.254 168.837 172.194 167.897 172.194 166.738C172.194 165.579 171.254 164.639 170.095 164.639C168.936 164.639 167.996 165.579 167.996 166.738C167.996 167.897 168.936 168.837 170.095 168.837Z" fill="#3F3D56"/>
<path d="M112.466 81.6112H89.8732V86.7652H112.466V81.6112Z" fill="#3F3D56"/>
<path d="M246.757 151.354H224.164V156.508H246.757V151.354Z" fill="white"/>
<path opacity="0.3" d="M101.297 99.8426C109.928 99.8426 116.926 92.8462 116.926 84.2157C116.926 75.5852 109.928 68.5887 101.297 68.5887C92.6654 68.5887 85.6682 75.5852 85.6682 84.2157C85.6682 92.8462 92.6654 99.8426 101.297 99.8426Z" fill="#EB5452"/>
<path opacity="0.3" d="M101.297 94.6336C107.051 94.6336 111.716 89.9693 111.716 84.2157C111.716 78.462 107.051 73.7977 101.297 73.7977C95.5426 73.7977 90.8778 78.462 90.8778 84.2157C90.8778 89.9693 95.5426 94.6336 101.297 94.6336Z" fill="#EB5452"/>
<path d="M101.297 91.4503C105.293 91.4503 108.532 88.2113 108.532 84.2156C108.532 80.22 105.293 76.981 101.297 76.981C97.3008 76.981 94.0614 80.22 94.0614 84.2156C94.0614 88.2113 97.3008 91.4503 101.297 91.4503Z" fill="#EB5452"/>
<path opacity="0.3" d="M232.802 61.1143C241.434 61.1143 248.431 54.1179 248.431 45.4874C248.431 36.8569 241.434 29.8605 232.802 29.8605C224.171 29.8605 217.173 36.8569 217.173 45.4874C217.173 54.1179 224.171 61.1143 232.802 61.1143Z" fill="#EB5452"/>
<path opacity="0.3" d="M232.802 55.9053C238.556 55.9053 243.221 51.2411 243.221 45.4874C243.221 39.7337 238.556 35.0695 232.802 35.0695C227.048 35.0695 222.383 39.7337 222.383 45.4874C222.383 51.2411 227.048 55.9053 232.802 55.9053Z" fill="#EB5452"/>
<path d="M232.802 52.7221C236.798 52.7221 240.037 49.483 240.037 45.4874C240.037 41.4918 236.798 38.2527 232.802 38.2527C228.806 38.2527 225.567 41.4918 225.567 45.4874C225.567 49.483 228.806 52.7221 232.802 52.7221Z" fill="#EB5452"/>
<path opacity="0.3" d="M235.588 169.585C244.219 169.585 251.216 162.588 251.216 153.958C251.216 145.327 244.219 138.331 235.588 138.331C226.956 138.331 219.959 145.327 219.959 153.958C219.959 162.588 226.956 169.585 235.588 169.585Z" fill="#EB5452"/>
<path opacity="0.3" d="M235.588 164.376C241.342 164.376 246.007 159.712 246.007 153.958C246.007 148.204 241.342 143.54 235.588 143.54C229.833 143.54 225.169 148.204 225.169 153.958C225.169 159.712 229.833 164.376 235.588 164.376Z" fill="#EB5452"/>
<path d="M235.588 161.193C239.584 161.193 242.823 157.954 242.823 153.958C242.823 149.962 239.584 146.723 235.588 146.723C231.592 146.723 228.352 149.962 228.352 153.958C228.352 157.954 231.592 161.193 235.588 161.193Z" fill="#EB5452"/>
<path d="M26.0252 31.6478L32.4578 31.8972L32.7785 23.6277L26.3459 23.3783L26.0252 31.6478Z" fill="#EB5452"/>
<path d="M55.3631 52.3398C55.3631 52.3398 64.2711 48.0841 64.1286 51.7594C63.9861 55.4347 55.1493 57.8527 55.1493 57.8527L55.3631 52.3398Z" fill="#FFB9B9"/>
<path d="M50.4757 83.4375C50.4757 83.4375 54.6784 93.7228 56.2312 101.145C57.784 108.567 60.1488 118.781 57.107 126.024C54.0651 133.268 45.4167 154.558 45.3277 156.855C45.2386 159.152 46.0684 161.485 44.2305 161.413C42.3927 161.342 32.3913 158.194 31.9853 156.798C31.5793 155.402 35.3976 151.869 35.3976 151.869L44.8261 122.328L34.9889 103.082L27.8933 131.793L26.5036 167.628C26.5036 167.628 19.6828 165.523 18.6926 167.325C18.6926 167.325 15.6367 163.065 15.2485 161.21C14.8603 159.354 16.6917 123.997 16.6917 123.997C16.6917 123.997 10.4309 83.7253 15.485 83.9212C20.5391 84.1172 40.3356 72.0018 50.4757 83.4375Z" fill="#2F2E41"/>
<path d="M44.3018 159.576C44.3018 159.576 48.964 169.879 49.4056 170.356C49.8473 170.833 52.8854 175.552 50.5881 175.463C48.2907 175.374 42.8662 172.863 38.8735 169.027C34.8809 165.192 29.6167 158.546 30.094 158.105C30.5713 157.663 33.841 156.409 33.841 156.409L44.3018 159.576Z" fill="#2F2E41"/>
<path d="M25.6737 165.295C25.6737 165.295 25.955 169.907 26.8027 171.78C27.6504 173.653 27.5435 176.41 25.2461 176.321C22.9488 176.232 17.0114 175.081 17.0114 175.081C17.0114 175.081 16.6588 172.307 17.1361 171.865C17.6134 171.424 19.6472 166.442 18.7817 165.028C17.9163 163.614 25.6737 165.295 25.6737 165.295Z" fill="#2F2E41"/>
<path d="M22.275 15.6287C22.275 15.6287 17.3774 23.2606 15.4683 25.027C13.5591 26.7934 18.9302 30.6825 18.9302 30.6825L28.5434 31.9754C28.5434 31.9754 28.4224 23.2287 28.9175 22.3277C29.4126 21.4267 22.275 15.6287 22.275 15.6287Z" fill="#FFB9B9"/>
<path d="M30.6307 25.6148C30.6307 25.6148 28.6503 29.2189 26.8124 29.1476C24.9745 29.0764 15.4683 25.0269 15.0622 23.6309C14.6562 22.2348 11.9135 33.6311 11.9135 33.6311L35.1746 74.5622L40.8485 70.6413L38.0993 46.6092L35.8414 33.6387L30.6307 25.6148Z" fill="#EB5452"/>
<path d="M14.2043 62.2466C15.1322 64.1874 15.7117 66.2113 15.6313 68.2833C15.6278 68.3751 15.6242 68.467 15.616 68.5587C15.3959 72.8108 13.8293 77.7284 13.2673 81.3046C12.8595 83.87 12.9755 85.7425 14.477 86.1826C18.1171 87.244 13.9462 88.0025 28.0293 92.6895C42.1125 97.3765 44.5702 93.3308 44.6058 92.412C44.6414 91.4932 42.6113 84.5129 43.0886 84.0713C43.5659 83.6297 49.7668 89.8515 51.6403 89.0039C53.5138 88.1564 51.8541 83.491 51.8541 83.491C51.8541 83.491 47.6336 73.6651 47.7227 71.368C47.8118 69.0709 41.3296 58.2372 41.3296 58.2372L36.9207 29.5396C36.9207 29.5396 35.2253 25.793 32.9458 25.2445C30.6663 24.6961 28.775 26.003 28.775 26.003L32.5895 34.4328L36.614 49.3123L35.9407 54.8075C35.9407 54.8075 31.2608 44.9638 28.187 41.1637C25.1133 37.3637 18.5598 28.3676 18.5598 28.3676C18.5598 28.3676 17.0298 23.2057 18.1848 21.6631C19.34 20.1159 13.3669 19.8843 10.8202 26.2271C9.47036 29.5887 7.27888 34.6017 5.90604 39.2692C4.68272 43.4041 4.10486 47.2696 5.31682 49.4791C7.16917 52.8545 11.8288 57.2911 14.2043 62.2466Z" fill="#575A89"/>
<path opacity="0.1" d="M5.31682 49.4791C7.16919 52.8544 11.8288 57.2911 14.2043 62.2465C14.8247 60.0114 15.5817 57.6989 15.5817 57.6989C15.5817 57.6989 18.4848 42.1678 9.89745 38.154C8.47459 38.0164 7.05152 38.414 5.90605 39.2691C4.68272 43.4041 4.10486 47.2696 5.31682 49.4791Z" fill="black"/>
<path d="M39.4064 48.5004L46.6866 50.6231L56.7949 51.015L57.8348 59.7973L41.2227 60.9937C41.2227 60.9937 37.0735 49.3301 39.4064 48.5004Z" fill="#575A89"/>
<path d="M27.5351 78.0293C27.5351 78.0293 37.2745 79.645 35.0516 82.5755C32.8287 85.506 24.2007 82.4251 24.2007 82.4251L27.5351 78.0293Z" fill="#FFB9B9"/>
<path opacity="0.1" d="M15.6161 68.5587C15.396 72.8108 13.8294 77.7284 13.2673 81.3046C16.37 84.2408 19.3204 86.8305 20.4323 86.8736C22.7296 86.9627 26.4232 86.6458 27.7837 87.1587C29.1443 87.6716 29.9423 78.9605 29.9423 78.9605C29.9423 78.9605 29.1303 76.1684 25.508 74.6476C23.063 73.6188 18.3764 70.8283 15.6161 68.5587Z" fill="black"/>
<path d="M10.0044 35.3976C10.0044 35.3976 2.22907 34.1759 2.64912 47.0751C3.06917 59.9744 1.82952 68.2082 4.9567 70.63C8.08389 73.0518 18.2418 84.0281 20.5392 84.1171C22.8365 84.2062 26.53 83.8893 27.8906 84.4022C29.2512 84.9151 30.0492 76.204 30.0492 76.204C30.0492 76.204 29.2372 73.4119 25.6149 71.8911C21.9926 70.3703 13.4587 64.9783 13.53 63.1406C13.6013 61.3029 15.6886 54.9424 15.6886 54.9424C15.6886 54.9424 18.5917 39.4114 10.0044 35.3976Z" fill="#575A89"/>
<path d="M29.1314 26.9294C34.7182 26.9294 39.2472 22.4009 39.2472 16.8147C39.2472 11.2285 34.7182 6.69995 29.1314 6.69995C23.5445 6.69995 19.0155 11.2285 19.0155 16.8147C19.0155 22.4009 23.5445 26.9294 29.1314 26.9294Z" fill="#FFB9B9"/>
<path d="M35.9427 2.31741C36.1867 2.52761 36.4788 2.67422 36.7932 2.74419C36.951 2.77232 37.1136 2.73689 37.2454 2.64561C37.3771 2.55434 37.4675 2.41464 37.4966 2.25702C37.728 2.73695 37.9892 3.24845 38.4617 3.4947C38.9342 3.74096 39.6649 3.53447 39.733 3.00603C39.802 3.40726 39.9795 3.78195 40.2463 4.08947C40.5395 4.36897 41.0712 4.43952 41.3271 4.1256C41.1202 5.25636 41.2479 6.41924 41.1829 7.56694C41.118 8.71465 40.8119 9.93138 39.9447 10.6861C38.6799 11.7867 36.7781 11.5151 35.1145 11.3066C34.8629 11.2538 34.6018 11.268 34.3575 11.348C33.7346 11.6133 33.7629 12.4804 33.7545 13.1573C33.7036 14.3451 33.2335 15.4765 32.4274 16.3506C31.6214 17.2246 30.5317 17.7847 29.3517 17.9315C28.6914 18.0334 28.0176 17.869 27.4785 17.4744C27.0061 17.074 26.7649 16.4216 26.2236 16.1208C25.3432 15.6316 24.2754 16.3451 23.6317 17.1197C22.9879 17.8943 22.3535 18.8471 21.3563 18.9889C20.0375 19.1764 19.033 17.8325 18.5401 16.5951C17.8602 14.8606 17.5344 13.0077 17.5821 11.1454C17.6297 9.28308 18.0498 7.44917 18.8175 5.75178C21.5713 -0.250423 30.9784 -1.19979 35.9427 2.31741Z" fill="#2F2E41"/>
<path d="M278.776 163.148C282.338 169.223 289.524 171.628 289.524 171.628C289.524 171.628 290.933 164.184 287.37 158.109C283.807 152.034 276.622 149.629 276.622 149.629C276.622 149.629 275.213 157.073 278.776 163.148Z" fill="#F2F2F2"/>
<path d="M280.999 161.028C287.16 164.44 289.741 171.563 289.741 171.563C289.741 171.563 282.333 173.154 276.172 169.742C270.01 166.33 267.429 159.207 267.429 159.207C267.429 159.207 274.837 157.615 280.999 161.028Z" fill="#EB5452"/>
</g>
<defs>
<clipPath id="clip0">
<rect width="318" height="183" fill="white"/>
</clipPath>
</defs>
</svg>
