<svg width="320" height="295" viewBox="0 0 320 295" fill="none" xmlns="http://www.w3.org/2000/svg">
<g opacity="0.07" clip-path="url(#clip0)">
<path d="M19.3951 23.5598C14.253 23.5656 9.32316 25.6061 5.68715 29.2335C2.05113 32.8609 0.00584866 37.7791 0 42.909V265.823C0.00589903 270.953 2.05121 275.871 5.68722 279.498C9.32323 283.126 14.253 285.166 19.3951 285.172H183.307C188.449 285.166 193.378 283.126 197.014 279.498C200.65 275.871 202.696 270.953 202.701 265.823V42.909C202.696 37.7791 200.65 32.861 197.014 29.2336C193.378 25.6062 188.449 23.5657 183.307 23.5598H19.3951Z" fill="#3F3D56"/>
<path d="M192.616 37.3031H10.0859V271.429H192.616V37.3031Z" fill="white"/>
<path d="M168.754 79.269H33.9476V88.104H168.754V79.269Z" fill="#EB5452"/>
<path d="M168.754 102.829H33.9476V111.664H168.754V102.829Z" fill="#EB5452"/>
<path d="M168.754 126.389H33.9476V135.224H168.754V126.389Z" fill="#EB5452"/>
<path d="M168.754 149.948H33.9476V158.783H168.754V149.948Z" fill="#EB5452"/>
<path d="M168.754 173.508H33.9476V182.343H168.754V173.508Z" fill="#EB5452"/>
<path d="M168.754 197.068H33.9476V205.903H168.754V197.068Z" fill="#EB5452"/>
<path d="M168.754 220.628H33.9476V229.463H168.754V220.628Z" fill="#EB5452"/>
<path d="M170.652 22.4578L36.9785 46.8624L68.4303 218.321L202.103 193.916L170.652 22.4578Z" fill="#E6E6E6"/>
<path d="M158.814 56.3814L60.0909 74.4053L61.2777 80.8754L160.001 62.8515L158.814 56.3814Z" fill="#EB5452"/>
<path d="M161.979 73.635L63.2558 91.6589L64.4427 98.1291L163.166 80.1052L161.979 73.635Z" fill="#EB5452"/>
<path d="M165.144 90.8887L66.4208 108.913L67.6076 115.383L166.331 97.3588L165.144 90.8887Z" fill="#EB5452"/>
<path d="M168.309 108.142L69.5858 126.166L70.7726 132.637L169.496 114.613L168.309 108.142Z" fill="#EB5452"/>
<path d="M171.473 125.396L72.7495 143.42L73.9364 149.89L172.659 131.866L171.473 125.396Z" fill="#EB5452"/>
<path d="M174.639 142.65L75.9157 160.674L77.1025 167.144L175.826 149.12L174.639 142.65Z" fill="#EB5452"/>
<path d="M177.804 159.904L79.0807 177.927L80.2675 184.398L178.991 166.374L177.804 159.904Z" fill="#EB5452"/>
<path d="M265.267 210.02L227.444 216.926L236.343 265.441L274.167 258.535L265.267 210.02Z" fill="#E6E6E6"/>
<path d="M261.918 219.619L233.984 224.719L234.32 226.55L262.254 221.45L261.918 219.619Z" fill="white"/>
<path d="M262.814 224.501L234.879 229.601L235.215 231.432L263.149 226.332L262.814 224.501Z" fill="white"/>
<path d="M263.709 229.383L235.775 234.483L236.111 236.314L264.045 231.214L263.709 229.383Z" fill="white"/>
<path d="M264.605 234.265L236.67 239.365L237.006 241.196L264.94 236.096L264.605 234.265Z" fill="white"/>
<path d="M265.5 239.147L237.566 244.247L237.902 246.078L265.836 240.978L265.5 239.147Z" fill="white"/>
<path d="M266.396 244.029L238.461 249.129L238.797 250.96L266.732 245.86L266.396 244.029Z" fill="white"/>
<path d="M267.291 248.911L239.357 254.011L239.693 255.842L267.627 250.742L267.291 248.911Z" fill="white"/>
<path d="M135.147 12.2708H119.063V8.98566C119.063 6.60252 118.114 4.31698 116.424 2.63184C114.735 0.946701 112.444 0 110.056 0H92.646C90.2572 2.14209e-06 87.9662 0.946705 86.2771 2.63184C84.588 4.31698 83.639 6.60252 83.639 8.98566V12.2708H67.5543C66.3715 12.2708 65.2002 12.5032 64.1074 12.9547C63.0147 13.4063 62.0218 14.0682 61.1854 14.9026C60.349 15.737 59.6856 16.7276 59.2329 17.8177C58.7803 18.9079 58.5473 20.0764 58.5473 21.2564V46.138H144.154V21.2564C144.154 20.0764 143.921 18.9079 143.469 17.8177C143.016 16.7276 142.353 15.737 141.516 14.9026C140.68 14.0682 139.687 13.4063 138.594 12.9547C137.501 12.5032 136.33 12.2708 135.147 12.2708Z" fill="#3F3D56"/>
<path d="M95.5769 254.403C98.2363 252.588 100.97 250.699 104.128 249.874C107.009 249.121 110.318 249.32 112.597 251.425C114.436 253.124 115.212 255.734 113.85 257.969C113.557 258.479 113.16 258.921 112.684 259.267C112.208 259.612 111.664 259.853 111.088 259.974C110.531 260.047 109.965 259.979 109.442 259.775C108.919 259.571 108.457 259.238 108.097 258.808C107.383 258.02 106.955 256.856 107.335 255.818C107.734 254.726 108.802 254.059 109.851 253.686C111.072 253.3 112.329 253.041 113.604 252.913L118.822 252.2L140.183 249.283L163.971 246.034C164.159 245.981 164.318 245.856 164.415 245.686C164.511 245.517 164.537 245.316 164.486 245.128C164.43 244.943 164.304 244.786 164.135 244.69C163.966 244.594 163.767 244.567 163.579 244.614L116.245 251.078C114.533 251.312 112.797 251.48 111.103 251.823C109.769 252.038 108.504 252.562 107.41 253.353C105.143 255.144 105.305 258.312 107.391 260.185C109.504 262.082 112.566 261.755 114.42 259.661C115.357 258.6 115.913 257.259 116.001 255.848C116.088 254.437 115.702 253.038 114.903 251.87C112.88 248.826 109.193 247.657 105.67 248.089C101.595 248.588 98.1411 250.873 94.8319 253.132C94.0528 253.664 94.7902 254.941 95.5769 254.403Z" fill="#3F3D56"/>
<path d="M261.662 199.833L262.154 204.742C262.154 204.742 259.202 215.54 265.598 215.54C271.994 215.54 267.074 204.742 267.074 204.742L267.566 200.815L261.662 199.833Z" fill="#A0616A"/>
<path d="M306.35 183.481L304.092 187.87C304.092 187.87 295.738 195.34 301.109 198.803C306.481 202.267 308.224 190.534 308.224 190.534L310.774 187.503L306.35 183.481Z" fill="#A0616A"/>
<path d="M269.534 204.251L276.422 250.88L279.866 284.256C279.866 284.256 282.818 291.619 292.658 285.238L291.182 266.096L290.198 248.917C290.198 248.917 289.214 232.228 288.23 229.283C287.246 226.338 288.722 216.522 288.722 216.522L292.658 200.324L269.534 204.251Z" fill="#2F2E41"/>
<path d="M280.85 283.275L276.914 287.692C276.914 287.692 271.01 285.729 269.534 289.655C268.058 293.582 280.85 294.564 280.85 294.564C280.85 294.564 294.134 295.545 294.134 294.564C294.134 293.582 293.778 286.074 291.988 285.656C290.198 285.238 280.85 283.275 280.85 283.275Z" fill="#2F2E41"/>
<path d="M288.23 201.797L295.118 250.88L298.562 284.256C298.562 284.256 301.514 291.619 311.354 285.238L309.878 266.096L308.894 248.917C308.894 248.917 307.91 232.228 306.926 229.283C305.942 226.338 307.418 216.522 307.418 216.522L306.434 198.361L288.23 201.797Z" fill="#2F2E41"/>
<path d="M299.546 283.275L295.61 287.692C295.61 287.692 289.706 285.729 288.23 289.655C286.754 293.582 299.546 294.564 299.546 294.564C299.546 294.564 312.83 295.545 312.83 294.564C312.83 293.582 312.474 286.074 310.684 285.656C308.894 285.238 299.546 283.275 299.546 283.275Z" fill="#2F2E41"/>
<path d="M273.47 124.246C279.176 124.246 283.802 119.631 283.802 113.938C283.802 108.246 279.176 103.631 273.47 103.631C267.764 103.631 263.138 108.246 263.138 113.938C263.138 119.631 267.764 124.246 273.47 124.246Z" fill="#A0616A"/>
<path d="M281.096 118.601L285.524 125.964L274.208 130.872L272.732 122.037L281.096 118.601Z" fill="#A0616A"/>
<path d="M286.754 125.227C286.754 125.227 276.422 124.246 272.486 130.627L262.775 137.989C261.989 138.586 261.375 139.379 260.995 140.288C260.615 141.198 260.483 142.192 260.613 143.168L269.042 206.705L281.342 206.214L301.514 202.288L307.418 200.815L304.466 174.801C304.466 174.801 301.022 164.494 304.958 157.622L302.99 133.572L289.214 128.172L286.754 125.227Z" fill="#575A89"/>
<path d="M263.63 139.952L262.892 138.725C262.892 138.725 261.908 138.725 261.908 140.689C261.908 142.652 260.186 185.109 260.186 185.109L259.694 201.306L269.042 202.288L272.486 171.856L271.01 151.732L263.63 139.952Z" fill="#575A89"/>
<path d="M296.102 132.59L302.99 133.572C305.674 136.375 307.988 139.509 309.878 142.897C312.83 148.296 321.686 158.604 319.718 166.457C317.75 174.31 311.846 188.544 311.846 188.544L302.498 184.618C302.498 184.618 309.878 167.439 309.386 165.966C308.894 164.494 302.99 155.659 302.99 155.659L296.102 132.59Z" fill="#575A89"/>
<path d="M266.336 108.294C266.336 108.294 257.972 107.803 263.384 102.404C263.384 102.404 267.812 100.44 269.78 101.422C269.78 101.422 272.732 99.4588 272.732 100.44C272.732 100.44 283.064 97.4955 284.54 107.803C286.016 118.11 283.556 123.019 283.556 123.019L276.668 122.528C276.668 122.528 278.144 114.184 272.732 115.165C272.732 115.165 268.304 116.638 267.812 115.165C267.32 113.693 266.336 108.294 266.336 108.294Z" fill="#2F2E41"/>
<path opacity="0.2" d="M270.272 201.551L274.7 172.102L271.748 153.941L272.732 173.694L269.78 201.551H270.272Z" fill="black"/>
</g>
<defs>
<clipPath id="clip0">
<rect width="320" height="295" fill="white"/>
</clipPath>
</defs>
</svg>
