<svg width="321" height="240" viewBox="0 0 321 240" fill="none" xmlns="http://www.w3.org/2000/svg">
<g opacity="0.1" clip-path="url(#clip0)">
<path d="M73.9132 166.094L98.7661 128.064L43.1072 93.6249L14.3635 137.609L60.4004 166.094H73.9132Z" fill="#F0F0F0"/>
<path d="M109.132 177.958H47.5704V165.9H109.132V177.958ZM48.3699 177.18H108.333V166.677H48.3699V177.18Z" fill="#3F3D56"/>
<path d="M101.537 175.819C103.745 175.819 105.534 174.077 105.534 171.929C105.534 169.78 103.745 168.039 101.537 168.039C99.329 168.039 97.5392 169.78 97.5392 171.929C97.5392 174.077 99.329 175.819 101.537 175.819Z" fill="#EB5452"/>
<path d="M90.3437 175.819C92.5515 175.819 94.3412 174.077 94.3412 171.929C94.3412 169.78 92.5515 168.039 90.3437 168.039C88.1359 168.039 86.3462 169.78 86.3462 171.929C86.3462 174.077 88.1359 175.819 90.3437 175.819Z" fill="#EB5452"/>
<path d="M79.1507 175.819C81.3585 175.819 83.1482 174.077 83.1482 171.929C83.1482 169.78 81.3585 168.039 79.1507 168.039C76.9429 168.039 75.1532 169.78 75.1532 171.929C75.1532 174.077 76.9429 175.819 79.1507 175.819Z" fill="#EB5452"/>
<path d="M67.9577 175.819C70.1654 175.819 71.9552 174.077 71.9552 171.929C71.9552 169.78 70.1654 168.039 67.9577 168.039C65.7499 168.039 63.9601 169.78 63.9601 171.929C63.9601 174.077 65.7499 175.819 67.9577 175.819Z" fill="#EB5452"/>
<path d="M56.7646 175.819C58.9724 175.819 60.7621 174.077 60.7621 171.929C60.7621 169.78 58.9724 168.039 56.7646 168.039C54.5568 168.039 52.7671 169.78 52.7671 171.929C52.7671 174.077 54.5568 175.819 56.7646 175.819Z" fill="#EB5452"/>
<path d="M182.286 43.9546V14.3922H197.477V0H123.123V72.3501H186.684V65.2763C186.684 63.9576 186.951 62.6519 187.469 61.4336C187.988 60.2154 188.748 59.1084 189.706 58.176C190.664 57.2436 191.802 56.504 193.054 55.9994C194.306 55.4947 195.648 55.235 197.003 55.235H197.477V43.9546H182.286Z" fill="#F0F0F0"/>
<path d="M264.635 186.71H215.066V196.823H264.635V186.71Z" fill="#EB5452"/>
<path d="M275.428 136.921H202.674V146.256H275.428V136.921Z" fill="#F0F0F0"/>
<path d="M311.006 239.222H0V240H311.006V239.222Z" fill="#3F3D56"/>
<path d="M287.895 240H197.003C194.161 239.997 191.437 238.897 189.427 236.942C187.418 234.986 186.287 232.335 186.284 229.57V65.2763C186.287 62.511 187.418 59.8599 189.427 57.9045C191.437 55.9491 194.161 54.8492 197.003 54.8461H287.895C290.737 54.8492 293.461 55.9491 295.471 57.9045C297.48 59.8599 298.611 62.511 298.614 65.2763V229.57C298.611 232.335 297.48 234.986 295.471 236.942C293.461 238.897 290.737 239.997 287.895 240ZM197.003 55.624C194.373 55.6269 191.852 56.6448 189.992 58.4543C188.132 60.2639 187.086 62.7173 187.083 65.2763V229.57C187.086 232.129 188.132 234.582 189.992 236.392C191.852 238.201 194.373 239.219 197.003 239.222H287.895C290.525 239.219 293.046 238.201 294.906 236.392C296.765 234.582 297.811 232.129 297.814 229.57V65.2763C297.811 62.7173 296.765 60.2639 294.906 58.4543C293.046 56.6448 290.525 55.6269 287.895 55.624H197.003Z" fill="#3F3D56"/>
<path d="M231.656 62.6256C231.181 62.6256 230.718 62.4888 230.323 62.2323C229.929 61.9759 229.621 61.6114 229.44 61.1849C229.258 60.7584 229.211 60.2892 229.303 59.8365C229.396 59.3837 229.624 58.9679 229.96 58.6415C230.295 58.3151 230.722 58.0928 231.188 58.0027C231.653 57.9127 232.135 57.9589 232.574 58.1355C233.012 58.3122 233.386 58.6113 233.65 58.9951C233.914 59.3789 234.054 59.8302 234.054 60.2918C234.053 60.9105 233.801 61.5038 233.351 61.9413C232.901 62.3789 232.292 62.625 231.656 62.6256ZM231.656 58.7358C231.339 58.7358 231.03 58.8271 230.767 58.9981C230.504 59.169 230.299 59.412 230.178 59.6963C230.057 59.9806 230.026 60.2935 230.087 60.5953C230.149 60.8971 230.301 61.1744 230.525 61.392C230.749 61.6096 231.034 61.7577 231.344 61.8178C231.654 61.8778 231.975 61.847 232.268 61.7293C232.56 61.6115 232.809 61.4121 232.985 61.1562C233.161 60.9003 233.255 60.5995 233.255 60.2918C233.254 59.8792 233.086 59.4837 232.786 59.192C232.486 58.9004 232.08 58.7363 231.656 58.7358Z" fill="#3F3D56"/>
<path d="M255.241 59.9027H237.652V60.6807H255.241V59.9027Z" fill="#3F3D56"/>
<path d="M291.418 66.1265V97.2448C282.937 97.2444 274.803 93.9658 268.806 88.13C262.808 82.2943 259.439 74.3794 259.438 66.1265H291.418Z" fill="#EB5452"/>
<path d="M291.818 229.498H193.08V65.7374H291.818V229.498ZM193.879 228.72H291.019V66.5154H193.879V228.72Z" fill="#3F3D56"/>
<path opacity="0.1" d="M268.233 95.2998C274.194 95.2998 279.026 90.5977 279.026 84.7973C279.026 78.997 274.194 74.2949 268.233 74.2949C262.272 74.2949 257.44 78.997 257.44 84.7973C257.44 90.5977 262.272 95.2998 268.233 95.2998Z" fill="black"/>
<path d="M266.634 96.4668C272.595 96.4668 277.427 91.7647 277.427 85.9643C277.427 80.164 272.595 75.4619 266.634 75.4619C260.673 75.4619 255.841 80.164 255.841 85.9643C255.841 91.7647 260.673 96.4668 266.634 96.4668Z" fill="#EB5452"/>
<path d="M212.667 72.3501H197.477V77.7958H212.667V72.3501Z" fill="#3F3D56"/>
<path d="M221.062 124.084H205.872V129.53H221.062V124.084Z" fill="#3F3D56"/>
<path d="M279.426 144.311H205.872V134.198H279.426V144.311ZM206.671 143.533H278.626V134.976H206.671V143.533Z" fill="#3F3D56"/>
<path d="M275.428 166.483H202.674V175.819H275.428V166.483Z" fill="#F0F0F0"/>
<path d="M221.062 153.647H205.872V159.092H221.062V153.647Z" fill="#3F3D56"/>
<path d="M279.426 173.874H205.872V163.76H279.426V173.874ZM206.671 173.096H278.626V164.538H206.671V173.096Z" fill="#3F3D56"/>
<path d="M267.833 194.489H217.464V183.598H267.833V194.489ZM218.264 193.711H267.034V184.376H218.264V193.711Z" fill="#3F3D56"/>
<path d="M277.427 140.421C277.427 141.222 277.173 142.003 276.7 142.659C276.226 143.314 275.557 143.811 274.782 144.082C274.008 144.353 273.166 144.385 272.373 144.173C271.579 143.961 270.872 143.516 270.348 142.899L270.344 142.895C269.961 142.444 269.689 141.915 269.546 141.347C269.403 140.78 269.393 140.188 269.517 139.616C269.642 139.044 269.897 138.507 270.264 138.044C270.631 137.581 271.101 137.205 271.638 136.943C272.175 136.682 272.766 136.541 273.366 136.532C273.967 136.523 274.562 136.646 275.107 136.892C275.652 137.137 276.134 137.499 276.515 137.951C276.897 138.402 277.169 138.932 277.311 139.5C277.311 139.5 277.311 139.501 277.312 139.501C277.312 139.501 277.312 139.502 277.312 139.502C277.313 139.503 277.313 139.503 277.314 139.503C277.314 139.503 277.315 139.503 277.315 139.503C277.389 139.804 277.427 140.112 277.427 140.421Z" fill="#EB5452"/>
<path opacity="0.1" d="M277.427 140.421C277.427 141.222 277.173 142.003 276.7 142.659C276.226 143.314 275.557 143.811 274.782 144.082C274.008 144.353 273.166 144.385 272.373 144.173C271.579 143.961 270.872 143.516 270.348 142.899L270.344 142.895C270.27 142.595 270.232 142.286 270.232 141.977C270.232 141.177 270.486 140.395 270.959 139.74C271.432 139.085 272.102 138.588 272.876 138.317C273.651 138.046 274.492 138.014 275.286 138.226C276.08 138.437 276.787 138.882 277.311 139.5C277.311 139.5 277.311 139.501 277.312 139.501C277.312 139.501 277.312 139.502 277.312 139.502C277.313 139.503 277.313 139.503 277.314 139.503C277.314 139.503 277.315 139.503 277.315 139.503C277.389 139.804 277.427 140.112 277.427 140.421Z" fill="black"/>
<path d="M275.029 146.645C277.236 146.645 279.026 144.904 279.026 142.755C279.026 140.607 277.236 138.865 275.029 138.865C272.821 138.865 271.031 140.607 271.031 142.755C271.031 144.904 272.821 146.645 275.029 146.645Z" fill="#EB5452"/>
<path d="M277.427 169.984C277.427 170.785 277.173 171.566 276.7 172.221C276.226 172.876 275.557 173.373 274.782 173.644C274.008 173.915 273.166 173.947 272.373 173.735C271.579 173.524 270.872 173.079 270.348 172.462L270.344 172.458C269.961 172.007 269.689 171.478 269.546 170.91C269.403 170.342 269.393 169.75 269.517 169.178C269.642 168.606 269.897 168.069 270.264 167.607C270.631 167.144 271.101 166.768 271.638 166.506C272.175 166.244 272.766 166.103 273.366 166.094C273.967 166.085 274.562 166.208 275.107 166.454C275.652 166.7 276.134 167.062 276.515 167.513C276.897 167.965 277.169 168.494 277.311 169.062C277.311 169.062 277.311 169.063 277.312 169.063C277.312 169.064 277.312 169.064 277.312 169.065C277.313 169.065 277.313 169.065 277.314 169.065C277.314 169.066 277.315 169.066 277.315 169.066C277.389 169.367 277.427 169.675 277.427 169.984Z" fill="#EB5452"/>
<path opacity="0.1" d="M277.427 169.984C277.427 170.785 277.173 171.566 276.7 172.221C276.226 172.876 275.557 173.373 274.782 173.644C274.008 173.915 273.166 173.947 272.373 173.735C271.579 173.524 270.872 173.079 270.348 172.462L270.344 172.458C270.27 172.157 270.232 171.849 270.232 171.54C270.232 170.739 270.486 169.958 270.959 169.303C271.432 168.648 272.102 168.151 272.876 167.879C273.651 167.608 274.492 167.577 275.286 167.788C276.08 168 276.787 168.445 277.311 169.062C277.311 169.062 277.311 169.063 277.312 169.063C277.312 169.064 277.312 169.064 277.312 169.065C277.313 169.065 277.313 169.065 277.314 169.066C277.314 169.066 277.315 169.066 277.315 169.066C277.389 169.367 277.427 169.675 277.427 169.984Z" fill="black"/>
<path d="M275.029 176.207C277.236 176.207 279.026 174.466 279.026 172.318C279.026 170.169 277.236 168.428 275.029 168.428C272.821 168.428 271.031 170.169 271.031 172.318C271.031 174.466 272.821 176.207 275.029 176.207Z" fill="#EB5452"/>
<path d="M207.87 18.671H187.083V38.8979H207.87V18.671Z" fill="#F0F0F0"/>
<path d="M268.233 33.4522C267.284 33.4522 266.357 33.1784 265.568 32.6655C264.779 32.1526 264.164 31.4236 263.801 30.5707C263.438 29.7178 263.343 28.7793 263.528 27.8738C263.713 26.9684 264.17 26.1367 264.841 25.4839C265.512 24.8311 266.366 24.3865 267.297 24.2064C268.228 24.0263 269.192 24.1187 270.069 24.472C270.945 24.8253 271.694 25.4236 272.221 26.1912C272.749 26.9588 273.03 27.8613 273.03 28.7844C273.028 30.022 272.523 31.2084 271.623 32.0835C270.724 32.9586 269.505 33.4508 268.233 33.4522ZM268.233 24.8947C267.442 24.8947 266.669 25.1228 266.012 25.5502C265.355 25.9776 264.842 26.5851 264.54 27.2959C264.237 28.0067 264.158 28.7888 264.312 29.5433C264.466 30.2979 264.847 30.991 265.406 31.5349C265.965 32.0789 266.678 32.4494 267.453 32.5995C268.228 32.7496 269.032 32.6726 269.763 32.3781C270.493 32.0837 271.117 31.5852 271.557 30.9455C271.996 30.3058 272.23 29.5538 272.23 28.7844C272.229 27.7532 271.808 26.7645 271.058 26.0353C270.309 25.306 269.293 24.8958 268.233 24.8947Z" fill="#3F3D56"/>
<path d="M162.699 98.4117H152.305V88.2982H162.699V98.4117ZM153.105 97.6337H161.899V89.0762H153.105V97.6337Z" fill="#3F3D56"/>
<path d="M321 173.874H310.606V163.76H321V173.874ZM311.406 173.096H320.2V164.538H311.406V173.096Z" fill="#3F3D56"/>
<path d="M115.929 106.062L117.712 106.996L123.782 110.179L133.579 115.316L139.289 105.007C139.827 104.039 140.163 102.977 140.279 101.881C140.394 100.786 140.286 99.6796 139.962 98.625C139.637 97.5704 139.102 96.5885 138.387 95.7354C137.672 94.8823 136.791 94.1748 135.794 93.6535C133.665 92.5345 131.225 92.1022 128.827 92.4189C126.429 92.7355 124.196 93.7846 122.45 95.4152L122.447 95.4181C121.588 96.221 120.863 97.1495 120.298 98.17L115.929 106.062Z" fill="#2F2E41"/>
<path d="M142.671 211.191L141.474 224.004L136.985 224.586L133.993 210.026L142.671 211.191Z" fill="#FFB8B8"/>
<path d="M135.788 224.586C135.788 224.586 141.474 221.674 142.671 224.004C142.671 224.004 141.773 230.992 145.365 231.866C148.956 232.74 150.452 238.855 145.365 239.437C140.277 240.02 136.985 238.273 135.19 238.273C133.394 238.273 135.19 232.157 135.19 232.157L135.788 224.586Z" fill="#2F2E41"/>
<path d="M106.46 211.191L107.657 224.004L112.146 224.586L115.139 210.026L106.46 211.191Z" fill="#FFB8B8"/>
<path d="M113.343 224.586C113.343 224.586 107.657 221.674 106.46 224.004C106.46 224.004 107.358 230.992 103.767 231.866C100.176 232.74 98.6792 238.855 103.767 239.437C108.854 240.02 112.146 238.273 113.942 238.273C115.737 238.273 113.942 232.157 113.942 232.157L113.343 224.586Z" fill="#2F2E41"/>
<path d="M131 108.397C135.297 108.397 138.781 105.007 138.781 100.826C138.781 96.6443 135.297 93.2545 131 93.2545C126.703 93.2545 123.219 96.6443 123.219 100.826C123.219 105.007 126.703 108.397 131 108.397Z" fill="#FFB8B8"/>
<path d="M106.161 115.677L112.445 125.287L119.927 124.704L132.197 125.578C132.197 125.578 133.355 123.324 134.301 121.131C134.819 120.036 135.217 118.891 135.489 117.715C135.788 115.677 131.598 113.639 131.598 113.639C131.598 113.639 131.434 113.609 131.158 113.545C130.793 113.461 130.231 113.321 129.614 113.117C128.223 112.657 126.55 111.877 126.212 110.727C125.613 108.688 130.102 105.776 130.102 105.776L124.715 100.826C124.715 100.826 119.93 107.293 114.118 108.767C113.781 108.853 113.44 108.921 113.095 108.971C113.077 108.973 113.062 108.976 113.044 108.979C106.759 109.853 106.161 115.677 106.161 115.677Z" fill="#FFB8B8"/>
<path d="M109.453 113.056L106.161 115.677C106.161 115.677 103.467 128.199 104.365 131.693C105.263 135.187 104.066 138.391 104.066 138.973C104.066 139.555 101.373 161.396 101.373 161.396C101.373 161.396 95.9858 173.044 101.672 171.879C107.358 170.714 105.263 159.066 105.263 159.066L112.146 138.682V121.501L109.453 113.056Z" fill="#FFB8B8"/>
<path d="M133.095 115.386L135.489 117.133L136.686 141.594L145.664 162.56C145.664 162.56 152.248 172.752 148.058 173.044C143.868 173.335 141.175 162.56 141.175 162.56L133.095 142.467L131.898 122.957L133.095 115.386Z" fill="#FFB8B8"/>
<path d="M118.131 117.133C118.131 117.133 124.117 121.21 133.693 119.754C133.693 119.754 136.387 124.995 134.89 127.907C133.394 130.819 136.686 137.808 137.284 138.682C137.883 139.555 144.766 157.61 147.16 177.12C149.554 196.631 156.138 210.026 150.452 211.773C144.766 213.52 133.095 215.559 131.898 213.812C130.701 212.064 128.905 168.675 128.905 168.675L125.613 185.274C125.613 185.274 130.102 213.52 126.81 214.103C123.518 214.685 102.869 212.938 103.467 209.444C104.066 205.949 110.051 187.604 110.051 187.604C110.051 187.604 109.752 150.912 115.737 143.923C115.737 143.923 118.131 140.138 114.84 135.187C111.548 130.237 111.847 122.375 111.847 122.375C111.847 122.375 114.241 122.375 118.131 117.133Z" fill="#2F2E41"/>
<path d="M113.095 108.971L118.132 119.754L119.328 119.172L114.118 108.767L113.095 108.971Z" fill="#2F2E41"/>
<path d="M129.614 113.117L133.394 121.21L134.301 121.131L133.992 119.754L131.158 113.545C130.793 113.461 130.231 113.321 129.614 113.117Z" fill="#2F2E41"/>
<path d="M117.712 106.996C118 107.897 118.555 108.695 119.307 109.291C120.059 109.886 120.974 110.253 121.939 110.344C122.904 110.436 123.875 110.248 124.731 109.805C125.587 109.361 126.289 108.682 126.75 107.852C122.965 103.036 126.212 100.01 132.362 97.7215C132.825 96.8849 133.022 95.9331 132.927 94.9873C132.833 94.0414 132.452 93.1443 131.832 92.41C130.137 92.199 128.415 92.3594 126.791 92.8793C125.168 93.3993 123.685 94.2657 122.45 95.4152L122.447 95.4181L118.078 103.304C117.766 103.864 117.574 104.48 117.511 105.114C117.448 105.748 117.517 106.388 117.712 106.996Z" fill="#2F2E41"/>
<path d="M126.361 103.447C126.94 103.447 127.409 102.664 127.409 101.699C127.409 100.734 126.94 99.9521 126.361 99.9521C125.783 99.9521 125.314 100.734 125.314 101.699C125.314 102.664 125.783 103.447 126.361 103.447Z" fill="#FFB8B8"/>
<path d="M129.483 98.8485L138.478 102.815L140.127 99.2736C139.843 97.9795 139.249 96.7691 138.392 95.7414L132.2 93.0128L129.483 98.8485Z" fill="#2F2E41"/>
<path d="M151.106 176.985C153.314 176.985 155.103 175.244 155.103 173.096C155.103 170.947 153.314 169.206 151.106 169.206C148.898 169.206 147.108 170.947 147.108 173.096C147.108 175.244 148.898 176.985 151.106 176.985Z" fill="#EB5452"/>
<path d="M22.7684 200.109C24.2113 200.109 25.3809 198.971 25.3809 197.567C25.3809 196.163 24.2113 195.025 22.7684 195.025C21.3255 195.025 20.1559 196.163 20.1559 197.567C20.1559 198.971 21.3255 200.109 22.7684 200.109Z" fill="#FF6584"/>
<path d="M35.9677 210.816H35.1682V239.76H35.9677V210.816Z" fill="#3F3D56"/>
<path d="M35.568 214.909C37.8911 214.909 39.7745 213.076 39.7745 210.816C39.7745 208.555 37.8911 206.723 35.568 206.723C33.2448 206.723 31.3615 208.555 31.3615 210.816C31.3615 213.076 33.2448 214.909 35.568 214.909Z" fill="#3F3D56"/>
<path d="M35.5679 228.655C35.5679 228.655 34.967 216.079 22.6479 217.54L35.5679 228.655Z" fill="#3F3D56"/>
</g>
<defs>
<clipPath id="clip0">
<rect width="321" height="240" fill="white"/>
</clipPath>
</defs>
</svg>
