<svg width="194" height="161" viewBox="0 0 194 161" fill="none" xmlns="http://www.w3.org/2000/svg">
<g opacity="0.3" clip-path="url(#clip0)">
<path d="M171.53 92.0339C170.465 101.178 168.253 108.519 165.215 114.374C161.174 122.175 154.26 125.318 148.085 128.607C146.3 129.556 144.445 130.364 142.535 131.025C131.298 134.934 118.72 133.897 108.84 131.833C101.911 130.385 94.8765 129.493 87.8052 129.168C85.7884 129.077 83.7696 129.032 81.7488 129.032C78.6326 129.036 22.5242 130.104 8.86337 102.387C5.4906 95.5497 3.17877 87.1977 2.3482 77.017C-0.00202489 48.2348 12.9151 29.3315 29.5769 16.9757C61.0959 -6.39715 104.299 -5.41695 135.353 18.5716C156.039 34.5505 175.406 58.7335 171.53 92.0339Z" fill="#F2F2F2"/>
<path d="M60.625 83.7011C60.625 106.579 47.0536 114.568 30.3125 114.568C13.5714 114.568 0 106.579 0 83.7011C0 60.8229 30.3125 31.7183 30.3125 31.7183C30.3125 31.7183 60.625 60.8229 60.625 83.7011Z" fill="#EB5452"/>
<path d="M29.2083 111.068L29.5187 91.9208L42.4387 68.2334L29.5674 88.9173L29.7069 80.3081L38.6113 63.1704L29.7438 78.0298L29.9948 62.5457L39.5299 48.9018L30.0342 60.1107L30.1911 31.7184L29.2055 69.3048L29.2865 67.7543L19.5922 52.8834L29.1311 70.7307L28.2278 88.0239L28.2009 87.5648L17.0251 71.9155L28.167 89.1864L28.054 91.3491L28.0338 91.3815L28.0431 91.5591L25.7515 135.433H28.8132L29.1806 112.772L40.2952 95.5429L29.2083 111.068Z" fill="#3F3D56"/>
<path d="M194 85.1188C194 107.997 180.429 115.985 163.688 115.985C146.946 115.985 133.375 107.997 133.375 85.1188C133.375 62.2406 163.688 33.1359 163.688 33.1359C163.688 33.1359 194 62.2406 194 85.1188Z" fill="#EB5452"/>
<path d="M162.583 112.486L162.894 93.3384L175.814 69.651L162.942 90.3349L163.082 81.7257L171.986 64.588L163.119 79.4474L163.37 63.9633L172.905 50.3194L163.409 61.5283L163.566 33.136L162.58 70.7224L162.661 69.1719L152.967 54.301L162.506 72.1483L161.603 89.4415L161.576 88.9824L150.4 73.3331L161.542 90.604L161.429 92.7667L161.409 92.7991L161.418 92.9767L159.126 136.851H162.188L162.556 114.189L173.67 96.9605L162.583 112.486Z" fill="#3F3D56"/>
<path d="M130.95 65.6885C130.95 90.702 116.112 99.4358 97.8083 99.4358C79.5047 99.4358 64.6667 90.702 64.6667 65.6885C64.6667 40.675 97.8083 8.85388 97.8083 8.85388C97.8083 8.85388 130.95 40.675 130.95 65.6885Z" fill="#EB5452"/>
<path d="M96.6011 95.6095L96.9404 74.6754L111.066 48.7771L96.9937 71.3915L97.1463 61.9788L106.882 43.2416L97.1865 59.4878L97.4609 42.5585L107.886 27.6412L97.5042 39.8963L97.6756 8.854L96.598 49.9485L96.6866 48.2532L86.0875 31.9944L96.5166 51.5075L95.529 70.4148L95.4997 69.9127L83.2808 52.803L95.4627 71.6858L95.3391 74.0502L95.317 74.0859L95.3271 74.2799L92.8215 122.249H96.1692L96.5708 97.4721L108.723 78.6355L96.6011 95.6095Z" fill="#3F3D56"/>
<path d="M168.133 138.925C168.133 144.294 133.029 161 89.725 161C46.4213 161 11.3167 144.294 11.3167 138.925C11.3167 133.556 43.5921 121.508 86.8958 121.508C130.2 121.508 168.133 133.556 168.133 138.925Z" fill="#3F3D56"/>
<path opacity="0.1" d="M168.133 138.925C168.133 144.294 133.029 161 89.725 161C46.4213 161 11.3167 144.294 11.3167 138.925C11.3167 133.556 43.5921 121.508 86.8958 121.508C130.2 121.508 168.133 133.556 168.133 138.925Z" fill="black"/>
<path d="M168.133 138.925C168.133 144.294 133.029 148.646 89.725 148.646C46.4213 148.646 11.3167 144.294 11.3167 138.925C11.3167 133.556 43.5921 121.508 86.8958 121.508C130.2 121.508 168.133 133.556 168.133 138.925Z" fill="#3F3D56"/>
<path d="M116.083 112.006C116.083 119.708 120.904 125.94 126.862 125.94L116.083 112.006Z" fill="#3F3D56"/>
<path d="M126.862 125.94C126.862 118.152 132.242 111.85 138.891 111.85L126.862 125.94Z" fill="#EB5452"/>
<path d="M119.988 112.704C119.988 120.02 123.062 125.94 126.862 125.94L119.988 112.704Z" fill="#EB5452"/>
<path d="M126.862 125.94C126.862 115.988 133.08 107.936 140.765 107.936L126.862 125.94Z" fill="#3F3D56"/>
<path d="M124.594 126.038C124.594 126.038 126.123 125.991 126.583 125.662C127.044 125.334 128.935 124.941 129.049 125.468C129.164 125.996 131.347 128.091 129.621 128.105C127.895 128.119 125.611 127.835 125.151 127.555C124.691 127.274 124.594 126.038 124.594 126.038Z" fill="#A8A8A8"/>
<path opacity="0.2" d="M129.651 127.921C127.926 127.935 125.641 127.652 125.182 127.371C124.831 127.157 124.692 126.39 124.645 126.036C124.613 126.038 124.594 126.038 124.594 126.038C124.594 126.038 124.691 127.274 125.151 127.555C125.611 127.835 127.895 128.119 129.621 128.105C130.119 128.101 130.291 127.923 130.282 127.66C130.212 127.819 130.022 127.918 129.651 127.921Z" fill="black"/>
<path opacity="0.1" d="M90.7354 142.166C105.468 142.166 117.41 140.261 117.41 137.913C117.41 135.564 105.468 133.66 90.7354 133.66C76.0032 133.66 64.0604 135.564 64.0604 137.913C64.0604 140.261 76.0032 142.166 90.7354 142.166Z" fill="black"/>
<path d="M102.456 128.394H99.8292V134.47H102.456V128.394Z" fill="#FFB9B9"/>
<path d="M102.658 46.3734H92.5542V64.6002H102.658V46.3734Z" fill="#FF6584"/>
<path d="M110.079 80.8689L110.429 83.6728L101.22 86.4765L100.054 81.3363L110.079 80.8689Z" fill="#FFB9B9"/>
<path d="M96.4399 53.8825C96.4399 53.8825 96.2068 55.9853 95.7405 55.9853C95.2742 55.9853 93.6422 56.8031 93.6422 56.8031L93.1759 59.0228L96.4399 61.0088L101.802 60.4247L103.318 58.0882L101.802 56.5695C101.802 56.5695 100.52 53.7657 100.986 53.1815C101.453 52.5974 96.4399 53.8825 96.4399 53.8825Z" fill="#FFB9B9"/>
<path opacity="0.1" d="M96.4399 53.8825C96.4399 53.8825 96.2068 55.9853 95.7405 55.9853C95.2742 55.9853 93.6422 56.8031 93.6422 56.8031L93.1759 59.0228L96.4399 61.0088L101.802 60.4247L103.318 58.0882L101.802 56.5695C101.802 56.5695 100.52 53.7657 100.986 53.1815C101.453 52.5974 96.4399 53.8825 96.4399 53.8825Z" fill="black"/>
<path d="M81.8684 126.664C81.8684 126.664 80.8192 133.674 79.5369 134.141C78.2546 134.608 84.433 135.426 84.433 135.426L84.8993 132.856C84.8993 132.856 85.0158 128.183 85.4821 127.482C85.9484 126.781 81.8684 126.664 81.8684 126.664Z" fill="#FFB9B9"/>
<path d="M93.7588 85.8924C93.7588 85.8924 110.662 82.855 110.778 82.2708C110.895 81.6867 114.276 86.7102 112.177 96.5235C110.079 106.337 104.833 129.468 104.833 129.468C104.833 129.468 99.4709 131.104 99.5874 129.818C99.704 128.533 101.453 106.22 101.453 106.22L100.287 96.7571L98.3051 97.9254L90.0285 114.281L85.8319 128.417C85.8319 128.417 80.4695 129.351 81.2856 127.365C82.1016 125.379 84.7827 109.958 84.7827 109.958L92.1268 88.2289C92.1268 88.2289 91.8937 85.8924 93.7588 85.8924Z" fill="#2F2E41"/>
<path d="M98.0137 55.4596C100.718 55.4596 102.91 53.2628 102.91 50.5529C102.91 47.8431 100.718 45.6463 98.0137 45.6463C95.3097 45.6463 93.1176 47.8431 93.1176 50.5529C93.1176 53.2628 95.3097 55.4596 98.0137 55.4596Z" fill="#FFB9B9"/>
<path d="M103.085 56.6863C103.085 56.6863 100.753 58.9059 95.2742 58.3218C89.7953 57.7377 96.7897 70.8221 96.7897 70.8221L99.0045 84.0233C99.0045 84.0233 108.797 82.855 109.146 80.6353C109.496 78.4157 103.085 56.6863 103.085 56.6863Z" fill="#F2F2F2"/>
<path d="M100.753 69.1866C100.753 69.1866 97.9554 67.7847 96.9063 63.9294C95.8571 60.0742 94.9245 56.1022 94.3417 56.219C93.8495 56.3177 89.2853 58.082 87.8061 59.2617C87.5333 59.4792 87.3655 59.6769 87.3473 59.8406C87.2308 60.892 91.5439 71.4062 91.5439 71.4062C91.5439 71.4062 94.9245 78.9998 93.5257 81.4531C92.1268 83.9065 92.0102 87.0607 94.5748 86.8271C97.1394 86.5934 105.649 86.1261 104.483 79.5839C104.483 79.5839 106.698 84.1401 112.877 80.869C112.877 80.869 116.607 80.2849 116.49 78.9998C116.374 77.7148 110.545 66.6164 110.545 66.6164C110.545 66.6164 109.613 61.7098 111.361 59.8406L107.398 55.1676C107.398 55.1676 106.465 53.7657 105.533 54.4667C104.6 55.1676 102.502 56.3358 102.152 56.4527C101.802 56.5695 101.572 56.0328 101.572 56.0328C100.765 57.7258 100.441 59.6099 100.637 61.4761C100.986 64.5136 100.753 69.1866 100.753 69.1866Z" fill="#2F2E41"/>
<path d="M82.2181 132.739C82.2181 132.739 81.9578 131.921 80.456 132.739C80.456 132.739 80.9358 130.169 79.3038 130.169C77.6718 130.169 77.0889 133.206 77.0889 133.206C77.0889 133.206 76.6226 135.192 73.4752 136.01C70.3277 136.828 72.7757 139.632 74.9906 139.632C77.2055 139.632 80.1198 137.879 80.1198 137.879C80.1198 137.879 86.1816 137.996 86.2981 136.828C86.4147 135.66 85.7153 132.155 85.249 132.155C84.7827 132.155 83.8501 133.791 83.8501 133.791L82.2181 132.739Z" fill="#2F2E41"/>
<path d="M102.035 130.683C102.035 130.683 100.403 128.931 99.4708 131.851C98.5382 134.772 97.8388 135.94 98.4217 136.408C99.0045 136.875 99.4708 136.641 99.2377 137.576C99.0045 138.51 99.9371 140.496 102.035 140.496C104.134 140.496 104.717 138.978 104.6 137.926C104.483 136.875 103.551 135.59 103.551 135.59L102.618 132.319L102.035 130.683Z" fill="#2F2E41"/>
<path d="M111.245 48.5085L105.066 50.6114C105.066 50.6114 99.4709 53.8825 101.919 54.5834C104.367 55.2844 106.465 52.4806 106.465 52.4806L111.828 51.0787L111.245 48.5085Z" fill="#FFB9B9"/>
<path d="M94.6825 42.9655C93.9489 43.4691 93.365 44.1589 92.8098 44.8549C91.6816 46.2692 90.5763 47.9582 90.8542 49.7472C90.9598 50.4267 91.2611 51.0591 91.4308 51.7254C91.6597 52.6247 91.6446 53.5658 91.6281 54.4937C91.6417 54.888 91.5929 55.2819 91.4836 55.661C91.3203 56.0302 91.1283 56.386 90.9092 56.7251C90.3478 57.7731 90.334 59.0183 90.3335 60.2078C90.3066 60.6082 90.361 61.01 90.4934 61.3888C90.6467 61.7464 90.932 62.0269 91.1687 62.3355C91.5609 62.8569 91.8227 63.465 91.932 64.1088C92.0413 64.7525 91.9949 65.4132 91.7968 66.0353C92.1011 66.0366 92.3994 65.9509 92.6568 65.7883C92.9141 65.6257 93.1199 65.3928 93.2498 65.1171C93.2902 65.4136 93.2647 65.7153 93.1752 66.0007C93.0857 66.2862 92.9343 66.5482 92.7318 66.7682C94.0663 66.3707 95.4967 65.7007 95.9838 64.3937C96.1268 63.9496 96.2073 63.4878 96.2233 63.0215C96.4824 59.7431 96.6303 56.3422 95.4571 53.271C95.0818 52.2884 94.5709 51.3373 94.4451 50.2927C94.3193 49.2482 94.7039 48.0411 95.6615 47.6097C95.6838 47.8771 95.8023 48.1273 95.995 48.3136C96.2081 48.4722 96.6023 48.3728 96.6061 48.1068L97.0687 48.7521C97.2461 48.6648 97.3975 48.5324 97.5079 48.3682L97.825 48.7572L98.4994 48.2655L99.085 48.8984C99.3105 48.7697 99.4902 48.5737 99.5992 48.3377C99.725 48.5263 99.8808 48.7336 100.106 48.7541C100.597 48.7985 100.699 48.0175 101.128 47.7739C101.286 47.7037 101.465 47.6928 101.63 47.7432C101.796 47.7936 101.938 47.9019 102.031 48.0484C102.208 48.35 102.273 48.7046 102.213 49.0494C102.036 50.6558 100.668 52.1216 101.074 53.6859C101.302 54.5655 102.07 55.2709 102.128 56.1778C102.174 56.9027 101.749 57.5883 101.755 58.3146C101.763 59.1658 102.35 59.8887 102.922 60.5171C103.942 61.6356 105.015 62.7016 106.142 63.7153L105.794 63.105C105.956 63.0922 106.12 63.1148 106.273 63.1711C106.426 63.2275 106.565 63.3164 106.68 63.4317C106.78 63.0809 106.614 62.7155 106.458 62.3861C105.521 60.4138 104.764 58.3137 104.651 56.1322C104.494 53.0997 105.582 50.0201 104.892 47.0632C104.496 45.4077 103.571 43.9269 102.259 42.8452C101.622 42.3191 101.138 42.004 100.312 41.946C99.3891 41.8656 98.4605 41.8729 97.5387 41.9678C96.5203 42.0649 95.5404 42.4072 94.6825 42.9655Z" fill="#FF6584"/>
<path d="M106.465 55.2844C106.465 55.2844 107.747 55.4012 108.33 55.2844C108.913 55.1675 109.729 54.5834 109.729 54.5834L114.159 51.3123L110.312 51.8964C110.312 51.8964 111.012 46.5225 110.778 46.4057C110.545 46.2888 122.086 44.0692 121.853 47.6907C121.62 51.3123 115.092 58.4386 111.361 59.8405L108.913 60.191L106.465 55.2844Z" fill="#2F2E41"/>
<path d="M119.027 96.7017H64.0604V109.663H119.027V96.7017Z" fill="white"/>
<path d="M111.853 99.6382H71.0323V106.524H111.853V99.6382Z" fill="#3F3D56"/>
<path d="M80.5186 102.93C80.5023 102.753 79.723 102.675 78.6538 102.719C79.2733 101.845 79.6322 101.147 79.4934 101.037C79.3624 100.933 78.8265 101.382 78.1739 102.11C78.1122 101.133 77.969 100.448 77.8021 100.448C77.62 100.448 77.4662 101.263 77.4156 102.383C76.5076 101.728 75.7744 101.344 75.6615 101.487C75.5537 101.624 76.0445 102.201 76.8246 102.892C75.795 103.045 75.0696 103.261 75.0856 103.435C75.1019 103.611 75.8812 103.69 76.9504 103.646C76.3309 104.52 75.972 105.218 76.1108 105.328C76.2418 105.431 76.7777 104.983 77.4303 104.255C77.492 105.232 77.6352 105.916 77.8021 105.916C77.9842 105.916 78.138 105.102 78.1886 103.982C79.0966 104.636 79.8298 105.02 79.9427 104.877C80.0505 104.741 79.5597 104.163 78.7796 103.473C79.8092 103.319 80.5346 103.103 80.5186 102.93Z" fill="white"/>
<path d="M87.3894 102.93C87.3731 102.753 86.5938 102.675 85.5246 102.719C86.1442 101.845 86.503 101.147 86.3642 101.037C86.2332 100.933 85.6973 101.382 85.0447 102.11C84.9831 101.133 84.8398 100.448 84.6729 100.448C84.4909 100.448 84.337 101.263 84.2864 102.383C83.3784 101.728 82.6452 101.344 82.5323 101.487C82.4245 101.624 82.9153 102.201 83.6955 102.892C82.6658 103.045 81.9404 103.261 81.9564 103.435C81.9728 103.611 82.752 103.69 83.8212 103.646C83.2017 104.52 82.8428 105.218 82.9817 105.328C83.1126 105.431 83.6486 104.983 84.3011 104.255C84.3628 105.232 84.506 105.916 84.6729 105.916C84.855 105.916 85.0089 105.102 85.0594 103.982C85.9674 104.636 86.7007 105.02 86.8136 104.877C86.9213 104.741 86.4306 104.163 85.6504 103.473C86.6801 103.319 87.4055 103.103 87.3894 102.93Z" fill="white"/>
<path d="M94.2602 102.93C94.2439 102.753 93.4646 102.675 92.3954 102.719C93.015 101.845 93.3738 101.147 93.235 101.037C93.104 100.933 92.5681 101.382 91.9155 102.11C91.8539 101.133 91.7106 100.448 91.5437 100.448C91.3617 100.448 91.2078 101.263 91.1572 102.383C90.2492 101.728 89.516 101.344 89.4031 101.487C89.2954 101.624 89.7861 102.201 90.5663 102.892C89.5366 103.045 88.8112 103.261 88.8273 103.435C88.8436 103.611 89.6229 103.69 90.6921 103.646C90.0725 104.52 89.7136 105.218 89.8525 105.328C89.9834 105.431 90.5194 104.983 91.1719 104.255C91.2336 105.232 91.3768 105.916 91.5437 105.916C91.7258 105.916 91.8797 105.102 91.9302 103.982C92.8382 104.636 93.5715 105.02 93.6844 104.877C93.7921 104.741 93.3014 104.163 92.5212 103.473C93.5509 103.319 94.2763 103.103 94.2602 102.93Z" fill="white"/>
<path d="M101.131 102.93C101.115 102.753 100.335 102.675 99.2662 102.719C99.8858 101.845 100.245 101.147 100.106 101.037C99.9749 100.933 99.4389 101.382 98.7864 102.11C98.7247 101.133 98.5815 100.448 98.4146 100.448C98.2325 100.448 98.0786 101.263 98.0281 102.383C97.1201 101.728 96.3868 101.344 96.2739 101.487C96.1662 101.624 96.6569 102.201 97.4371 102.892C96.4074 103.045 95.682 103.261 95.6981 103.435C95.7144 103.611 96.4937 103.69 97.5629 103.646C96.9433 104.52 96.5845 105.218 96.7233 105.328C96.8543 105.431 97.3902 104.983 98.0428 104.255C98.1044 105.232 98.2477 105.916 98.4146 105.916C98.5966 105.916 98.7505 105.102 98.8011 103.982C99.7091 104.636 100.442 105.02 100.555 104.877C100.663 104.741 100.172 104.163 99.392 103.473C100.422 103.319 101.147 103.103 101.131 102.93Z" fill="white"/>
<path d="M108.002 102.93C107.986 102.753 107.206 102.675 106.137 102.719C106.757 101.845 107.115 101.147 106.977 101.037C106.846 100.933 106.31 101.382 105.657 102.11C105.596 101.133 105.452 100.448 105.285 100.448C105.103 100.448 104.949 101.263 104.899 102.383C103.991 101.728 103.258 101.344 103.145 101.487C103.037 101.624 103.528 102.201 104.308 102.892C103.278 103.045 102.553 103.261 102.569 103.435C102.585 103.611 103.365 103.69 104.434 103.646C103.814 104.52 103.455 105.218 103.594 105.328C103.725 105.431 104.261 104.983 104.914 104.255C104.975 105.232 105.118 105.916 105.285 105.916C105.467 105.916 105.621 105.102 105.672 103.982C106.58 104.636 107.313 105.02 107.426 104.877C107.534 104.741 107.043 104.163 106.263 103.473C107.293 103.319 108.018 103.103 108.002 102.93Z" fill="white"/>
<path d="M86.6479 91.1496C86.6479 91.1496 86.065 98.86 88.8627 99.2105C91.6605 99.5609 89.0959 90.4486 89.0959 90.4486L86.6479 91.1496Z" fill="#FFB9B9"/>
<path d="M88.1633 59.6069L87.3473 59.8405C87.3473 59.8405 83.9667 86.9438 86.1816 92.201C86.1816 92.201 88.513 90.9159 89.6787 91.1495L91.5439 69.0697L88.1633 59.6069Z" fill="#2F2E41"/>
</g>
<defs>
<clipPath id="clip0">
<rect width="194" height="161" fill="white"/>
</clipPath>
</defs>
</svg>
