<svg width="202" height="139" viewBox="0 0 202 139" fill="none" xmlns="http://www.w3.org/2000/svg">
<g opacity="0.3" clip-path="url(#clip0)">
<path opacity="0.1" d="M114.257 18.9232C101.309 18.9405 88.8463 15.282 76.9255 11.2178C65.0047 7.15356 53.1758 2.60247 40.4686 0.673954C32.2962 -0.565683 23.0032 -0.451734 16.6149 4.04929C10.4657 8.37939 8.68507 15.5462 7.82591 22.1673C7.17981 27.1483 6.88188 32.3762 9.30172 36.9325C10.9819 40.0955 13.8573 42.7025 15.8839 45.717C22.9581 56.2038 18.7039 69.5999 11.8289 80.3302C8.60539 85.3647 4.82926 90.1903 2.39211 95.5131C-0.0450521 100.836 -1.04451 106.872 1.44115 112.126C3.90429 117.333 9.46801 121.112 15.4388 123.693C27.5639 128.945 41.6811 130.071 55.4189 130.504C85.8288 131.466 116.298 129.505 146.685 127.543C157.93 126.818 169.226 126.088 180.239 123.987C186.353 122.821 192.65 121.091 196.985 117.3C202.488 112.486 203.614 104.627 199.61 98.9782C192.894 89.5031 175.186 87.7162 170.371 77.4641C167.715 71.8202 170.005 65.3475 173.378 59.9072C180.611 48.2343 193.062 37.7785 193.272 24.7226C193.415 15.7568 186.941 7.01026 177.27 3.11352C167.133 -0.967961 153.312 0.0817599 146.21 7.68878C138.908 15.5254 125.689 18.9111 114.257 18.9232Z" fill="#EB5452"/>
<path d="M171.923 111.422C171.923 111.422 169.794 110.022 167.684 111.018C167.684 111.018 168.334 112.265 171.005 112.147L171.923 111.422Z" fill="#EB5452"/>
<path d="M172.193 111.497C172.193 111.497 172.841 113.955 171.216 115.628C171.216 115.628 170.239 114.615 171.216 112.132L172.193 111.497Z" fill="#EB5452"/>
<path d="M174.84 109.136C174.84 109.136 174.682 107.046 169.945 107.74C169.945 107.74 169.922 109.088 171.585 109.727C173.248 110.366 174.01 109.827 174.84 109.136Z" fill="#EB5452"/>
<path d="M175.138 109.123C175.138 109.123 177.14 109.763 175.354 114.192C175.354 114.192 174.032 113.898 173.795 112.135C173.558 110.373 174.261 109.765 175.138 109.123Z" fill="#EB5452"/>
<path d="M177.812 106.156C177.812 106.156 178.084 102.716 173.243 103.068C173.243 103.068 172.896 106.175 176.958 106.983L177.812 106.156Z" fill="#EB5452"/>
<path d="M181.011 102.272C181.011 102.272 180.348 98.3716 175.508 99.5336C175.508 99.5336 175.491 102.905 180.221 103.201L181.011 102.272Z" fill="#EB5452"/>
<path d="M183.35 98.2559C183.35 98.2559 182.238 94.4576 177.443 95.5937C177.443 95.5937 178.585 99.0104 183.031 98.9569L183.35 98.2559Z" fill="#EB5452"/>
<path d="M185.57 94.3333C185.57 94.3333 184.484 90.3917 179.854 91.5709C179.854 91.5709 181.399 95.3157 185.264 94.9997L185.57 94.3333Z" fill="#EB5452"/>
<path d="M187.001 90.6075C187.001 90.6075 186.166 85.7871 181.85 86.8541C181.85 86.8541 183.104 91.2394 186.684 91.3102L187.001 90.6075Z" fill="#EB5452"/>
<path d="M188.344 86.1065C188.344 86.1065 187.341 81.2481 182.974 82.6535C182.974 82.6535 184.685 87.246 188.034 86.7712L188.344 86.1065Z" fill="#EB5452"/>
<path d="M189.168 81.9179C189.168 81.9179 187.576 77.0578 184.2 77.189C184.2 77.189 185.827 82.3219 188.886 82.8865L189.168 81.9179Z" fill="#EB5452"/>
<path d="M189.702 77.8296C189.702 77.8296 187.969 71.9801 185.222 72.4308C185.222 72.4308 186.421 76.9024 189.605 78.7412L189.702 77.8296Z" fill="#EB5452"/>
<path d="M190.003 72.9522C190.003 72.9522 188.378 68.0782 185.673 67.8831C185.673 67.8831 186.778 72.6794 189.949 74.2194L190.003 72.9522Z" fill="#EB5452"/>
<path d="M190.33 68.4011C190.33 68.4011 188.305 63.5219 186.52 63.4114C186.52 63.4114 187.4 68.2163 190.157 69.2022L190.33 68.4011Z" fill="#EB5452"/>
<path d="M190.554 64.1677C190.554 64.1677 189.308 58.869 187.519 58.4287C187.519 58.4287 187.763 62.764 190.374 64.5648L190.554 64.1677Z" fill="#EB5452"/>
<path d="M191.229 58.6221C191.229 58.6221 189.92 54.3973 188.47 53.7533C188.47 53.7533 188.756 58.7343 190.895 59.6545L191.229 58.6221Z" fill="#EB5452"/>
<path d="M191.789 54.9964L192.052 47.5482C192.052 47.5482 189.341 53.1628 191.593 56.3034L191.789 54.9964Z" fill="#EB5452"/>
<path d="M193.881 47.5879C193.881 47.5879 195.833 42.1494 196.306 41.8455C196.306 41.8455 192.478 45.3745 192.852 49.9135L193.881 47.5879Z" fill="#EB5452"/>
<path d="M177.944 106.131C177.944 106.131 181.377 105.683 181.275 110.519C181.275 110.519 178.172 111.024 177.159 107.023L177.944 106.131Z" fill="#EB5452"/>
<path d="M181.174 102.141C181.174 102.141 185.141 102.129 184.812 107.078C184.812 107.078 181.481 107.672 180.383 103.076L181.174 102.141Z" fill="#EB5452"/>
<path d="M183.388 98.5754C183.388 98.5754 186.989 96.892 189.293 101.238C189.293 101.238 185.967 102.64 183.069 99.2781L183.388 98.5754Z" fill="#EB5452"/>
<path d="M185.65 94.3696C185.65 94.3696 189.338 92.5792 191.503 96.823C191.503 96.823 187.661 98.142 185.345 95.0412L185.65 94.3696Z" fill="#EB5452"/>
<path d="M186.954 90.7128C186.954 90.7128 190.504 87.3341 193.336 90.7508C193.336 90.7508 189.71 93.5322 186.792 91.4656L186.954 90.7128Z" fill="#EB5452"/>
<path d="M188.143 85.9908C188.143 85.9908 191.713 82.5378 194.522 86.1497C194.522 86.1497 190.516 88.9863 188.014 86.716L188.143 85.9908Z" fill="#EB5452"/>
<path d="M188.81 81.7798C188.81 81.7798 191.56 77.4636 194.799 78.427C194.799 78.427 191.945 82.997 188.841 82.7933L188.81 81.7798Z" fill="#EB5452"/>
<path d="M189.62 77.8019C189.62 77.8019 192.392 72.3669 195.014 73.313C195.014 73.313 193.015 77.4912 189.549 78.7187L189.62 77.8019Z" fill="#EB5452"/>
<path d="M189.812 72.669C189.812 72.669 192.662 68.3907 195.331 68.9138C195.331 68.9138 193.001 73.2526 189.535 73.9069L189.812 72.669Z" fill="#EB5452"/>
<path d="M190.034 68.3061C190.034 68.3061 192.243 63.5047 194.037 63.4719C194.037 63.4719 192.977 68.2388 190.183 69.121L190.034 68.3061Z" fill="#EB5452"/>
<path d="M190.467 64.0641C190.467 64.0641 192.922 59.2022 194.766 59.1918C194.766 59.1918 193.511 63.3493 190.549 64.4905L190.467 64.0641Z" fill="#EB5452"/>
<path d="M190.836 58.926C190.836 58.926 192.672 54.9032 194.193 54.4474C194.193 54.4474 193.275 59.3507 191.039 59.9929L190.836 58.926Z" fill="#EB5452"/>
<path d="M192.007 54.8496L196.111 48.6187C196.111 48.6187 195.059 54.765 191.408 56.0427L192.007 54.8496Z" fill="#EB5452"/>
<path d="M194.824 48.0904C194.824 48.0904 199.592 44.81 199.766 44.28C199.766 44.28 197.34 48.8742 192.837 49.6857L194.824 48.0904Z" fill="#EB5452"/>
<path d="M195.109 46.6141C195.109 46.6141 200.585 41.3673 201.983 41.3724C201.983 41.3724 197.467 41.5779 194.978 46.3344L195.109 46.6141Z" fill="#EB5452"/>
<path d="M190.89 59.7046L191.089 59.7305C192.118 51.704 193.618 46.9543 195.312 46.3725L195.246 46.1826C193.45 46.8041 191.94 51.4812 190.89 59.7046Z" fill="#444053"/>
<path d="M189.376 78.9L189.677 78.9242C189.741 78.1749 189.79 77.4083 189.823 76.6435C190.11 69.9999 190.556 63.8984 191.141 59.3248L190.968 59.109C190.381 63.6929 189.809 69.9774 189.521 76.6314C189.489 77.3911 189.44 78.1542 189.376 78.9Z" fill="#444053"/>
<path d="M166.304 115.252C166.355 115.229 171.661 112.867 177.168 107.236C180.394 103.937 183.075 100.149 185.11 96.0132C187.656 90.8457 189.208 84.4956 189.728 78.3268L189.414 78.4735C188.245 92.3202 181.921 101.781 176.892 106.935C171.439 112.517 166.193 114.855 166.141 114.877L166.304 115.252Z" fill="#444053"/>
<path d="M180.041 14.7151H13.601C13.2078 14.7151 12.8306 14.8708 12.5526 15.148C12.2745 15.4251 12.1183 15.801 12.1183 16.193V20.4989H181.524V16.193C181.524 15.801 181.368 15.4251 181.09 15.148C180.812 14.8708 180.435 14.7151 180.041 14.7151Z" fill="#3F3D56"/>
<path d="M12.1183 20.4989V117.398C12.1183 118.188 12.4333 118.946 12.994 119.505C13.5546 120.064 14.3151 120.378 15.108 120.378H178.534C179.327 120.378 180.088 120.064 180.648 119.505C181.209 118.946 181.524 118.188 181.524 117.398V20.4989H12.1183Z" fill="white"/>
<path opacity="0.8" d="M14.8014 18.2544C15.184 18.2544 15.4943 17.9452 15.4943 17.5638C15.4943 17.1824 15.184 16.8732 14.8014 16.8732C14.4187 16.8732 14.1085 17.1824 14.1085 17.5638C14.1085 17.9452 14.4187 18.2544 14.8014 18.2544Z" fill="#FA5959"/>
<path opacity="0.8" d="M16.7068 18.2544C17.0894 18.2544 17.3996 17.9452 17.3996 17.5638C17.3996 17.1824 17.0894 16.8732 16.7068 16.8732C16.3241 16.8732 16.0139 17.1824 16.0139 17.5638C16.0139 17.9452 16.3241 18.2544 16.7068 18.2544Z" fill="#FED253"/>
<path opacity="0.8" d="M18.6122 18.2544C18.9948 18.2544 19.305 17.9452 19.305 17.5638C19.305 17.1824 18.9948 16.8732 18.6122 16.8732C18.2295 16.8732 17.9193 17.1824 17.9193 17.5638C17.9193 17.9452 18.2295 18.2544 18.6122 18.2544Z" fill="#8CCF4D"/>
<path opacity="0.05" d="M164.014 36.6556H27.8654V96.3275H164.014V36.6556Z" fill="black"/>
<path d="M162.974 37.108H28.9047V95.4642H162.974V37.108Z" fill="#3F3D56"/>
<path d="M65.4534 52.127C62.8155 52.127 60.2368 52.9066 58.0434 54.3674C55.85 55.8282 54.1405 57.9045 53.131 60.3337C52.1215 62.7628 51.8574 65.4359 52.372 68.0147C52.8866 70.5935 54.1569 72.9623 56.0222 74.8215C57.8875 76.6807 60.2641 77.9469 62.8514 78.4598C65.4386 78.9728 68.1204 78.7095 70.5575 77.7033C72.9946 76.6971 75.0777 74.9932 76.5433 72.807C78.0088 70.6207 78.7911 68.0505 78.7911 65.4211C78.7911 63.6753 78.4461 61.9466 77.7758 60.3337C77.1055 58.7207 76.1231 57.2552 74.8846 56.0207C73.646 54.7862 72.1757 53.807 70.5575 53.1389C68.9393 52.4708 67.2049 52.127 65.4534 52.127ZM67.8455 65.7405V72.0354H63.1306V65.7405C62.4781 65.2482 61.9972 64.5641 61.7558 63.7848C61.5144 63.0054 61.5247 62.1702 61.7852 61.3969C62.0457 60.6237 62.5433 59.9516 63.2077 59.4754C63.8721 58.9992 64.6697 58.743 65.488 58.743C66.3064 58.743 67.104 58.9992 67.7684 59.4754C68.4328 59.9516 68.9304 60.6237 69.1909 61.3969C69.4514 62.1702 69.4617 63.0054 69.2203 63.7848C68.9789 64.5641 68.498 65.2482 67.8455 65.7405Z" fill="#EB5452"/>
<path opacity="0.05" d="M65.4534 52.127C62.8155 52.127 60.2368 52.9066 58.0434 54.3674C55.85 55.8282 54.1405 57.9045 53.131 60.3337C52.1215 62.7628 51.8574 65.4359 52.372 68.0147C52.8866 70.5935 54.1569 72.9623 56.0222 74.8215C57.8875 76.6807 60.2641 77.9469 62.8514 78.4598C65.4386 78.9728 68.1204 78.7095 70.5575 77.7033C72.9946 76.6971 75.0777 74.9932 76.5433 72.807C78.0088 70.6207 78.7911 68.0505 78.7911 65.4211C78.7911 63.6753 78.4461 61.9466 77.7758 60.3337C77.1055 58.7207 76.1231 57.2552 74.8846 56.0207C73.646 54.7862 72.1757 53.807 70.5575 53.1389C68.9393 52.4708 67.2049 52.127 65.4534 52.127ZM67.8455 65.7405V72.0354H63.1306V65.7405C62.4781 65.2482 61.9972 64.5641 61.7558 63.7848C61.5144 63.0054 61.5247 62.1702 61.7852 61.3969C62.0457 60.6237 62.5433 59.9516 63.2077 59.4754C63.8721 58.9992 64.6697 58.743 65.488 58.743C66.3064 58.743 67.104 58.9992 67.7684 59.4754C68.4328 59.9516 68.9304 60.6237 69.1909 61.3969C69.4514 62.1702 69.4617 63.0054 69.2203 63.7848C68.9789 64.5641 68.498 65.2482 67.8455 65.7405Z" fill="black"/>
<path d="M65.4534 48.3286C62.0617 48.3286 58.7463 49.3311 55.9262 51.2092C53.1062 53.0874 50.9082 55.7569 49.6103 58.8801C48.3124 62.0033 47.9728 65.4401 48.6344 68.7557C49.2961 72.0713 50.9294 75.1169 53.3276 77.5073C55.7259 79.8978 58.7814 81.5257 62.1079 82.1852C65.4344 82.8447 68.8823 82.5062 72.0158 81.2125C75.1493 79.9188 77.8275 77.728 79.7118 74.9172C81.5961 72.1064 82.6018 68.8017 82.6018 65.4211C82.6018 60.8879 80.7951 56.5404 77.5792 53.3349C74.3632 50.1294 70.0014 48.3286 65.4534 48.3286ZM68.528 65.832V73.9242H62.4654V65.832C61.6262 65.199 61.0076 64.3192 60.6971 63.3169C60.3865 62.3146 60.3997 61.2404 60.7346 60.2459C61.0696 59.2515 61.7095 58.387 62.5639 57.7746C63.4184 57.1621 64.4442 56.8326 65.4967 56.8326C66.5491 56.8326 67.575 57.1621 68.4295 57.7746C69.2839 58.387 69.9238 59.2515 70.2588 60.2459C70.5937 61.2404 70.6069 62.3146 70.2963 63.3169C69.9858 64.3192 69.3672 65.199 68.528 65.832Z" fill="#EB5452"/>
<path d="M145.133 63.1783H89.7036V69.0485H145.133V63.1783Z" fill="white"/>
<path d="M145.133 73.8828H133.181V79.7529H145.133V73.8828Z" fill="#EB5452"/>
<path d="M95.16 66.0254H94.157L95.0491 65.138C95.0651 65.1215 95.074 65.0996 95.074 65.0767C95.074 65.0538 95.0651 65.0318 95.0491 65.0154C95.041 65.0073 95.0315 65.0009 95.0209 64.9965C95.0104 64.9921 94.999 64.9898 94.9876 64.9898C94.9762 64.9898 94.9648 64.9921 94.9543 64.9965C94.9437 65.0009 94.9342 65.0073 94.9261 65.0154L94.034 65.9045V64.9032C94.034 64.8803 94.0249 64.8583 94.0087 64.8421C93.9924 64.8259 93.9704 64.8168 93.9474 64.8168C93.9246 64.8173 93.9028 64.8265 93.8867 64.8426C93.8705 64.8587 93.8613 64.8804 93.8608 64.9032V65.9045L92.9705 65.0102C92.9624 65.0021 92.9529 64.9957 92.9423 64.9913C92.9318 64.9869 92.9204 64.9847 92.909 64.9847C92.8976 64.9847 92.8862 64.9869 92.8757 64.9913C92.8651 64.9957 92.8556 65.0021 92.8475 65.0102C92.8315 65.0266 92.8226 65.0486 92.8226 65.0715C92.8226 65.0944 92.8315 65.1164 92.8475 65.1328L93.7396 66.0202H92.7349C92.7121 66.0207 92.6903 66.0299 92.6742 66.046C92.658 66.0621 92.6488 66.0838 92.6483 66.1065C92.6483 66.1294 92.6574 66.1514 92.6737 66.1676C92.6899 66.1838 92.712 66.1929 92.7349 66.1929H93.7396L92.8475 67.082C92.8315 67.0984 92.8226 67.1204 92.8226 67.1433C92.8226 67.1662 92.8315 67.1882 92.8475 67.2046C92.8642 67.2201 92.8862 67.2288 92.909 67.2288C92.9318 67.2288 92.9538 67.2201 92.9705 67.2046L93.8608 66.3154V67.3151C93.8608 67.338 93.8699 67.3599 93.8862 67.3761C93.9024 67.3923 93.9245 67.4014 93.9474 67.4014C93.9704 67.4014 93.9924 67.3923 94.0087 67.3761C94.0249 67.3599 94.034 67.338 94.034 67.3151V66.3154L94.9261 67.2046C94.9428 67.2201 94.9648 67.2288 94.9876 67.2288C95.0104 67.2288 95.0324 67.2201 95.0491 67.2046C95.0651 67.1882 95.074 67.1662 95.074 67.1433C95.074 67.1204 95.0651 67.0984 95.0491 67.082L94.157 66.1929H95.16C95.1829 66.1929 95.2049 66.1838 95.2212 66.1676C95.2374 66.1514 95.2466 66.1294 95.2466 66.1065C95.2452 66.0846 95.2355 66.0639 95.2194 66.0488C95.2033 66.0337 95.182 66.0254 95.16 66.0254Z" fill="#EB5452"/>
<path d="M98.7975 66.0254H97.7946L98.6867 65.138C98.7026 65.1215 98.7116 65.0996 98.7116 65.0767C98.7116 65.0538 98.7026 65.0318 98.6867 65.0154C98.6786 65.0073 98.669 65.0009 98.6585 64.9965C98.6479 64.9921 98.6366 64.9898 98.6252 64.9898C98.6137 64.9898 98.6024 64.9921 98.5919 64.9965C98.5813 65.0009 98.5717 65.0073 98.5637 65.0154L97.6716 65.9045V64.9032C97.6716 64.8803 97.6625 64.8583 97.6462 64.8421C97.63 64.8259 97.608 64.8168 97.585 64.8168C97.5622 64.8173 97.5404 64.8265 97.5243 64.8426C97.5081 64.8587 97.4988 64.8804 97.4984 64.9032V65.9045L96.6081 65.0102C96.6 65.0021 96.5904 64.9957 96.5799 64.9913C96.5693 64.9869 96.558 64.9847 96.5466 64.9847C96.5351 64.9847 96.5238 64.9869 96.5133 64.9913C96.5027 64.9957 96.4931 65.0021 96.4851 65.0102C96.4691 65.0266 96.4602 65.0486 96.4602 65.0715C96.4602 65.0944 96.4691 65.1164 96.4851 65.1328L97.3771 66.0202H96.3725C96.3497 66.0207 96.3279 66.0299 96.3117 66.046C96.2956 66.0621 96.2863 66.0838 96.2859 66.1065C96.2859 66.1294 96.295 66.1514 96.3113 66.1676C96.3275 66.1838 96.3495 66.1929 96.3725 66.1929H97.3771L96.4851 67.082C96.4691 67.0984 96.4602 67.1204 96.4602 67.1433C96.4602 67.1662 96.4691 67.1882 96.4851 67.2046C96.5018 67.2201 96.5237 67.2288 96.5466 67.2288C96.5694 67.2288 96.5914 67.2201 96.6081 67.2046L97.4984 66.3154V67.3151C97.4984 67.338 97.5075 67.3599 97.5238 67.3761C97.54 67.3923 97.562 67.4014 97.585 67.4014C97.608 67.4014 97.63 67.3923 97.6462 67.3761C97.6625 67.3599 97.6716 67.338 97.6716 67.3151V66.3154L98.5637 67.2046C98.5804 67.2201 98.6023 67.2288 98.6252 67.2288C98.648 67.2288 98.67 67.2201 98.6867 67.2046C98.7026 67.1882 98.7116 67.1662 98.7116 67.1433C98.7116 67.1204 98.7026 67.0984 98.6867 67.082L97.7946 66.1929H98.7975C98.8205 66.1929 98.8425 66.1838 98.8588 66.1676C98.875 66.1514 98.8841 66.1294 98.8841 66.1065C98.8828 66.0846 98.8731 66.0639 98.857 66.0488C98.8409 66.0337 98.8196 66.0254 98.7975 66.0254Z" fill="#EB5452"/>
<path d="M102.435 66.0254H101.432L102.324 65.138C102.34 65.1215 102.349 65.0996 102.349 65.0767C102.349 65.0538 102.34 65.0318 102.324 65.0154C102.316 65.0073 102.307 65.0009 102.296 64.9965C102.285 64.9921 102.274 64.9898 102.263 64.9898C102.251 64.9898 102.24 64.9921 102.229 64.9965C102.219 65.0009 102.209 65.0073 102.201 65.0154L101.309 65.9045V64.9032C101.309 64.8803 101.3 64.8583 101.284 64.8421C101.268 64.8259 101.246 64.8168 101.223 64.8168C101.2 64.8173 101.178 64.8265 101.162 64.8426C101.146 64.8587 101.136 64.8804 101.136 64.9032V65.9045L100.246 65.0102C100.238 65.0021 100.228 64.9957 100.217 64.9913C100.207 64.9869 100.196 64.9847 100.184 64.9847C100.173 64.9847 100.161 64.9869 100.151 64.9913C100.14 64.9957 100.131 65.0021 100.123 65.0102C100.107 65.0266 100.098 65.0486 100.098 65.0715C100.098 65.0944 100.107 65.1164 100.123 65.1328L101.015 66.0202H100.01C99.9872 66.0207 99.9655 66.0299 99.9493 66.046C99.9332 66.0621 99.9239 66.0838 99.9235 66.1065C99.9235 66.1294 99.9326 66.1514 99.9488 66.1676C99.9651 66.1838 99.9871 66.1929 100.01 66.1929H101.015L100.123 67.082C100.107 67.0984 100.098 67.1204 100.098 67.1433C100.098 67.1662 100.107 67.1882 100.123 67.2046C100.139 67.2201 100.161 67.2288 100.184 67.2288C100.207 67.2288 100.229 67.2201 100.246 67.2046L101.136 66.3154V67.3151C101.136 67.338 101.145 67.3599 101.161 67.3761C101.178 67.3923 101.2 67.4014 101.223 67.4014C101.246 67.4014 101.268 67.3923 101.284 67.3761C101.3 67.3599 101.309 67.338 101.309 67.3151V66.3154L102.201 67.2046C102.218 67.2201 102.24 67.2288 102.263 67.2288C102.286 67.2288 102.308 67.2201 102.324 67.2046C102.34 67.1882 102.349 67.1662 102.349 67.1433C102.349 67.1204 102.34 67.0984 102.324 67.082L101.432 66.1929H102.435C102.458 66.1929 102.48 66.1838 102.496 66.1676C102.513 66.1514 102.522 66.1294 102.522 66.1065C102.52 66.0846 102.511 66.0639 102.495 66.0488C102.478 66.0337 102.457 66.0254 102.435 66.0254Z" fill="#EB5452"/>
<path d="M106.073 66.0254H105.07L105.962 65.138C105.978 65.1215 105.987 65.0996 105.987 65.0767C105.987 65.0538 105.978 65.0318 105.962 65.0154C105.954 65.0073 105.944 65.0009 105.934 64.9965C105.923 64.9921 105.912 64.9898 105.9 64.9898C105.889 64.9898 105.878 64.9921 105.867 64.9965C105.856 65.0009 105.847 65.0073 105.839 65.0154L104.947 65.9045V64.9032C104.947 64.8803 104.938 64.8583 104.921 64.8421C104.905 64.8259 104.883 64.8168 104.86 64.8168C104.837 64.8173 104.816 64.8265 104.799 64.8426C104.783 64.8587 104.774 64.8804 104.774 64.9032V65.9045L103.883 65.0102C103.875 65.0021 103.866 64.9957 103.855 64.9913C103.844 64.9869 103.833 64.9847 103.822 64.9847C103.81 64.9847 103.799 64.9869 103.788 64.9913C103.778 64.9957 103.768 65.0021 103.76 65.0102C103.744 65.0266 103.735 65.0486 103.735 65.0715C103.735 65.0944 103.744 65.1164 103.76 65.1328L104.652 66.0202H103.648C103.625 66.0207 103.603 66.0299 103.587 66.046C103.571 66.0621 103.561 66.0838 103.561 66.1065C103.561 66.1294 103.57 66.1514 103.586 66.1676C103.603 66.1838 103.625 66.1929 103.648 66.1929H104.652L103.76 67.082C103.744 67.0984 103.735 67.1204 103.735 67.1433C103.735 67.1662 103.744 67.1882 103.76 67.2046C103.777 67.2201 103.799 67.2288 103.822 67.2288C103.845 67.2288 103.867 67.2201 103.883 67.2046L104.774 66.3154V67.3151C104.774 67.338 104.783 67.3599 104.799 67.3761C104.815 67.3923 104.837 67.4014 104.86 67.4014C104.883 67.4014 104.905 67.3923 104.921 67.3761C104.938 67.3599 104.947 67.338 104.947 67.3151V66.3154L105.839 67.2046C105.856 67.2201 105.877 67.2288 105.9 67.2288C105.923 67.2288 105.945 67.2201 105.962 67.2046C105.978 67.1882 105.987 67.1662 105.987 67.1433C105.987 67.1204 105.978 67.0984 105.962 67.082L105.07 66.1929H106.073C106.096 66.1929 106.118 66.1838 106.134 66.1676C106.15 66.1514 106.159 66.1294 106.159 66.1065C106.158 66.0846 106.148 66.0639 106.132 66.0488C106.116 66.0337 106.095 66.0254 106.073 66.0254Z" fill="#EB5452"/>
<path d="M109.71 66.0254H108.707L109.599 65.138C109.615 65.1215 109.624 65.0996 109.624 65.0767C109.624 65.0538 109.615 65.0318 109.599 65.0154C109.591 65.0073 109.582 65.0009 109.571 64.9965C109.561 64.9921 109.549 64.9898 109.538 64.9898C109.526 64.9898 109.515 64.9921 109.505 64.9965C109.494 65.0009 109.484 65.0073 109.476 65.0154L108.584 65.9045V64.9032C108.584 64.8803 108.575 64.8583 108.559 64.8421C108.543 64.8259 108.521 64.8168 108.498 64.8168C108.475 64.8173 108.453 64.8265 108.437 64.8426C108.421 64.8587 108.412 64.8804 108.411 64.9032V65.9045L107.521 65.0102C107.513 65.0021 107.503 64.9957 107.493 64.9913C107.482 64.9869 107.471 64.9847 107.459 64.9847C107.448 64.9847 107.437 64.9869 107.426 64.9913C107.415 64.9957 107.406 65.0021 107.398 65.0102C107.382 65.0266 107.373 65.0486 107.373 65.0715C107.373 65.0944 107.382 65.1164 107.398 65.1328L108.29 66.0202H107.285C107.262 66.0207 107.241 66.0299 107.224 66.046C107.208 66.0621 107.199 66.0838 107.199 66.1065C107.199 66.1294 107.208 66.1514 107.224 66.1676C107.24 66.1838 107.262 66.1929 107.285 66.1929H108.29L107.398 67.082C107.382 67.0984 107.373 67.1204 107.373 67.1433C107.373 67.1662 107.382 67.1882 107.398 67.2046C107.414 67.2201 107.436 67.2288 107.459 67.2288C107.482 67.2288 107.504 67.2201 107.521 67.2046L108.411 66.3154V67.3151C108.411 67.338 108.42 67.3599 108.436 67.3761C108.453 67.3923 108.475 67.4014 108.498 67.4014C108.521 67.4014 108.543 67.3923 108.559 67.3761C108.575 67.3599 108.584 67.338 108.584 67.3151V66.3154L109.476 67.2046C109.493 67.2201 109.515 67.2288 109.538 67.2288C109.561 67.2288 109.583 67.2201 109.599 67.2046C109.615 67.1882 109.624 67.1662 109.624 67.1433C109.624 67.1204 109.615 67.0984 109.599 67.082L108.707 66.1929H109.71C109.733 66.1929 109.755 66.1838 109.771 66.1676C109.788 66.1514 109.797 66.1294 109.797 66.1065C109.796 66.0846 109.786 66.0639 109.77 66.0488C109.754 66.0337 109.732 66.0254 109.71 66.0254Z" fill="#EB5452"/>
<path d="M113.348 66.0254H112.345L113.237 65.138C113.253 65.1215 113.262 65.0996 113.262 65.0767C113.262 65.0538 113.253 65.0318 113.237 65.0154C113.229 65.0073 113.219 65.0009 113.209 64.9965C113.198 64.9921 113.187 64.9898 113.175 64.9898C113.164 64.9898 113.153 64.9921 113.142 64.9965C113.131 65.0009 113.122 65.0073 113.114 65.0154L112.222 65.9045V64.9032C112.222 64.8803 112.213 64.8583 112.196 64.8421C112.18 64.8259 112.158 64.8168 112.135 64.8168C112.112 64.8173 112.091 64.8265 112.074 64.8426C112.058 64.8587 112.049 64.8804 112.049 64.9032V65.9045L111.158 65.0102C111.15 65.0021 111.141 64.9957 111.13 64.9913C111.12 64.9869 111.108 64.9847 111.097 64.9847C111.085 64.9847 111.074 64.9869 111.063 64.9913C111.053 64.9957 111.043 65.0021 111.035 65.0102C111.019 65.0266 111.01 65.0486 111.01 65.0715C111.01 65.0944 111.019 65.1164 111.035 65.1328L111.927 66.0202H110.923C110.9 66.0207 110.878 66.0299 110.862 66.046C110.846 66.0621 110.837 66.0838 110.836 66.1065C110.836 66.1294 110.845 66.1514 110.861 66.1676C110.878 66.1838 110.9 66.1929 110.923 66.1929H111.927L111.035 67.082C111.019 67.0984 111.01 67.1204 111.01 67.1433C111.01 67.1662 111.019 67.1882 111.035 67.2046C111.052 67.2201 111.074 67.2288 111.097 67.2288C111.12 67.2288 111.142 67.2201 111.158 67.2046L112.049 66.3154V67.3151C112.049 67.338 112.058 67.3599 112.074 67.3761C112.09 67.3923 112.112 67.4014 112.135 67.4014C112.158 67.4014 112.18 67.3923 112.196 67.3761C112.213 67.3599 112.222 67.338 112.222 67.3151V66.3154L113.114 67.2046C113.131 67.2201 113.153 67.2288 113.175 67.2288C113.198 67.2288 113.22 67.2201 113.237 67.2046C113.253 67.1882 113.262 67.1662 113.262 67.1433C113.262 67.1204 113.253 67.0984 113.237 67.082L112.345 66.1929H113.348C113.371 66.1929 113.393 66.1838 113.409 66.1676C113.425 66.1514 113.434 66.1294 113.434 66.1065C113.433 66.0846 113.423 66.0639 113.407 66.0488C113.391 66.0337 113.37 66.0254 113.348 66.0254Z" fill="#EB5452"/>
<path d="M116.985 66.0254H115.982L116.874 65.138C116.89 65.1215 116.899 65.0996 116.899 65.0767C116.899 65.0538 116.89 65.0318 116.874 65.0154C116.866 65.0073 116.857 65.0009 116.846 64.9965C116.836 64.9921 116.824 64.9898 116.813 64.9898C116.801 64.9898 116.79 64.9921 116.78 64.9965C116.769 65.0009 116.759 65.0073 116.751 65.0154L115.859 65.9045V64.9032C115.859 64.8803 115.85 64.8583 115.834 64.8421C115.818 64.8259 115.796 64.8168 115.773 64.8168C115.75 64.8173 115.728 64.8265 115.712 64.8426C115.696 64.8587 115.687 64.8804 115.686 64.9032V65.9045L114.796 65.0102C114.788 65.0021 114.778 64.9957 114.768 64.9913C114.757 64.9869 114.746 64.9847 114.734 64.9847C114.723 64.9847 114.712 64.9869 114.701 64.9913C114.69 64.9957 114.681 65.0021 114.673 65.0102C114.657 65.0266 114.648 65.0486 114.648 65.0715C114.648 65.0944 114.657 65.1164 114.673 65.1328L115.565 66.0202H114.56C114.537 66.0207 114.516 66.0299 114.499 66.046C114.483 66.0621 114.474 66.0838 114.474 66.1065C114.474 66.1294 114.483 66.1514 114.499 66.1676C114.515 66.1838 114.537 66.1929 114.56 66.1929H115.565L114.673 67.082C114.657 67.0984 114.648 67.1204 114.648 67.1433C114.648 67.1662 114.657 67.1882 114.673 67.2046C114.69 67.2201 114.711 67.2288 114.734 67.2288C114.757 67.2288 114.779 67.2201 114.796 67.2046L115.686 66.3154V67.3151C115.686 67.338 115.695 67.3599 115.712 67.3761C115.728 67.3923 115.75 67.4014 115.773 67.4014C115.796 67.4014 115.818 67.3923 115.834 67.3761C115.85 67.3599 115.859 67.338 115.859 67.3151V66.3154L116.751 67.2046C116.768 67.2201 116.79 67.2288 116.813 67.2288C116.836 67.2288 116.858 67.2201 116.874 67.2046C116.89 67.1882 116.899 67.1662 116.899 67.1433C116.899 67.1204 116.89 67.0984 116.874 67.082L115.982 66.1929H116.985C117.008 66.1929 117.03 66.1838 117.046 66.1676C117.063 66.1514 117.072 66.1294 117.072 66.1065C117.071 66.0846 117.061 66.0639 117.045 66.0488C117.029 66.0337 117.007 66.0254 116.985 66.0254Z" fill="#EB5452"/>
<path d="M120.623 66.0254H119.62L120.512 65.138C120.528 65.1215 120.537 65.0996 120.537 65.0767C120.537 65.0538 120.528 65.0318 120.512 65.0154C120.504 65.0073 120.494 65.0009 120.484 64.9965C120.473 64.9921 120.462 64.9898 120.45 64.9898C120.439 64.9898 120.428 64.9921 120.417 64.9965C120.407 65.0009 120.397 65.0073 120.389 65.0154L119.497 65.9045V64.9032C119.497 64.8803 119.488 64.8583 119.472 64.8421C119.455 64.8259 119.433 64.8168 119.41 64.8168C119.388 64.8173 119.366 64.8265 119.35 64.8426C119.333 64.8587 119.324 64.8804 119.324 64.9032V65.9045L118.433 65.0102C118.425 65.0021 118.416 64.9957 118.405 64.9913C118.395 64.9869 118.383 64.9847 118.372 64.9847C118.36 64.9847 118.349 64.9869 118.339 64.9913C118.328 64.9957 118.318 65.0021 118.31 65.0102C118.294 65.0266 118.285 65.0486 118.285 65.0715C118.285 65.0944 118.294 65.1164 118.31 65.1328L119.202 66.0202H118.198C118.175 66.0207 118.153 66.0299 118.137 66.046C118.121 66.0621 118.112 66.0838 118.111 66.1065C118.111 66.1294 118.12 66.1514 118.137 66.1676C118.153 66.1838 118.175 66.1929 118.198 66.1929H119.202L118.31 67.082C118.294 67.0984 118.285 67.1204 118.285 67.1433C118.285 67.1662 118.294 67.1882 118.31 67.2046C118.327 67.2201 118.349 67.2288 118.372 67.2288C118.395 67.2288 118.417 67.2201 118.433 67.2046L119.324 66.3154V67.3151C119.324 67.338 119.333 67.3599 119.349 67.3761C119.365 67.3923 119.387 67.4014 119.41 67.4014C119.433 67.4014 119.455 67.3923 119.472 67.3761C119.488 67.3599 119.497 67.338 119.497 67.3151V66.3154L120.389 67.2046C120.406 67.2201 120.428 67.2288 120.45 67.2288C120.473 67.2288 120.495 67.2201 120.512 67.2046C120.528 67.1882 120.537 67.1662 120.537 67.1433C120.537 67.1204 120.528 67.0984 120.512 67.082L119.62 66.1929H120.623C120.646 66.1929 120.668 66.1838 120.684 66.1676C120.7 66.1514 120.709 66.1294 120.709 66.1065C120.708 66.0846 120.698 66.0639 120.682 66.0488C120.666 66.0337 120.645 66.0254 120.623 66.0254Z" fill="#EB5452"/>
<path d="M124.26 66.0254H123.257L124.15 65.138C124.166 65.1215 124.174 65.0996 124.174 65.0767C124.174 65.0538 124.166 65.0318 124.15 65.0154C124.142 65.0073 124.132 65.0009 124.121 64.9965C124.111 64.9921 124.1 64.9898 124.088 64.9898C124.077 64.9898 124.065 64.9921 124.055 64.9965C124.044 65.0009 124.035 65.0073 124.027 65.0154L123.135 65.9045V64.9032C123.135 64.8803 123.125 64.8583 123.109 64.8421C123.093 64.8259 123.071 64.8168 123.048 64.8168C123.025 64.8173 123.003 64.8265 122.987 64.8426C122.971 64.8587 122.962 64.8804 122.961 64.9032V65.9045L122.071 65.0102C122.063 65.0021 122.053 64.9957 122.043 64.9913C122.032 64.9869 122.021 64.9847 122.009 64.9847C121.998 64.9847 121.987 64.9869 121.976 64.9913C121.966 64.9957 121.956 65.0021 121.948 65.0102C121.932 65.0266 121.923 65.0486 121.923 65.0715C121.923 65.0944 121.932 65.1164 121.948 65.1328L122.84 66.0202H121.835C121.813 66.0207 121.791 66.0299 121.775 66.046C121.758 66.0621 121.749 66.0838 121.749 66.1065C121.749 66.1294 121.758 66.1514 121.774 66.1676C121.79 66.1838 121.812 66.1929 121.835 66.1929H122.84L121.948 67.082C121.932 67.0984 121.923 67.1204 121.923 67.1433C121.923 67.1662 121.932 67.1882 121.948 67.2046C121.965 67.2201 121.987 67.2288 122.009 67.2288C122.032 67.2288 122.054 67.2201 122.071 67.2046L122.961 66.3154V67.3151C122.961 67.338 122.97 67.3599 122.987 67.3761C123.003 67.3923 123.025 67.4014 123.048 67.4014C123.071 67.4014 123.093 67.3923 123.109 67.3761C123.125 67.3599 123.135 67.338 123.135 67.3151V66.3154L124.027 67.2046C124.043 67.2201 124.065 67.2288 124.088 67.2288C124.111 67.2288 124.133 67.2201 124.15 67.2046C124.166 67.1882 124.174 67.1662 124.174 67.1433C124.174 67.1204 124.166 67.0984 124.15 67.082L123.257 66.1929H124.26C124.283 66.1929 124.305 66.1838 124.322 66.1676C124.338 66.1514 124.347 66.1294 124.347 66.1065C124.346 66.0846 124.336 66.0639 124.32 66.0488C124.304 66.0337 124.283 66.0254 124.26 66.0254Z" fill="#EB5452"/>
<path d="M127.898 66.0254H126.895L127.787 65.138C127.803 65.1215 127.812 65.0996 127.812 65.0767C127.812 65.0538 127.803 65.0318 127.787 65.0154C127.779 65.0073 127.77 65.0009 127.759 64.9965C127.748 64.9921 127.737 64.9898 127.726 64.9898C127.714 64.9898 127.703 64.9921 127.692 64.9965C127.682 65.0009 127.672 65.0073 127.664 65.0154L126.772 65.9045V64.9032C126.772 64.8803 126.763 64.8583 126.747 64.8421C126.73 64.8259 126.708 64.8168 126.685 64.8168C126.663 64.8173 126.641 64.8265 126.625 64.8426C126.609 64.8587 126.599 64.8804 126.599 64.9032V65.9045L125.709 65.0102C125.7 65.0021 125.691 64.9957 125.68 64.9913C125.67 64.9869 125.658 64.9847 125.647 64.9847C125.636 64.9847 125.624 64.9869 125.614 64.9913C125.603 64.9957 125.594 65.0021 125.586 65.0102C125.57 65.0266 125.561 65.0486 125.561 65.0715C125.561 65.0944 125.57 65.1164 125.586 65.1328L126.478 66.0202H125.473C125.45 66.0207 125.428 66.0299 125.412 66.046C125.396 66.0621 125.387 66.0838 125.386 66.1065C125.386 66.1294 125.395 66.1514 125.412 66.1676C125.428 66.1838 125.45 66.1929 125.473 66.1929H126.478L125.586 67.082C125.57 67.0984 125.561 67.1204 125.561 67.1433C125.561 67.1662 125.57 67.1882 125.586 67.2046C125.602 67.2201 125.624 67.2288 125.647 67.2288C125.67 67.2288 125.692 67.2201 125.709 67.2046L126.599 66.3154V67.3151C126.599 67.338 126.608 67.3599 126.624 67.3761C126.64 67.3923 126.663 67.4014 126.685 67.4014C126.708 67.4014 126.73 67.3923 126.747 67.3761C126.763 67.3599 126.772 67.338 126.772 67.3151V66.3154L127.664 67.2046C127.681 67.2201 127.703 67.2288 127.726 67.2288C127.748 67.2288 127.77 67.2201 127.787 67.2046C127.803 67.1882 127.812 67.1662 127.812 67.1433C127.812 67.1204 127.803 67.0984 127.787 67.082L126.895 66.1929H127.898C127.921 66.1929 127.943 66.1838 127.959 66.1676C127.975 66.1514 127.985 66.1294 127.985 66.1065C127.983 66.0846 127.974 66.0639 127.957 66.0488C127.941 66.0337 127.92 66.0254 127.898 66.0254Z" fill="#EB5452"/>
<path d="M131.535 66.0254H130.533L131.425 65.138C131.441 65.1215 131.449 65.0996 131.449 65.0767C131.449 65.0538 131.441 65.0318 131.425 65.0154C131.417 65.0073 131.407 65.0009 131.396 64.9965C131.386 64.9921 131.375 64.9898 131.363 64.9898C131.352 64.9898 131.34 64.9921 131.33 64.9965C131.319 65.0009 131.31 65.0073 131.302 65.0154L130.41 65.9045V64.9032C130.41 64.8803 130.4 64.8583 130.384 64.8421C130.368 64.8259 130.346 64.8168 130.323 64.8168C130.3 64.8173 130.278 64.8265 130.262 64.8426C130.246 64.8587 130.237 64.8804 130.236 64.9032V65.9045L129.346 65.0102C129.338 65.0021 129.328 64.9957 129.318 64.9913C129.307 64.9869 129.296 64.9847 129.284 64.9847C129.273 64.9847 129.262 64.9869 129.251 64.9913C129.241 64.9957 129.231 65.0021 129.223 65.0102C129.207 65.0266 129.198 65.0486 129.198 65.0715C129.198 65.0944 129.207 65.1164 129.223 65.1328L130.115 66.0202H129.11C129.088 66.0207 129.066 66.0299 129.05 66.046C129.034 66.0621 129.024 66.0838 129.024 66.1065C129.024 66.1294 129.033 66.1514 129.049 66.1676C129.065 66.1838 129.087 66.1929 129.11 66.1929H130.115L129.223 67.082C129.207 67.0984 129.198 67.1204 129.198 67.1433C129.198 67.1662 129.207 67.1882 129.223 67.2046C129.24 67.2201 129.262 67.2288 129.284 67.2288C129.307 67.2288 129.329 67.2201 129.346 67.2046L130.236 66.3154V67.3151C130.236 67.338 130.245 67.3599 130.262 67.3761C130.278 67.3923 130.3 67.4014 130.323 67.4014C130.346 67.4014 130.368 67.3923 130.384 67.3761C130.4 67.3599 130.41 67.338 130.41 67.3151V66.3154L131.302 67.2046C131.318 67.2201 131.34 67.2288 131.363 67.2288C131.386 67.2288 131.408 67.2201 131.425 67.2046C131.441 67.1882 131.449 67.1662 131.449 67.1433C131.449 67.1204 131.441 67.0984 131.425 67.082L130.533 66.1929H131.535C131.558 66.1929 131.58 66.1838 131.597 66.1676C131.613 66.1514 131.622 66.1294 131.622 66.1065C131.621 66.0846 131.611 66.0639 131.595 66.0488C131.579 66.0337 131.558 66.0254 131.535 66.0254Z" fill="#EB5452"/>
<path d="M159.422 87.0284C159.417 86.8197 159.391 86.612 159.344 86.4086C159.188 85.825 158.836 85.1189 158.258 84.9428C157.66 84.7605 157.083 84.5175 156.536 84.2176C156.432 82.3668 156.858 80.4728 156.394 78.679C156.221 78.0229 155.935 77.3945 155.859 76.7228C155.763 75.8872 155.992 74.9963 155.658 74.2263C155.394 73.6186 154.816 73.1904 154.194 72.9659C153.572 72.7415 152.902 72.6811 152.242 72.6206C151.41 72.5533 148.719 72.2356 147.78 72.9763C147.715 73.0264 147.657 73.0844 147.607 73.149C147.586 73.1774 147.567 73.2074 147.551 73.2387L147.542 73.2525C147.524 73.2885 147.508 73.3261 147.496 73.3648C147.483 73.4071 147.473 73.4504 147.466 73.4943C147.466 73.5081 147.466 73.5219 147.466 73.5357C147.466 73.5495 147.466 73.5961 147.466 73.6272V73.6738C147.466 73.7049 147.466 73.736 147.466 73.7688C147.466 73.8016 147.466 73.7929 147.466 73.805C147.478 73.9604 147.501 74.1158 147.501 74.2695C147.503 74.346 147.496 74.4224 147.48 74.4974C147.422 74.701 147.325 74.8911 147.193 75.0568L147.161 75.1016C147.142 75.1293 147.123 75.1552 147.106 75.1828C147.089 75.2104 147.075 75.2311 147.061 75.2553C147.047 75.2795 147.033 75.295 147.021 75.3175C147.004 75.3459 146.989 75.3753 146.976 75.4055C146.976 75.4228 146.957 75.4383 146.95 75.4556C146.928 75.5023 146.911 75.5508 146.898 75.6006C146.857 75.7506 146.854 75.9082 146.888 76.0599C146.934 76.2535 147.015 76.4376 147.125 76.6037C147.168 76.6745 147.215 76.7436 147.264 76.8126L147.385 76.9766C147.362 77.1368 147.35 77.2983 147.348 77.4601C147.349 78.0007 147.472 78.5343 147.709 79.0206C147.946 79.5069 148.29 79.9332 148.717 80.2674C148.785 80.9965 148.778 81.7308 148.694 82.4583C148.679 82.6103 148.66 82.7639 148.639 82.9159C148.618 83.0678 148.603 83.1679 148.582 83.294C148.328 83.3301 148.07 83.3107 147.825 83.237C147.712 83.1867 147.596 83.1423 147.478 83.104C146.974 82.978 146.46 83.4787 145.961 83.3268C145.961 83.3509 145.947 83.3734 145.938 83.3958C145.834 83.3313 145.715 83.2961 145.592 83.294C145.296 83.2802 145.055 83.0661 144.84 82.8641L144.18 82.2442C144.137 82.2063 144.099 82.1634 144.066 82.1165C144.03 82.0493 144.004 81.978 143.986 81.9041C143.875 81.5467 143.607 81.2619 143.347 80.9908C143.298 80.929 143.233 80.8818 143.158 80.8544C143.13 80.8501 143.1 80.8501 143.072 80.8544C143.054 80.8303 143.035 80.8072 143.015 80.7853C142.97 80.734 142.922 80.6856 142.871 80.6403C142.556 80.3503 142.524 80.1016 142.251 79.777C142.012 79.4675 141.795 79.1415 141.603 78.8016C141.58 78.6203 141.549 78.4338 141.511 78.2456C141.424 77.8148 141.297 77.3929 141.132 76.9853L140.785 76.2204L140.745 76.2601C140.494 75.8872 140.226 75.6835 139.985 75.7318C139.581 75.8147 139.382 76.5951 139.446 77.6155L139.585 78.6514C139.585 78.6773 139.597 78.7032 139.604 78.7291C139.579 78.8518 139.566 78.9767 139.566 79.102C139.566 79.247 139.701 79.354 139.772 79.4835C139.886 79.6589 139.946 79.8635 139.945 80.0723C139.936 80.1465 139.914 80.2173 139.911 80.2898C139.92 80.452 139.977 80.608 140.073 80.7387L140.939 82.189L141.113 82.4929L141.123 82.5067C141.178 82.6127 141.257 82.7039 141.355 82.7726C141.389 83.1357 141.486 83.4903 141.641 83.8205C141.67 83.8862 141.703 83.9483 141.738 84.0105C141.971 84.392 142.245 84.7469 142.556 85.0688L142.968 85.5298C143.375 85.9821 143.782 86.4362 144.224 86.854C144.382 87.0217 144.573 87.1551 144.785 87.2459C144.889 87.2873 145.002 87.3007 145.112 87.2846C145.223 87.2686 145.328 87.2237 145.415 87.1544C145.415 87.3685 145.415 87.5826 145.415 87.7967C145.48 87.8007 145.542 87.8216 145.595 87.8575C145.649 87.8933 145.692 87.9428 145.719 88.0007C145.747 88.0585 145.759 88.1228 145.754 88.1868C145.749 88.2508 145.726 88.3122 145.689 88.3647C145.325 89.2953 144.958 90.2346 144.407 91.0685C144.796 91.2978 145.156 91.5719 145.481 91.8851C145.692 92.1178 145.879 92.3705 146.041 92.6396C146.056 92.7674 146.068 92.8934 146.075 93.0194C146.203 95.0774 145.405 97.1199 144.69 99.0812C144.483 99.6372 144.258 100.219 144.276 100.797C144.14 100.881 144.01 100.974 143.888 101.075C144.03 101.445 143.974 101.775 143.959 102.17C143.953 102.407 143.905 102.641 143.815 102.861C143.739 103.013 143.656 103.161 143.565 103.304C143.117 104.093 143.018 105.031 142.928 105.932C142.874 106.476 143.086 107.141 142.838 107.627C142.41 108.463 142.031 109.354 141.972 110.283C141.97 110.492 141.943 110.7 141.892 110.903C141.838 111.075 141.743 111.222 141.695 111.391C141.645 111.618 141.633 111.851 141.66 112.082C141.693 112.909 141.57 113.736 141.296 114.518C141.08 115.134 140.841 115.794 141.01 116.428C140.593 116.865 140.334 117.43 140.278 118.031C140.273 118.185 140.255 118.338 140.222 118.489C140.169 118.643 140.1 118.79 140.014 118.929C139.666 119.562 139.502 120.28 139.543 121.001C139.024 121.704 138.764 122.57 138.61 123.432C138.455 124.294 138.388 125.171 138.19 126.022C137.927 127.147 137.451 128.285 137.357 129.439C136.796 129.796 136.554 130.488 136.446 131.143C136.339 131.797 136.321 132.484 136.046 133.088C135.904 133.403 135.7 133.684 135.564 134.005C135.47 134.261 135.4 134.525 135.357 134.794C135.273 135.215 135.201 135.685 135.303 136.089C135.156 136.244 134.985 136.374 134.795 136.474C134.823 136.367 134.846 136.26 134.865 136.151C134.418 136.555 133.607 136.414 133.25 136.899C133.143 137.055 133.101 137.247 133.134 137.434C133.166 137.62 133.27 137.787 133.424 137.898C133.535 137.966 133.656 138.018 133.782 138.052C134.648 138.328 135.539 138.606 136.429 138.46C136.534 138.448 136.636 138.416 136.729 138.365C136.844 138.28 136.94 138.17 137.007 138.043C137.141 137.833 137.274 137.622 137.406 137.412C137.725 137.506 138.049 137.582 138.378 137.638C138.41 137.914 138.435 138.19 138.447 138.466C138.62 138.501 138.852 138.511 138.934 138.351C138.958 138.29 138.968 138.224 138.963 138.159C138.963 138.037 138.98 137.874 138.991 137.709H139.025C139.554 137.73 140.08 137.624 140.558 137.4C140.373 135.87 140.984 134.375 141.514 132.928C142.074 131.405 142.554 129.855 143.037 128.304C143.383 127.213 143.766 126.156 144.106 125.064C144.533 123.682 144.962 122.301 145.393 120.92C145.58 120.312 145.769 119.711 145.983 119.107C146.436 117.884 146.972 116.694 147.589 115.545C147.762 115.219 147.936 114.896 148.078 114.558C148.251 114.145 148.374 113.713 148.512 113.287C148.814 112.412 149.178 111.559 149.6 110.735C149.612 110.713 149.621 110.692 149.633 110.671C149.773 111.243 149.914 111.823 150.007 112.398C150.134 113.103 150.144 113.824 150.037 114.532C149.954 115.014 149.796 115.49 149.815 115.979C149.841 116.654 150.203 117.267 150.381 117.917C150.496 118.405 150.561 118.902 150.575 119.402C150.624 120.179 151.047 121.051 150.749 121.771C149.822 124.052 150.271 126.628 149.742 129.022C149.47 130.252 148.637 131.407 148.703 132.664C148.749 133.556 148.828 134.445 148.939 135.333C148.965 135.613 149.038 135.886 149.155 136.143C149.224 136.277 149.304 136.407 149.392 136.529C149.316 136.559 149.252 136.636 149.197 136.8C149.055 137.232 149.197 137.767 149.581 138.009C149.738 138.092 149.907 138.151 150.082 138.182C150.317 138.248 150.561 138.282 150.806 138.282C150.882 138.278 150.958 138.268 151.033 138.254C151.3 138.366 151.574 138.464 151.852 138.548C151.852 138.618 151.866 138.689 151.875 138.76C151.875 138.797 151.883 138.833 151.899 138.867C151.914 138.901 151.937 138.931 151.965 138.955C152.008 138.975 152.056 138.984 152.103 138.979H153.044C153.044 138.902 153.044 138.822 153.044 138.744C153.151 138.756 153.26 138.744 153.363 138.711C153.466 138.678 153.561 138.623 153.641 138.551C153.725 138.445 153.784 138.323 153.815 138.192C154.071 137.325 154.326 136.458 154.578 135.59C154.882 134.631 155.008 133.625 154.951 132.62C154.617 129.439 155.351 126.246 155.112 123.056C154.968 121.138 155.067 119.21 155.406 117.317C155.484 116.889 155.58 116.453 155.614 116.027C155.691 115.222 155.597 114.409 155.654 113.61C155.673 113.33 155.711 113.052 155.746 112.774C155.983 111.049 156.108 109.31 156.118 107.569C156.113 106.992 156.077 106.415 156.011 105.842C156.192 105.796 156.355 105.701 156.484 105.566C156.638 105.366 156.598 105.084 156.596 104.829C156.596 104.218 156.855 103.641 157.062 103.064C157.329 102.269 157.548 101.458 157.717 100.637C157.896 99.9748 157.994 99.2936 158.008 98.6081C158.008 98.5391 158.005 98.47 157.998 98.401C158.063 98.3559 158.117 98.2969 158.157 98.2283C158.202 98.1272 158.23 98.0192 158.24 97.9089C158.303 97.4686 158.367 97.0267 158.429 96.5847C158.475 96.2681 158.521 95.9522 158.566 95.6368L159.117 91.8057C159.164 91.4725 159.212 91.141 159.259 90.8095L159.403 89.8185C159.418 89.7011 159.435 89.5837 159.448 89.4732C159.87 88.7687 159.467 87.8295 159.422 87.0284ZM154.826 101.372C154.622 100.889 154.431 100.393 154.48 99.872H154.461C154.506 99.7115 154.498 99.5407 154.438 99.3851C154.384 99.259 154.291 99.152 154.234 99.026C154.172 98.8721 154.141 98.7081 154.14 98.5425C154.097 97.4925 154.18 96.441 154.388 95.4106C154.41 95.2898 154.435 95.1672 154.457 95.0463C154.53 95.0045 154.596 94.9528 154.655 94.8927C154.746 94.7892 154.821 94.6728 154.878 94.5474C155.074 94.1555 155.252 93.7566 155.417 93.3509C155.471 93.2197 155.548 93.0678 155.682 93.035C155.654 94.045 155.758 95.0757 155.346 95.9873C155.267 96.1343 155.209 96.2911 155.173 96.4535C155.134 96.7107 155.242 96.9714 155.204 97.2269C155.185 97.3599 155.128 97.4825 155.105 97.6137C155.088 97.6781 155.088 97.7459 155.106 97.8102C155.124 97.8744 155.158 97.9329 155.206 97.9797C155.228 97.9957 155.254 98.0085 155.28 98.0177C155.27 98.0867 155.261 98.1575 155.254 98.2249C155.24 98.3664 155.233 98.4994 155.225 98.5823C155.185 99.0046 155.169 99.4289 155.178 99.853C155.178 100.31 155.195 100.768 155.188 101.234C155.195 101.368 155.172 101.502 155.122 101.626C155.088 101.69 155.044 101.749 154.991 101.799C154.94 101.643 154.885 101.507 154.826 101.372Z" fill="url(#paint0_linear)"/>
<path d="M141.153 81.3395C141.681 81.2316 141.861 79.9347 141.555 78.4429C141.248 76.9512 140.571 75.8293 140.042 75.9373C139.514 76.0452 139.334 77.3421 139.641 78.8339C139.947 80.3257 140.624 81.4475 141.153 81.3395Z" fill="#FBBEBE"/>
<path d="M149.224 136.833C149.082 137.261 149.224 137.797 149.609 138.03C149.765 138.112 149.932 138.171 150.106 138.202C150.341 138.268 150.584 138.302 150.828 138.301C151.128 138.287 151.416 138.17 151.715 138.128C151.75 138.119 151.786 138.124 151.817 138.142C151.832 138.158 151.844 138.177 151.85 138.198C151.857 138.219 151.859 138.241 151.856 138.263C151.859 138.433 151.871 138.602 151.894 138.77C151.894 138.807 151.902 138.844 151.918 138.878C151.933 138.911 151.956 138.941 151.984 138.965C152.027 138.986 152.075 138.994 152.122 138.99H153.061C153.082 138.168 152.992 137.346 152.793 136.548C152.78 136.487 152.756 136.429 152.723 136.376C152.644 136.289 152.539 136.228 152.424 136.203C152.194 136.108 151.946 136.065 151.698 136.077C151.395 136.117 151.142 136.312 150.884 136.474C150.626 136.636 150.274 136.78 149.961 136.697C149.647 136.614 149.385 136.353 149.224 136.833Z" fill="#3F3D56"/>
<path d="M135.44 136.075C135.176 136.357 134.852 136.576 134.492 136.718L134.333 136.794C134.311 136.802 134.292 136.817 134.279 136.837C134.276 136.85 134.276 136.864 134.279 136.877C134.282 136.891 134.288 136.903 134.297 136.914C134.429 137.119 134.625 137.274 134.855 137.358C135.084 137.441 135.335 137.447 135.568 137.375C135.671 137.35 135.767 137.3 135.847 137.23C135.979 137.074 136.055 136.878 136.062 136.674C136.114 136.464 136.105 136.243 136.036 136.037C135.795 135.497 135.707 135.742 135.44 136.075Z" fill="#FBBEBE"/>
<path d="M139.039 138.202C139.045 138.268 139.034 138.333 139.01 138.394C138.928 138.553 138.701 138.544 138.525 138.51C138.498 137.924 138.427 137.341 138.312 136.766C137.976 136.75 137.733 137.068 137.553 137.353L137.089 138.087C137.022 138.213 136.927 138.323 136.812 138.408C136.719 138.458 136.617 138.491 136.512 138.503C135.625 138.649 134.73 138.372 133.874 138.095C133.748 138.062 133.627 138.01 133.515 137.943C133.363 137.832 133.259 137.665 133.227 137.479C133.195 137.293 133.236 137.102 133.342 136.945C133.701 136.462 134.506 136.6 134.953 136.2C134.906 136.481 134.83 136.757 134.724 137.023C135.322 136.933 135.724 136.388 136.205 136.023C136.326 135.921 136.472 135.852 136.628 135.823C136.745 135.813 136.862 135.826 136.975 135.859C137.53 135.999 138.049 136.254 138.499 136.607C138.681 136.75 138.965 136.952 139.044 137.173C139.129 137.437 139.039 137.921 139.039 138.202Z" fill="#3F3D56"/>
<path d="M150.955 81.2377C152.931 81.2377 154.533 79.6407 154.533 77.6707C154.533 75.7008 152.931 74.1038 150.955 74.1038C148.978 74.1038 147.376 75.7008 147.376 77.6707C147.376 79.6407 148.978 81.2377 150.955 81.2377Z" fill="#FBBEBE"/>
<path d="M158.005 98.7308C157.99 99.4127 157.893 100.09 157.715 100.749C157.546 101.567 157.327 102.374 157.061 103.166C156.855 103.741 156.596 104.318 156.598 104.927C156.598 105.181 156.64 105.462 156.484 105.663C156.345 105.803 156.17 105.903 155.978 105.951C155.882 105.976 155.794 106.024 155.72 106.089C155.646 106.155 155.588 106.237 155.552 106.329C155.389 106.087 155.268 105.82 155.192 105.538C154.881 104.59 154.592 103.636 154.326 102.678C154.301 102.622 154.291 102.562 154.295 102.502C154.299 102.442 154.318 102.384 154.35 102.332C154.394 102.294 154.445 102.265 154.501 102.248C154.678 102.176 154.841 102.071 154.98 101.94C155.046 101.882 155.1 101.813 155.14 101.735C155.19 101.611 155.213 101.478 155.207 101.345C155.207 100.887 155.207 100.431 155.195 99.9739C155.188 99.5514 155.204 99.129 155.244 98.7083C155.244 98.6255 155.259 98.4925 155.273 98.3509C155.299 98.0799 155.351 97.7656 155.498 97.6603C155.718 97.5136 156.376 97.7104 156.626 97.7449C157.055 97.8036 157.492 97.8727 157.911 97.9538C157.972 98.2084 158.003 98.4691 158.005 98.7308Z" fill="#3F3D56"/>
<path d="M143.555 81.6642C143.416 81.9404 143.084 82.0733 142.827 82.2477L141.949 82.8485C141.891 82.9012 141.822 82.9416 141.747 82.9671C141.672 82.9926 141.593 83.0028 141.514 82.997C141.443 82.9707 141.378 82.9304 141.322 82.8786C141.266 82.8267 141.222 82.7642 141.191 82.6949C141.191 82.6903 141.191 82.6857 141.191 82.6811L141.009 82.3772L140.143 80.9304C140.046 80.8008 139.99 80.646 139.982 80.485C139.982 80.4107 140.007 80.3417 140.014 80.2674C140.017 80.0589 139.956 79.8545 139.841 79.6804C139.772 79.5509 139.633 79.4439 139.637 79.2988C139.63 79.1083 139.663 78.9184 139.734 78.7412C139.825 78.5772 139.955 78.4384 140.113 78.3372C140.195 78.2785 140.278 78.2232 140.364 78.1645C140.41 78.1332 140.461 78.1099 140.515 78.0955C140.659 78.0661 140.801 78.1852 140.946 78.1904C141.572 78.6082 141.812 79.399 142.304 79.9687C142.581 80.2933 142.609 80.5419 142.923 80.832C142.973 80.8769 143.021 80.9252 143.068 80.9753C143.13 81.0427 143.183 81.1182 143.224 81.1997C143.281 81.3482 143.626 81.5226 143.555 81.6642Z" fill="#3F3D56"/>
<path d="M149.697 81.2394C149.955 81.7833 150.156 82.3807 150.082 82.978C150.067 83.1399 150.015 83.2962 149.931 83.4356C149.682 83.8171 149.159 83.8862 148.703 83.9086C148.607 83.9006 148.51 83.9117 148.419 83.9414C148.327 83.971 148.242 84.0186 148.169 84.0813C148.109 84.1695 148.079 84.2753 148.085 84.3821C148.091 84.489 148.132 84.5908 148.202 84.6717C148.349 84.8275 148.531 84.9459 148.732 85.0171C149.453 85.333 150.231 85.5937 151.014 85.5212C151.377 85.4867 151.731 85.3813 152.093 85.3278C152.487 85.2852 152.884 85.2633 153.281 85.2622C153.752 85.2449 154.222 85.1983 154.691 85.1517L155.935 85.0291C156.003 85.0301 156.069 85.0061 156.12 84.9618C156.212 84.8548 156.094 84.6976 155.98 84.6165C155.32 84.1296 154.48 83.7947 154.104 83.0626C153.931 82.7173 153.877 82.3064 153.749 81.9335C153.621 81.5606 153.416 81.2239 153.337 80.8441C153.294 80.5109 153.275 80.1751 153.279 79.8392C153.284 79.5006 153.16 79.1727 152.933 78.9207C152.685 78.6911 152.327 78.6324 151.991 78.6186C151.163 78.5823 150.281 78.7792 149.694 79.361C149.536 79.5181 149.401 79.7063 149.238 79.8479C149.075 79.9895 148.854 80.0309 148.961 80.2174C149.068 80.4038 149.28 80.5195 149.394 80.6835C149.51 80.8605 149.611 81.0464 149.697 81.2394Z" fill="#FBBEBE"/>
<path d="M156.752 86.2619C156.534 87.5913 156.179 88.8948 155.692 90.1517C155.448 90.7193 155.24 91.3017 155.069 91.8955C154.935 92.4307 154.961 93.0039 154.838 93.5408C154.686 94.209 154.534 94.8789 154.411 95.5522C154.204 96.5804 154.122 97.6295 154.165 98.6772C154.165 98.8422 154.197 99.0057 154.258 99.1589C154.315 99.2832 154.407 99.3903 154.461 99.518C154.501 99.6302 154.517 99.7495 154.509 99.8684C154.501 99.9872 154.468 100.103 154.412 100.209C154.323 100.406 154.203 100.588 154.055 100.747C152.441 101.227 150.714 101.07 149.032 101.172C147.482 101.265 145.914 101.583 144.386 101.319C144.213 100.628 144.503 99.9048 144.75 99.2314C145.469 97.2753 146.264 95.238 146.136 93.1886C146.123 92.9496 146.095 92.7115 146.055 92.4756C145.803 91.0236 146.077 89.5198 146.515 88.1127C146.787 87.2356 146.775 86.3016 146.713 85.3882C146.682 85.0917 146.678 84.7929 146.701 84.4956C146.726 84.1921 146.839 83.9023 147.026 83.6617C147.026 83.6497 147.042 83.6376 147.051 83.6255C147.059 83.6134 147.127 83.6151 147.18 83.6255C147.194 83.6313 147.209 83.6343 147.224 83.6343C147.239 83.6343 147.253 83.6313 147.267 83.6255L147.286 83.6134C147.293 83.6082 147.302 83.6054 147.311 83.6054C147.32 83.6054 147.329 83.6082 147.336 83.6134C147.376 83.6376 147.399 83.7204 147.485 83.736C147.613 83.7553 147.742 83.7674 147.872 83.7722C148.027 83.7768 148.182 83.7988 148.332 83.8378H148.353C148.578 83.8757 148.81 83.8561 149.025 83.7809C149.169 83.7451 149.307 83.6918 149.437 83.622C149.476 83.5806 149.715 83.5426 149.763 83.5132C149.921 83.4183 149.886 82.9728 149.919 82.7898C149.937 82.6063 149.981 82.4262 150.049 82.2546C150.128 82.128 150.237 82.0226 150.366 81.9477C150.495 81.8727 150.641 81.8305 150.79 81.8247C151.089 81.8176 151.387 81.8443 151.679 81.9041C152.325 81.9956 152.987 81.9801 153.621 82.1286C153.939 82.2028 154.288 82.3151 154.58 82.17C154.66 82.189 154.672 82.2581 154.672 82.3427C154.665 82.423 154.648 82.5024 154.624 82.5792C154.513 83.0557 154.889 83.4943 155.235 83.8396C155.381 84.0023 155.554 84.1395 155.746 84.2453C155.919 84.3247 156.092 84.3575 156.266 84.4438C156.406 84.5185 156.525 84.6271 156.612 84.7598C156.712 84.9119 156.779 85.083 156.81 85.2622C156.847 85.5963 156.827 85.9342 156.752 86.2619Z" fill="#3F3D56"/>
<path opacity="0.1" d="M156.752 86.2618C156.534 87.5913 156.179 88.8948 155.692 90.1517C155.448 90.7193 155.239 91.3017 155.069 91.8955C154.935 92.4307 154.961 93.0039 154.838 93.5408C154.686 94.209 154.533 94.8789 154.41 95.5522C154.374 95.573 154.336 95.5919 154.298 95.6092C154.082 95.7118 153.854 95.785 153.619 95.8267C153.197 95.8777 152.769 95.8637 152.351 95.7853L149.879 95.4556C148.892 95.3226 147.84 95.162 147.108 94.4956C146.701 94.1296 146.434 93.6462 146.141 93.18C146.128 92.941 146.1 92.7029 146.06 92.467C145.809 91.015 146.082 89.5112 146.52 88.104C146.792 87.227 146.78 86.2929 146.718 85.3796C146.687 85.083 146.683 84.7843 146.706 84.487C146.731 84.1834 146.844 83.8937 147.031 83.6531C147.082 83.6383 147.134 83.6268 147.186 83.6186C147.22 83.6115 147.256 83.6069 147.291 83.6047H147.341C147.4 83.6049 147.458 83.6119 147.515 83.6255C147.633 83.6629 147.748 83.7073 147.861 83.7584H147.882C148.03 83.8072 148.186 83.8294 148.343 83.824C148.571 83.824 148.807 83.7877 149.036 83.7722C149.318 83.7282 149.607 83.7799 149.857 83.919C150.018 84.048 150.17 84.1869 150.314 84.335C150.487 84.4707 150.682 84.5764 150.891 84.6475C152.382 85.2148 154.036 85.1801 155.502 84.5509C155.643 84.4711 155.802 84.4305 155.964 84.4335C156.084 84.4568 156.197 84.505 156.297 84.575C156.401 84.6355 156.503 84.6942 156.609 84.7477C156.708 84.8998 156.776 85.0709 156.806 85.2501C156.846 85.5879 156.828 85.9301 156.752 86.2618Z" fill="black"/>
<path d="M158.261 85.1189C157.571 84.9089 156.909 84.6192 156.286 84.2557C156.187 84.1862 156.073 84.138 155.954 84.1141C155.791 84.1122 155.631 84.1526 155.49 84.2315C154.024 84.8607 152.371 84.8954 150.88 84.3282C150.672 84.2563 150.477 84.1507 150.304 84.0157C150.16 83.868 150.007 83.7291 149.846 83.5996C149.276 83.2318 148.488 83.6635 147.851 83.4269C147.738 83.3766 147.622 83.3322 147.504 83.294C147 83.168 146.488 83.6687 145.992 83.5167C145.808 84.0161 145.672 84.5317 145.585 85.0568C145.515 85.6597 145.477 86.266 145.472 86.8731C145.472 87.2374 145.455 87.6017 145.472 87.9659C145.534 87.9759 145.592 87.9984 145.644 88.032C145.696 88.0656 145.74 88.1095 145.774 88.161C145.797 88.2212 145.806 88.2856 145.801 88.3497C145.796 88.4138 145.778 88.4761 145.746 88.5322C145.384 89.4594 145.017 90.3969 144.468 91.2273C144.855 91.4572 145.214 91.7306 145.538 92.0422C146.145 92.6811 146.443 93.5771 147.097 94.1676C147.835 94.8323 148.887 94.9946 149.869 95.1258L152.341 95.4556C152.759 95.5337 153.187 95.5482 153.61 95.4987C153.845 95.4561 154.073 95.3823 154.287 95.2795C154.428 95.2209 154.556 95.1366 154.665 95.0308C154.756 94.9275 154.832 94.8111 154.889 94.6855C155.084 94.2953 155.263 93.8965 155.427 93.4925C155.484 93.3492 155.571 93.1817 155.727 93.1697C156.645 92.3444 157.511 91.4984 158.429 90.6731C158.798 90.3684 159.129 90.0206 159.415 89.6372C159.87 88.9656 159.456 88.0143 159.415 87.2028C159.41 86.9953 159.384 86.7888 159.337 86.5865C159.188 85.9977 158.838 85.2933 158.261 85.1189Z" fill="#EB5452"/>
<path opacity="0.1" d="M143.555 81.6642C143.416 81.9404 143.084 82.0733 142.827 82.2477L141.949 82.8485C141.891 82.9012 141.822 82.9416 141.747 82.9671C141.672 82.9926 141.593 83.0028 141.514 82.997C141.443 82.9707 141.378 82.9304 141.322 82.8785C141.266 82.8267 141.222 82.7642 141.191 82.6949C141.191 82.6552 141.191 82.612 141.191 82.5706C141.184 82.4308 141.203 82.291 141.246 82.1579C141.332 81.9627 141.465 81.7918 141.634 81.6607C141.96 81.3529 142.348 81.1175 142.772 80.9701C142.838 80.9445 142.91 80.9373 142.98 80.9494C143.007 80.9564 143.033 80.9674 143.056 80.9822C143.118 81.0496 143.171 81.1251 143.212 81.2066C143.281 81.3482 143.626 81.5226 143.555 81.6642Z" fill="black"/>
<path d="M145.623 83.4839C145.329 83.4701 145.088 83.2577 144.873 83.0557L144.217 82.448C144.173 82.4109 144.134 82.3679 144.102 82.3202C144.067 82.2531 144.04 82.1817 144.023 82.1078C143.883 81.7591 143.665 81.4471 143.385 81.1962C143.336 81.1344 143.271 81.0877 143.196 81.0616C143.126 81.0486 143.053 81.0558 142.987 81.0823C142.563 81.2295 142.175 81.4649 141.849 81.7729C141.68 81.9041 141.547 82.075 141.461 82.2701C141.417 82.4032 141.398 82.543 141.405 82.6828C141.409 83.1389 141.512 83.5889 141.707 84.0018C141.736 84.0657 141.769 84.1296 141.804 84.1917C142.035 84.5725 142.308 84.9263 142.618 85.2466L143.03 85.7059C143.435 86.1582 143.841 86.6106 144.281 87.0267C144.438 87.1943 144.63 87.3273 144.842 87.4169C144.949 87.4602 145.065 87.4735 145.179 87.4552C145.292 87.437 145.399 87.3878 145.486 87.3133C145.569 87.2175 145.632 87.1059 145.67 86.9852C145.937 86.2946 146.19 85.5764 146.205 84.8323C146.209 84.5343 146.196 84.2363 146.167 83.9397C146.141 83.6254 145.918 83.5029 145.623 83.4839Z" fill="#EB5452"/>
<path d="M156.12 107.655C156.11 109.392 155.986 111.126 155.749 112.847C155.715 113.125 155.677 113.403 155.658 113.681C155.601 114.487 155.694 115.297 155.618 116.098C155.578 116.531 155.488 116.961 155.412 117.384C155.073 119.272 154.974 121.195 155.117 123.107C155.356 126.289 154.624 129.473 154.956 132.646C154.996 133.263 154.962 133.883 154.854 134.492C154.792 134.87 154.702 135.243 154.585 135.607C154.333 136.472 154.079 137.335 153.823 138.197C153.793 138.328 153.734 138.451 153.65 138.556C153.562 138.632 153.458 138.689 153.346 138.722C153.234 138.755 153.116 138.764 153.001 138.748C152.001 138.717 151.061 138.287 150.153 137.867C150.048 137.826 149.952 137.768 149.867 137.695C149.678 137.5 149.694 137.192 149.611 136.935C149.528 136.678 149.302 136.436 149.174 136.172C149.069 135.922 149.005 135.657 148.985 135.386C148.87 134.502 148.791 133.615 148.75 132.724C148.684 131.471 149.515 130.317 149.789 129.098C150.309 126.702 149.869 124.133 150.792 121.859C151.083 121.141 150.66 120.271 150.619 119.497C150.604 118.998 150.539 118.502 150.425 118.016C150.252 117.367 149.886 116.756 149.86 116.082C149.841 115.595 149.999 115.121 150.08 114.641C150.188 113.934 150.178 113.215 150.051 112.512C149.959 111.932 149.819 111.352 149.678 110.785L149.647 110.849C149.225 111.671 148.862 112.522 148.561 113.396C148.422 113.819 148.301 114.25 148.128 114.661C147.986 115.007 147.811 115.323 147.639 115.647C147.024 116.792 146.489 117.977 146.037 119.195C145.822 119.792 145.634 120.404 145.447 121.003L144.163 125.146C143.817 126.236 143.437 127.289 143.098 128.377C142.618 129.931 142.138 131.471 141.58 132.99C141.061 134.432 140.442 135.925 140.628 137.448C140.15 137.672 139.625 137.778 139.098 137.757C138.205 137.678 137.33 137.466 136.5 137.128C136.169 137.006 135.826 136.868 135.603 136.597C135.218 136.129 135.313 135.443 135.429 134.848C135.473 134.579 135.543 134.316 135.637 134.06C135.769 133.743 135.984 133.461 136.119 133.147C136.391 132.545 136.408 131.863 136.516 131.208C136.623 130.554 136.862 129.863 137.423 129.508C137.518 128.358 137.993 127.223 138.255 126.099C138.452 125.248 138.518 124.373 138.674 123.51C138.83 122.646 139.081 121.783 139.604 121.084C139.563 120.363 139.726 119.645 140.075 119.012C140.159 118.873 140.229 118.726 140.281 118.572C140.314 118.422 140.332 118.269 140.337 118.116C140.394 117.516 140.651 116.953 141.068 116.516C140.894 115.885 141.135 115.228 141.352 114.616C141.624 113.836 141.748 113.012 141.715 112.187C141.689 111.957 141.7 111.723 141.748 111.497C141.797 111.324 141.892 111.177 141.948 111.011C141.997 110.808 142.023 110.6 142.026 110.392C142.093 109.458 142.472 108.577 142.892 107.743C143.141 107.256 142.93 106.595 142.982 106.053C143.072 105.152 143.17 104.219 143.619 103.434C143.702 103.285 143.792 103.144 143.867 102.99C143.957 102.771 144.006 102.537 144.011 102.299C144.026 101.904 144.082 101.576 143.94 101.208C144.866 100.44 146.131 100.224 147.336 100.172C148.542 100.121 149.761 100.229 150.941 99.9738C151.287 99.8961 151.634 99.7891 151.999 99.7373C152.829 99.6164 153.671 99.8046 154.49 99.9911C154.433 100.509 154.624 101.006 154.837 101.488C155.668 103.439 156.105 105.535 156.12 107.655Z" fill="#33313F"/>
<path opacity="0.1" d="M152.041 108.05L150.051 112.512C149.959 111.932 149.819 111.352 149.678 110.785L149.647 110.849V110.756L150.731 108.379L152.041 108.05Z" fill="black"/>
<path opacity="0.1" d="M158.005 98.7308C157.89 98.8164 157.753 98.8673 157.61 98.8775C157.39 98.8853 157.171 98.8555 156.962 98.7895L155.403 98.401C155.354 98.389 155.307 98.3722 155.261 98.3509C155.287 98.0799 155.339 97.7656 155.486 97.6603C155.706 97.5136 156.364 97.7104 156.614 97.7449C157.043 97.8036 157.48 97.8727 157.899 97.9538C157.964 98.2079 158 98.4686 158.005 98.7308Z" fill="black"/>
<path d="M159.323 88.458C159.356 88.6013 159.403 88.7429 159.43 88.8879C159.477 89.2437 159.465 89.6048 159.394 89.9566L159.252 90.9442L159.11 91.937L158.561 95.7577L158.426 96.7039L158.235 98.0247C158.226 98.1346 158.198 98.2421 158.152 98.3423C158.095 98.4362 158.016 98.5145 157.921 98.5702C157.827 98.626 157.72 98.6574 157.61 98.6617C157.39 98.6687 157.171 98.6389 156.962 98.5737L155.403 98.1835C155.335 98.1714 155.27 98.1449 155.212 98.1058C155.165 98.0594 155.13 98.0012 155.113 97.9372C155.095 97.8732 155.095 97.8057 155.112 97.7415C155.134 97.6103 155.192 97.4877 155.211 97.3565C155.249 97.101 155.141 96.8385 155.18 96.5847C155.217 96.4231 155.275 96.267 155.353 96.1203C155.872 94.9756 155.571 93.6393 155.748 92.3962C155.907 91.4179 156.321 90.4985 156.95 89.7305C157.338 89.2457 157.783 88.8097 158.277 88.4321C158.471 88.2819 158.779 87.9729 159.023 87.9142C159.337 87.8486 159.271 88.2405 159.323 88.458Z" fill="#EB5452"/>
<path d="M147.525 73.5858C147.411 73.9484 147.589 74.3472 147.508 74.7167C147.419 75.1241 147.035 75.4073 146.926 75.8164C146.753 76.4397 147.283 77.0077 147.671 77.5257C149.108 79.449 148.919 82.1113 148.428 84.4577C148.032 86.3401 147.484 88.1877 146.791 89.9825C146.574 90.5402 146.335 91.1065 145.909 91.5243C146.706 91.2964 147.553 91.0668 148.351 91.2878C149.363 91.5675 150.236 92.5464 151.261 92.3237C151.878 92.1873 152.311 91.6417 152.865 91.3396C153.905 90.7819 155.157 91.1324 156.316 91.3119C156.566 91.3707 156.827 91.3575 157.069 91.274C157.255 91.1746 157.412 91.0303 157.527 90.8544C158.044 90.1931 158.354 89.3943 158.417 88.5582C158.444 88.1418 158.383 87.7244 158.236 87.3336C158.089 86.9428 157.861 86.5875 157.566 86.2912C157.321 86.0599 157.026 85.8734 156.837 85.6006C156.654 85.282 156.555 84.9218 156.551 84.5544C156.415 82.6552 156.879 80.7163 156.401 78.8793C156.228 78.2249 155.945 77.5982 155.869 76.9283C155.774 76.0944 156.001 75.2018 155.668 74.4387C155.406 73.8327 154.83 73.4028 154.208 73.1818C153.586 72.9608 152.921 72.8986 152.261 72.8365C151.312 72.7571 147.922 72.3513 147.525 73.5858Z" fill="#33313F"/>
<g opacity="0.1">
<path opacity="0.1" d="M148.428 84.4577C148.034 86.3324 147.489 88.1724 146.799 89.9601C146.919 89.7235 147.019 89.4749 147.115 89.228C147.809 87.4335 148.356 85.5859 148.751 83.7032C149.245 81.3551 149.434 78.6963 147.996 76.7712C147.65 76.312 147.205 75.8147 147.22 75.2761C147.092 75.439 146.993 75.6223 146.926 75.8182C146.753 76.4415 147.283 77.0095 147.671 77.5274C149.108 79.4491 148.919 82.1113 148.428 84.4577Z" fill="black"/>
<path opacity="0.1" d="M147.529 74.5423C147.668 74.3702 147.771 74.1725 147.833 73.9605C147.86 73.704 147.853 73.4451 147.813 73.1904C147.679 73.2905 147.579 73.4283 147.525 73.5858C147.423 73.8914 147.541 74.2229 147.529 74.5423Z" fill="black"/>
<path opacity="0.1" d="M157.852 90.0947C157.738 90.2701 157.58 90.4139 157.395 90.5125C157.153 90.5978 156.891 90.611 156.641 90.5505C155.483 90.3779 154.216 90.0222 153.191 90.5799C152.635 90.8803 152.204 91.4259 151.585 91.564C150.562 91.7919 149.689 90.8129 148.677 90.5281C147.96 90.3295 147.205 90.4935 146.482 90.7007C146.339 91.0058 146.145 91.2848 145.909 91.526C146.706 91.2981 147.553 91.0685 148.351 91.2895C149.363 91.5692 150.236 92.5481 151.261 92.3254C151.878 92.189 152.311 91.6434 152.865 91.3413C153.905 90.7836 155.157 91.1341 156.316 91.3136C156.566 91.3723 156.827 91.3592 157.069 91.2757C157.255 91.1763 157.412 91.032 157.527 90.8561C157.841 90.4434 158.083 89.9812 158.244 89.4887C158.128 89.6998 157.997 89.9023 157.852 90.0947Z" fill="black"/>
</g>
</g>
<defs>
<linearGradient id="paint0_linear" x1="133.134" y1="105.735" x2="159.636" y2="105.735" gradientUnits="userSpaceOnUse">
<stop stop-color="#808080" stop-opacity="0.25"/>
<stop offset="0.54" stop-color="#808080" stop-opacity="0.12"/>
<stop offset="1" stop-color="#808080" stop-opacity="0.1"/>
</linearGradient>
<clipPath id="clip0">
<rect width="202" height="139" fill="white"/>
</clipPath>
</defs>
</svg>
