<svg width="198" height="147" viewBox="0 0 198 147" fill="none" xmlns="http://www.w3.org/2000/svg">
<g opacity="0.7" clip-path="url(#clip0)">
<g opacity="0.1">
<path opacity="0.1" d="M158.541 104.146C158.541 104.146 144.406 102.305 154.947 125.258C154.947 125.258 164.554 121.128 164.937 111.811C165.015 109.998 164.427 108.22 163.285 106.812C162.143 105.405 160.526 104.467 158.741 104.175L158.541 104.146Z" fill="#EB5452"/>
<path opacity="0.1" d="M158.748 104.112C158.748 104.112 161.948 116.911 154.958 125.26" stroke="#535461" stroke-miterlimit="10"/>
<path opacity="0.1" d="M154.767 126.442C154.767 126.442 159.856 113.858 169.36 109.189C173.362 107.257 176.631 104.073 178.675 100.117C179.63 98.2332 180.411 96.2651 181.008 94.2379" stroke="#535461" stroke-width="2" stroke-miterlimit="10"/>
<path opacity="0.1" d="M186.98 91.2627C185.989 92.5122 180.862 94.3411 180.862 94.3411C180.862 94.3411 181.479 88.9088 182.47 87.6684C182.696 87.3446 182.986 87.0706 183.321 86.8634C183.657 86.6561 184.031 86.5199 184.421 86.4632C184.811 86.4064 185.208 86.4304 185.588 86.5335C185.969 86.6366 186.324 86.8167 186.633 87.0627C186.941 87.3088 187.196 87.6155 187.382 87.9641C187.567 88.3127 187.68 88.6958 187.713 89.0897C187.746 89.4837 187.698 89.8801 187.572 90.2548C187.446 90.6294 187.245 90.9743 186.982 91.2682L186.98 91.2627Z" fill="#EB5452"/>
<path opacity="0.1" d="M185.22 101.159C183.712 101.667 178.42 100.402 178.42 100.402C178.42 100.402 181.876 96.1862 183.385 95.6774C183.751 95.5271 184.143 95.4537 184.538 95.4616C184.933 95.4695 185.322 95.5586 185.681 95.7234C186.04 95.8882 186.362 96.1251 186.626 96.4196C186.89 96.7141 187.092 97.0599 187.217 97.4355C187.343 97.8112 187.391 98.2087 187.357 98.6036C187.324 98.9984 187.21 99.3822 187.023 99.7312C186.836 100.08 186.579 100.387 186.269 100.632C185.959 100.878 185.602 101.057 185.22 101.159Z" fill="#EB5452"/>
<path opacity="0.1" d="M175.681 112.858C174.123 112.534 170.19 108.76 170.19 108.76C170.19 108.76 175.294 106.872 176.854 107.196C177.559 107.393 178.164 107.852 178.545 108.48C178.926 109.107 179.055 109.857 178.906 110.576C178.756 111.296 178.34 111.932 177.742 112.355C177.143 112.778 176.406 112.957 175.681 112.856V112.858Z" fill="#EB5452"/>
<path opacity="0.1" d="M166.476 120.079C164.886 120.023 160.374 116.972 160.374 116.972C160.374 116.972 165.088 114.241 166.678 114.299C167.407 114.374 168.081 114.723 168.562 115.278C169.044 115.832 169.298 116.549 169.272 117.283C169.246 118.018 168.943 118.715 168.424 119.234C167.905 119.753 167.209 120.055 166.476 120.078V120.079Z" fill="#EB5452"/>
<path opacity="0.1" d="M173.493 96.858C173.697 98.4424 177.142 102.665 177.142 102.665C177.142 102.665 179.411 97.7036 179.209 96.1192C179.184 95.7236 179.079 95.3372 178.899 94.9842C178.719 94.6311 178.47 94.3187 178.165 94.0664C177.86 93.8141 177.507 93.6272 177.127 93.5173C176.748 93.4074 176.35 93.3768 175.958 93.4275C175.566 93.4781 175.189 93.6089 174.849 93.8118C174.51 94.0146 174.216 94.2852 173.984 94.6067C173.753 94.9283 173.591 95.294 173.506 95.6812C173.422 96.0685 173.417 96.469 173.493 96.858Z" fill="#EB5452"/>
<path opacity="0.1" d="M162.834 105.448C163.5 106.897 168.048 109.894 168.048 109.894C168.048 109.894 168.734 104.478 168.068 103.029C167.926 102.659 167.71 102.323 167.434 102.04C167.157 101.758 166.825 101.535 166.459 101.386C166.094 101.237 165.701 101.165 165.306 101.174C164.912 101.183 164.523 101.273 164.164 101.439C163.806 101.605 163.485 101.843 163.222 102.138C162.958 102.433 162.758 102.78 162.633 103.156C162.509 103.532 162.462 103.929 162.497 104.324C162.531 104.718 162.646 105.102 162.834 105.45V105.448Z" fill="#EB5452"/>
<path opacity="0.1" d="M153.616 115.216C154.027 116.758 158.007 120.481 158.007 120.481C158.007 120.481 159.595 115.261 159.181 113.718C159.105 113.329 158.949 112.96 158.724 112.634C158.499 112.307 158.21 112.031 157.874 111.821C157.539 111.612 157.164 111.474 156.773 111.415C156.382 111.357 155.983 111.38 155.601 111.483C155.219 111.586 154.862 111.766 154.553 112.013C154.243 112.259 153.988 112.567 153.801 112.917C153.615 113.267 153.503 113.652 153.471 114.047C153.439 114.442 153.488 114.84 153.616 115.216Z" fill="#EB5452"/>
<path opacity="0.25" d="M186.98 91.2627C185.989 92.5122 180.862 94.3411 180.862 94.3411C180.862 94.3411 181.479 88.9088 182.47 87.6684C182.696 87.3446 182.986 87.0706 183.321 86.8634C183.657 86.6561 184.031 86.5199 184.421 86.4632C184.811 86.4064 185.208 86.4304 185.588 86.5335C185.969 86.6366 186.324 86.8167 186.633 87.0627C186.941 87.3088 187.196 87.6155 187.382 87.9641C187.567 88.3127 187.68 88.6958 187.713 89.0897C187.746 89.4837 187.698 89.8801 187.572 90.2548C187.446 90.6294 187.245 90.9743 186.982 91.2682L186.98 91.2627Z" fill="black"/>
<path opacity="0.25" d="M185.22 101.159C183.712 101.667 178.42 100.402 178.42 100.402C178.42 100.402 181.876 96.1862 183.385 95.6774C183.751 95.5271 184.143 95.4537 184.538 95.4616C184.933 95.4695 185.322 95.5586 185.681 95.7234C186.04 95.8882 186.362 96.1251 186.626 96.4196C186.89 96.7141 187.092 97.0599 187.217 97.4355C187.343 97.8112 187.391 98.2087 187.357 98.6036C187.324 98.9984 187.21 99.3822 187.023 99.7312C186.836 100.08 186.579 100.387 186.269 100.632C185.959 100.878 185.602 101.057 185.22 101.159Z" fill="black"/>
<path opacity="0.25" d="M175.681 112.858C174.123 112.534 170.19 108.76 170.19 108.76C170.19 108.76 175.294 106.872 176.854 107.196C177.559 107.393 178.164 107.852 178.545 108.48C178.926 109.107 179.055 109.857 178.906 110.576C178.756 111.296 178.34 111.932 177.742 112.355C177.143 112.778 176.406 112.957 175.681 112.856V112.858Z" fill="black"/>
<path opacity="0.25" d="M166.476 120.079C164.886 120.023 160.374 116.972 160.374 116.972C160.374 116.972 165.088 114.241 166.678 114.299C167.407 114.374 168.081 114.723 168.562 115.278C169.044 115.832 169.298 116.549 169.272 117.283C169.246 118.018 168.943 118.715 168.424 119.234C167.905 119.753 167.209 120.055 166.476 120.078V120.079Z" fill="black"/>
<path opacity="0.25" d="M173.493 96.858C173.697 98.4424 177.142 102.665 177.142 102.665C177.142 102.665 179.411 97.7036 179.209 96.1192C179.184 95.7236 179.079 95.3372 178.899 94.9842C178.719 94.6311 178.47 94.3187 178.165 94.0664C177.86 93.8141 177.507 93.6272 177.127 93.5173C176.748 93.4074 176.35 93.3768 175.958 93.4275C175.566 93.4781 175.189 93.6089 174.849 93.8118C174.51 94.0146 174.216 94.2852 173.984 94.6067C173.753 94.9283 173.591 95.294 173.506 95.6812C173.422 96.0685 173.417 96.469 173.493 96.858Z" fill="black"/>
<path opacity="0.25" d="M162.834 105.448C163.5 106.897 168.048 109.894 168.048 109.894C168.048 109.894 168.734 104.478 168.068 103.029C167.926 102.659 167.71 102.323 167.434 102.04C167.157 101.758 166.825 101.535 166.459 101.386C166.094 101.237 165.701 101.165 165.306 101.174C164.912 101.183 164.523 101.273 164.164 101.439C163.806 101.605 163.485 101.843 163.222 102.138C162.958 102.433 162.758 102.78 162.633 103.156C162.509 103.532 162.462 103.929 162.497 104.324C162.531 104.718 162.646 105.102 162.834 105.45V105.448Z" fill="black"/>
<path opacity="0.25" d="M153.616 115.216C154.027 116.758 158.007 120.481 158.007 120.481C158.007 120.481 159.595 115.261 159.181 113.718C159.105 113.329 158.949 112.96 158.724 112.634C158.499 112.307 158.21 112.031 157.874 111.821C157.539 111.612 157.164 111.474 156.773 111.415C156.382 111.357 155.983 111.38 155.601 111.483C155.219 111.586 154.862 111.766 154.553 112.013C154.243 112.259 153.988 112.567 153.801 112.917C153.615 113.267 153.503 113.652 153.471 114.047C153.439 114.442 153.488 114.84 153.616 115.216Z" fill="black"/>
<path opacity="0.1" d="M161.546 132.168C161.546 132.168 166.635 119.583 176.139 114.915C180.139 112.981 183.406 109.797 185.448 105.841C186.403 103.957 187.184 101.989 187.781 99.9617" stroke="#535461" stroke-width="2" stroke-miterlimit="10"/>
<path opacity="0.1" d="M193.75 96.9848C192.759 98.2343 187.632 100.063 187.632 100.063C187.632 100.063 188.249 94.6308 189.24 93.3904C189.732 92.8419 190.414 92.5023 191.147 92.441C191.879 92.3797 192.608 92.6013 193.184 93.0605C193.759 93.5198 194.139 94.1822 194.244 94.9124C194.35 95.6427 194.174 96.3858 193.752 96.9902L193.75 96.9848Z" fill="#EB5452"/>
<path opacity="0.1" d="M191.994 106.881C190.485 107.389 185.193 106.124 185.193 106.124C185.193 106.124 188.65 101.908 190.158 101.399C190.867 101.211 191.621 101.3 192.267 101.649C192.913 101.997 193.402 102.58 193.636 103.277C193.87 103.975 193.83 104.735 193.525 105.405C193.22 106.074 192.672 106.602 191.994 106.881Z" fill="#EB5452"/>
<path opacity="0.1" d="M182.454 118.587C180.896 118.263 176.964 114.489 176.964 114.489C176.964 114.489 182.068 112.601 183.627 112.925C184.332 113.122 184.937 113.581 185.318 114.209C185.699 114.837 185.828 115.586 185.679 116.306C185.53 117.025 185.114 117.661 184.515 118.084C183.916 118.508 183.179 118.687 182.454 118.585V118.587Z" fill="#EB5452"/>
<path opacity="0.1" d="M173.248 125.8C171.658 125.743 167.146 122.692 167.146 122.692C167.146 122.692 171.86 119.965 173.45 120.021C174.179 120.096 174.852 120.445 175.334 121C175.815 121.554 176.069 122.271 176.043 123.005C176.018 123.74 175.715 124.437 175.195 124.956C174.676 125.475 173.98 125.777 173.248 125.8Z" fill="#EB5452"/>
<path opacity="0.1" d="M180.265 102.587C180.469 104.172 183.914 108.394 183.914 108.394C183.914 108.394 186.182 103.433 185.98 101.848C185.956 101.453 185.85 101.067 185.67 100.713C185.491 100.36 185.241 100.048 184.936 99.7957C184.632 99.5434 184.279 99.3565 183.899 99.2466C183.519 99.1367 183.121 99.1062 182.729 99.1568C182.338 99.2075 181.96 99.3382 181.621 99.5411C181.281 99.7439 180.987 100.014 180.756 100.336C180.525 100.658 180.362 101.023 180.278 101.411C180.193 101.798 180.189 102.198 180.265 102.587Z" fill="#EB5452"/>
<path opacity="0.1" d="M169.608 111.163C170.274 112.612 174.822 115.609 174.822 115.609C174.822 115.609 175.507 110.193 174.841 108.744C174.492 108.097 173.91 107.607 173.214 107.375C172.518 107.142 171.76 107.185 171.093 107.493C170.427 107.801 169.903 108.352 169.627 109.034C169.351 109.716 169.344 110.478 169.608 111.165V111.163Z" fill="#EB5452"/>
<path opacity="0.1" d="M160.389 120.941C160.8 122.484 164.78 126.207 164.78 126.207C164.78 126.207 166.368 120.987 165.955 119.444C165.718 118.748 165.227 118.168 164.581 117.822C163.935 117.476 163.181 117.389 162.473 117.58C161.766 117.77 161.157 118.223 160.77 118.848C160.383 119.472 160.246 120.22 160.389 120.941Z" fill="#EB5452"/>
</g>
<path opacity="0.1" d="M2.13867 77.8576C5.27173 91.2935 11.9042 102.908 22.3863 108.537C44.1697 120.237 93.297 114.203 129.962 107.27C148.488 103.779 165.304 94.1356 177.704 79.8911L2.13867 77.8576Z" fill="#EB5452"/>
<path opacity="0.1" d="M194.409 14.6147H174.291C173.83 14.6147 173.387 14.4309 173.061 14.1037C172.735 13.7765 172.552 13.3328 172.552 12.8701C172.552 12.4073 172.735 11.9636 173.061 11.6364C173.387 11.3092 173.83 11.1254 174.291 11.1254H177.769C177.308 11.1254 176.865 10.9416 176.539 10.6144C176.213 10.2872 176.03 9.84342 176.03 9.38071C176.03 8.91799 176.213 8.47423 176.539 8.14704C176.865 7.81985 177.308 7.63603 177.769 7.63603H175.285C174.824 7.63603 174.382 7.45222 174.056 7.12503C173.73 6.79784 173.547 6.35407 173.547 5.89136C173.547 5.42864 173.73 4.98488 174.056 4.65769C174.382 4.3305 174.824 4.14668 175.285 4.14668H185.785C183.456 3.06022 180.732 2.28702 177.595 1.88141C148.965 -1.80894 138.743 0.63198 135.137 3.14895C130.688 6.24536 125.725 8.52331 120.421 9.62064C102.754 13.273 69.7178 17.6731 39.7751 8.20824C24.8931 3.50024 13.8317 11.4531 7.20282 24.7369H197.901C197.652 20.8764 196.906 17.3128 195.538 14.191C195.225 14.4637 194.824 14.6141 194.409 14.6147Z" fill="#EB5452"/>
<path opacity="0.1" d="M0.431345 49.8143C-0.340999 57.6287 -0.0782271 65.5113 1.2128 73.2565L177.841 79.7372C182.758 74.0625 186.886 67.7459 190.113 60.9595L0.431345 49.8143ZM70.2899 66.5367H66.8121C67.2733 66.5367 67.7156 66.7205 68.0417 67.0477C68.3678 67.3749 68.551 67.8187 68.551 68.2814C68.551 68.7441 68.3678 69.1879 68.0417 69.5151C67.7156 69.8423 67.2733 70.0261 66.8121 70.0261H46.6945C46.2333 70.0261 45.791 69.8423 45.4649 69.5151C45.1388 69.1879 44.9556 68.7441 44.9556 68.2814C44.9556 67.8187 45.1388 67.3749 45.4649 67.0477C45.791 66.7205 46.2333 66.5367 46.6945 66.5367H50.1723C49.7111 66.5367 49.2688 66.3529 48.9427 66.0257C48.6166 65.6985 48.4334 65.2548 48.4334 64.792C48.4334 64.3293 48.6166 63.8856 48.9427 63.5584C49.2688 63.2312 49.7111 63.0474 50.1723 63.0474H47.6889C47.2277 63.0474 46.7854 62.8636 46.4593 62.5364C46.1332 62.2092 45.95 61.7654 45.95 61.3027C45.95 60.84 46.1332 60.3962 46.4593 60.069C46.7854 59.7418 47.2277 59.558 47.6889 59.558H67.8065C68.2677 59.558 68.71 59.7418 69.0361 60.069C69.3622 60.3962 69.5454 60.84 69.5454 61.3027C69.5454 61.7654 69.3622 62.2092 69.0361 62.5364C68.71 62.8636 68.2677 63.0474 67.8065 63.0474H70.2899C70.7511 63.0474 71.1934 63.2312 71.5195 63.5584C71.8456 63.8856 72.0288 64.3293 72.0288 64.792C72.0288 65.2548 71.8456 65.6985 71.5195 66.0257C71.1934 66.3529 70.7511 66.5367 70.2899 66.5367Z" fill="#EB5452"/>
<path opacity="0.1" d="M197.91 24.8582L5.07317 29.5662C2.72879 35.616 1.18211 42.4553 0.460205 49.5444H194.531C195.798 45.3801 196.736 41.1218 197.334 36.8093C197.912 32.6427 198.143 28.6119 197.91 24.8582ZM39.609 40.2805H36.1312C36.5924 40.2805 37.0347 40.4643 37.3608 40.7915C37.6869 41.1187 37.8701 41.5625 37.8701 42.0252C37.8701 42.4879 37.6869 42.9317 37.3608 43.2589C37.0347 43.5861 36.5924 43.7699 36.1312 43.7699H16.0136C15.5524 43.7699 15.1101 43.5861 14.784 43.2589C14.4579 42.9317 14.2747 42.4879 14.2747 42.0252C14.2747 41.5625 14.4579 41.1187 14.784 40.7915C15.1101 40.4643 15.5524 40.2805 16.0136 40.2805H19.4914C19.0302 40.2805 18.5879 40.0967 18.2618 39.7695C17.9357 39.4423 17.7525 38.9986 17.7525 38.5359C17.7525 38.0731 17.9357 37.6294 18.2618 37.3022C18.5879 36.975 19.0302 36.7912 19.4914 36.7912H17.008C16.5468 36.7912 16.1046 36.6074 15.7785 36.2802C15.4523 35.953 15.2691 35.5092 15.2691 35.0465C15.2691 34.5838 15.4523 34.14 15.7785 33.8128C16.1046 33.4856 16.5468 33.3018 17.008 33.3018H37.1257C37.5868 33.3018 38.0291 33.4856 38.3552 33.8128C38.6813 34.14 38.8645 34.5838 38.8645 35.0465C38.8645 35.5092 38.6813 35.953 38.3552 36.2802C38.0291 36.6074 37.5868 36.7912 37.1257 36.7912H39.609C40.0702 36.7912 40.5125 36.975 40.8386 37.3022C41.1647 37.6294 41.3479 38.0731 41.3479 38.5359C41.3479 38.9986 41.1647 39.4423 40.8386 39.7695C40.5125 40.0967 40.0702 40.2805 39.609 40.2805Z" fill="#EB5452"/>
<path d="M169.409 146.908C169.409 146.908 161.367 102.652 146.032 95.471C133.038 89.3813 118.986 85.2763 114.99 84.1627C114.394 83.1984 113.704 82.2953 112.931 81.4665C107.47 75.7462 104.189 75.8531 103.658 75.9237C103.406 74.7893 103.225 73.6403 103.117 72.4832C103.1 72.3022 103.084 72.1338 103.07 71.9545L103.117 71.931C103.084 71.5887 103.055 71.2356 103.03 70.8717C105.259 69.6779 107.312 68.178 109.128 66.4153C109.152 66.4932 109.172 66.5711 109.197 66.6507C113.132 63.3129 116.987 59.8845 120.76 56.3656C121.843 55.3497 122.98 54.247 123.348 52.8147C123.466 52.3218 123.512 51.8142 123.483 51.3081C123.532 50.2216 123.276 49.1116 123.233 48.0107C123.233 47.8296 123.252 47.6612 123.276 47.4892C123.529 45.6875 124.777 44.2081 125.803 42.6961C128.364 38.8751 129.7 34.3605 129.634 29.7563C129.662 27.5502 129.358 25.3525 128.732 23.2376C127.932 20.554 126.268 17.7346 123.498 17.1479C122.426 16.9216 121.312 17.0628 120.219 16.9922C115.69 16.7025 112.301 13.0085 108.69 10.3014C104.282 7.01345 99.0699 4.98365 93.6056 4.4273C91.9001 4.24622 90.1387 4.23354 88.5162 4.77677C84.8724 5.99361 82.6598 9.75096 79.1495 11.2955C76.5543 12.4436 73.5548 12.2571 70.8476 13.119C66.8176 14.4046 63.3976 18.5513 63.3073 22.812C63.3073 22.9696 63.3073 23.1271 63.3073 23.2846C63.3073 23.3118 63.3073 23.339 63.3073 23.3643C63.2622 25.5173 64.0292 27.7102 64.0906 29.9139C64.0906 30.1131 64.0936 30.3128 64.0996 30.5132C64.0798 32.8926 63.7964 35.2792 62.9319 37.5155C62.4663 38.7196 61.8671 40.1139 61.9646 41.3181C61.9105 42.0551 62.053 42.7468 62.5638 43.3099L63.4355 42.5386C63.1431 44.1261 62.9963 45.7372 62.9969 47.3516C62.9969 55.4892 66.6858 62.7757 72.5044 67.6793C72.5381 68.2213 72.5706 68.8019 72.6018 69.4212C72.739 72.1048 72.8473 75.471 72.8166 79.1396L64.3054 86.9893L42.4245 96.9485C42.4245 96.9485 22.4133 101.189 26.7231 129.396L28.7805 146.909H47.0501L47.0086 147.002H74.1251L74.1413 146.909H138.658L138.645 147.002H141.172V146.909L169.409 146.908ZM103.819 76.3728C104.372 77.5206 104.807 78.7219 105.118 79.9581C104.48 78.7685 104.008 77.4962 103.716 76.1772L103.743 76.2261L103.819 76.3728ZM72.8094 79.9943C72.8094 80.3396 72.8034 80.6878 72.7913 81.0391L72.748 81.1007C72.7451 80.728 72.7656 80.3554 72.8094 79.9853V79.9943Z" fill="url(#paint0_linear)"/>
<path d="M110.957 84.4361L107.347 119.022L88.0361 125.178C88.0361 125.178 62.9499 120.47 69.4471 106.89C74.0691 97.2292 73.9409 79.9654 73.4825 70.8029C73.302 67.0835 73.0566 64.6988 73.0566 64.6988C73.0566 64.6988 105.903 35.9075 103.196 61.8015C102.673 66.8156 102.642 70.7359 102.933 73.7997C104.151 86.5547 110.957 84.4361 110.957 84.4361Z" fill="#FDC2CC"/>
<path opacity="0.03" d="M110.957 84.4361L107.347 119.022L88.0361 125.178C88.0361 125.178 62.9499 120.47 69.4471 106.89C74.0691 97.2292 73.9409 79.9654 73.4825 70.8029C73.302 67.0835 73.0566 64.6988 73.0566 64.6988C73.0566 64.6988 105.903 35.9075 103.196 61.8015C102.673 66.8156 102.642 70.7359 102.933 73.7997C104.151 86.5547 110.957 84.4361 110.957 84.4361Z" fill="black"/>
<path opacity="0.1" d="M103.196 61.2583C102.673 66.2723 102.642 70.1926 102.933 73.2564C98.2955 75.7964 93.001 76.8695 87.7449 76.3347C82.4887 75.7998 77.5168 73.682 73.4825 70.2596C73.302 66.5403 73.0566 64.1555 73.0566 64.1555C73.0566 64.1555 105.903 35.3643 103.196 61.2583Z" fill="black"/>
<path d="M90.3822 75.3841C104.835 75.3841 116.551 63.6288 116.551 49.1279C116.551 34.627 104.835 22.8718 90.3822 22.8718C75.9295 22.8718 64.2133 34.627 64.2133 49.1279C64.2133 63.6288 75.9295 75.3841 90.3822 75.3841Z" fill="#FDC2CC"/>
<path opacity="0.03" d="M90.3822 75.3841C104.835 75.3841 116.551 63.6288 116.551 49.1279C116.551 34.627 104.835 22.8718 90.3822 22.8718C75.9295 22.8718 64.2133 34.627 64.2133 49.1279C64.2133 63.6288 75.9295 75.3841 90.3822 75.3841Z" fill="black"/>
<path opacity="0.1" d="M47.2485 119.384C47.2485 119.384 55.7309 136.767 56.1821 146.998L47.2485 119.384Z" fill="black"/>
<path opacity="0.1" d="M139.652 129.345L137.216 147H139.652V129.345Z" fill="black"/>
<path opacity="0.1" d="M49.1436 146.998L62.589 116.306C62.589 116.306 66.379 109.063 67.2814 101.82C68.1838 94.5764 73.0566 83.1686 73.0566 83.1686C73.0566 83.1686 85.1485 67.7771 90.7432 69.95C96.338 72.1229 85.8704 80.2714 85.8704 80.2714C85.8704 80.2714 101.211 86.2469 90.7432 103.992C80.2756 121.738 80.0952 118.479 80.0952 118.479L74.9516 146.998H49.1436Z" fill="black"/>
<path d="M48.7826 146.998L62.228 116.306C62.228 116.306 66.018 109.063 66.9204 101.82C67.4943 97.2148 69.6727 90.9259 71.1832 86.9549C72.1693 84.3588 73.6201 81.9655 75.4641 79.8929C79.3732 75.5036 86.4732 68.4253 90.3823 69.9464C95.977 72.1193 85.5094 80.2678 85.5094 80.2678C85.5094 80.2678 100.85 86.2433 90.3823 103.989C79.9147 121.734 79.7342 118.475 79.7342 118.475L74.5906 146.995L48.7826 146.998Z" fill="#FDC2CC"/>
<path opacity="0.15" d="M98.4134 34.9134C98.7125 34.9134 98.9549 34.6702 98.9549 34.3702C98.9549 34.0702 98.7125 33.827 98.4134 33.827C98.1144 33.827 97.872 34.0702 97.872 34.3702C97.872 34.6702 98.1144 34.9134 98.4134 34.9134Z" fill="white"/>
<path opacity="0.15" d="M95.8868 35.9999C96.1858 35.9999 96.4282 35.7566 96.4282 35.4566C96.4282 35.1566 96.1858 34.9134 95.8868 34.9134C95.5877 34.9134 95.3453 35.1566 95.3453 35.4566C95.3453 35.7566 95.5877 35.9999 95.8868 35.9999Z" fill="white"/>
<path opacity="0.1" d="M71.7915 16.0398C74.4029 15.1924 77.3014 15.3753 79.8064 14.249C83.1939 12.7243 85.3289 9.03394 88.8446 7.83883C90.4111 7.30647 92.1112 7.32638 93.7553 7.4966C99.0424 8.04867 104.077 10.0447 108.313 13.2675C111.798 15.9275 115.068 19.5545 119.437 19.8388C120.493 19.9076 121.567 19.7682 122.601 19.9909C125.279 20.5667 126.883 23.3354 127.654 25.9664C128.546 29.0845 128.755 32.3592 128.267 35.5659C127.779 38.7726 126.606 41.8356 124.828 44.5449C123.839 46.0298 122.633 47.4838 122.39 49.2529C122.151 50.9876 122.888 52.7857 122.458 54.4842C122.097 55.8912 121.014 56.974 119.96 57.9718C116.321 61.4255 112.601 64.7905 108.802 68.0668C106.827 61.7726 109.724 54.9949 109.273 48.4127C109.092 45.8487 108.19 43.0492 105.936 41.8396C103.826 40.7097 101.13 41.2964 98.9946 40.2099C96.6123 39.0058 95.6341 36.1538 93.833 34.1801C90.7649 30.8121 85.439 30.3775 81.1491 31.8985C76.8592 33.4196 73.3526 36.5486 69.9596 39.5997L63.7928 45.1497C62.589 43.788 63.5022 41.6984 64.1537 39.9963C65.1247 37.4449 65.3376 34.6943 65.2727 31.9854C65.2203 29.8125 64.4732 27.6667 64.5165 25.5518C64.6031 21.3798 67.9022 17.3019 71.7915 16.0398Z" fill="black"/>
<path d="M71.7915 15.4966C74.4029 14.6491 77.3014 14.832 79.8064 13.7057C83.1939 12.1811 85.3289 8.49073 88.8446 7.29562C90.4111 6.76325 92.1112 6.78317 93.7553 6.95338C99.0424 7.50546 104.077 9.50146 108.313 12.7243C111.798 15.3843 115.068 19.0113 119.437 19.2956C120.493 19.3644 121.567 19.225 122.601 19.4477C125.279 20.0235 126.883 22.7922 127.654 25.4232C128.546 28.5413 128.755 31.816 128.267 35.0227C127.779 38.2294 126.606 41.2924 124.828 44.0017C123.839 45.4865 122.633 46.9406 122.39 48.7097C122.151 50.4444 122.888 52.2425 122.458 53.941C122.097 55.348 121.014 56.4308 119.96 57.4286C116.321 60.8823 112.601 64.2473 108.802 67.5236C106.827 61.2294 109.724 54.4517 109.273 47.8695C109.092 45.3055 108.19 42.506 105.936 41.2964C103.826 40.1665 101.13 40.7532 98.9946 39.6667C96.6123 38.4626 95.6341 35.6106 93.833 33.6369C90.7649 30.2688 85.439 29.8343 81.1491 31.3553C76.8592 32.8763 73.3526 36.0054 69.9596 39.0565L63.7928 44.6065C62.589 43.2448 63.5022 41.1552 64.1537 39.4531C65.1247 36.9017 65.3376 34.1511 65.2727 31.4422C65.2203 29.2693 64.4732 27.1235 64.5165 25.0086C64.6031 20.8365 67.9022 16.7587 71.7915 15.4966Z" fill="#865A61"/>
</g>
<defs>
<linearGradient id="paint0_linear" x1="97.7602" y1="146.998" x2="97.7602" y2="4.30597" gradientUnits="userSpaceOnUse">
<stop stop-color="#808080" stop-opacity="0.25"/>
<stop offset="0.54" stop-color="#808080" stop-opacity="0.12"/>
<stop offset="1" stop-color="#808080" stop-opacity="0.1"/>
</linearGradient>
<clipPath id="clip0">
<rect width="198" height="147" fill="white"/>
</clipPath>
</defs>
</svg>
