<svg width="283" height="234" viewBox="0 0 283 234" fill="none" xmlns="http://www.w3.org/2000/svg">
<g opacity="0.9" clip-path="url(#clip0)">
<path d="M202.177 52.976H200.166C199.769 52.976 199.448 53.2963 199.448 53.6914V80.5684C199.448 80.9635 199.769 81.2838 200.166 81.2838H202.177C202.573 81.2838 202.895 80.9635 202.895 80.5684V53.6914C202.895 53.2963 202.573 52.976 202.177 52.976Z" fill="#3F3D56"/>
<path d="M189.082 0H98.2158C91.464 0 85.9905 5.454 85.9905 12.1819V221.349C85.9905 228.077 91.464 233.531 98.2158 233.531H189.082C195.834 233.531 201.307 228.077 201.307 221.349V12.1819C201.307 5.454 195.834 0 189.082 0Z" fill="#3F3D56"/>
<path d="M185.257 6.08276H172.029V7.66837C172.029 8.65535 171.834 9.63266 171.455 10.5445C171.075 11.4563 170.52 12.2847 169.819 12.9824C169.119 13.6801 168.287 14.2334 167.372 14.6108C166.456 14.9881 165.475 15.182 164.485 15.1815H122.416C121.426 15.182 120.445 14.9881 119.53 14.6108C118.614 14.2334 117.783 13.6801 117.082 12.9824C116.381 12.2847 115.826 11.4563 115.447 10.5445C115.067 9.63266 114.872 8.65535 114.872 7.66837V6.08276H102.487C100.058 6.08276 97.7285 7.04424 96.0109 8.75568C94.2934 10.4671 93.3285 12.7883 93.3285 15.2087V218.338C93.3285 220.759 94.2934 223.08 96.0109 224.791C97.7285 226.503 100.058 227.464 102.487 227.464H185.257C187.686 227.464 190.015 226.503 191.733 224.791C193.451 223.08 194.416 220.759 194.416 218.338V15.2243C194.418 14.0246 194.182 12.8362 193.723 11.7272C193.264 10.6182 192.589 9.61028 191.739 8.7612C190.888 7.91213 189.878 7.23852 188.765 6.77893C187.653 6.31933 186.461 6.08276 185.257 6.08276Z" fill="white"/>
<path d="M147.415 6.97424H133.739C133.069 6.97424 132.526 7.51559 132.526 8.18337V9.02163C132.526 9.68941 133.069 10.2308 133.739 10.2308H147.415C148.085 10.2308 148.629 9.68941 148.629 9.02163V8.18337C148.629 7.51559 148.085 6.97424 147.415 6.97424Z" fill="#E6E8EC"/>
<path d="M152.92 10.4519C153.945 10.4519 154.776 9.62394 154.776 8.6026C154.776 7.58126 153.945 6.7533 152.92 6.7533C151.895 6.7533 151.064 7.58126 151.064 8.6026C151.064 9.62394 151.895 10.4519 152.92 10.4519Z" fill="#E6E8EC"/>
<path d="M144.353 141.37C156.401 141.37 166.168 131.638 166.168 119.633C166.168 107.628 156.401 97.8956 144.353 97.8956C132.305 97.8956 122.539 107.628 122.539 119.633C122.539 131.638 132.305 141.37 144.353 141.37Z" fill="white"/>
<path d="M173.045 116.597C173.045 122.343 171.335 127.96 168.131 132.738C164.927 137.515 160.374 141.239 155.046 143.438C149.718 145.637 143.856 146.212 138.2 145.09C132.545 143.969 127.35 141.202 123.272 137.139C119.195 133.076 116.418 127.899 115.293 122.263C114.169 116.628 114.746 110.786 116.953 105.478C119.16 100.169 122.897 95.6319 127.692 92.4398C132.487 89.2476 138.124 87.5439 143.89 87.5441C147.719 87.5442 151.51 88.2958 155.048 89.7559C158.585 91.216 161.799 93.3561 164.507 96.054C167.214 98.7518 169.361 101.955 170.826 105.479C172.292 109.004 173.046 112.782 173.045 116.597ZM140.52 131.976L162.148 110.425C162.323 110.251 162.462 110.044 162.556 109.817C162.651 109.589 162.7 109.345 162.7 109.099C162.7 108.853 162.651 108.609 162.556 108.381C162.462 108.154 162.323 107.947 162.148 107.773L159.487 105.141C159.312 104.966 159.105 104.828 158.877 104.734C158.649 104.639 158.405 104.591 158.158 104.591C157.911 104.591 157.667 104.639 157.439 104.734C157.211 104.828 157.004 104.966 156.829 105.141L139.19 122.718L130.953 114.492C130.6 114.141 130.121 113.945 129.623 113.945C129.124 113.945 128.646 114.141 128.292 114.492L125.631 117.159C125.279 117.511 125.082 117.988 125.082 118.485C125.082 118.982 125.279 119.458 125.631 119.811L137.86 131.991C138.034 132.166 138.241 132.304 138.47 132.398C138.698 132.493 138.943 132.541 139.19 132.541C139.437 132.541 139.682 132.493 139.91 132.398C140.139 132.304 140.346 132.166 140.521 131.991L140.52 131.976Z" fill="#EB5452"/>
<path d="M89.601 46.0396H89.2991C88.9025 46.0396 88.5811 46.3599 88.5811 46.755V53.7014C88.5811 54.0965 88.9025 54.4169 89.2991 54.4169H89.601C89.9976 54.4169 90.3191 54.0965 90.3191 53.7014V46.755C90.3191 46.3599 89.9976 46.0396 89.601 46.0396Z" fill="#3F3D56"/>
<path d="M89.7584 61.3792H89.236C88.8395 61.3792 88.518 61.6995 88.518 62.0946V75.2438C88.518 75.6389 88.8395 75.9592 89.236 75.9592H89.7584C90.155 75.9592 90.4764 75.6389 90.4764 75.2438V62.0946C90.4764 61.6995 90.155 61.3792 89.7584 61.3792Z" fill="#3F3D56"/>
<path d="M89.6954 81.061H89.2674C88.8709 81.061 88.5494 81.3814 88.5494 81.7765V95.051C88.5494 95.4461 88.8709 95.7664 89.2674 95.7664H89.6954C90.092 95.7664 90.4135 95.4461 90.4135 95.051V81.7765C90.4135 81.3814 90.092 81.061 89.6954 81.061Z" fill="#3F3D56"/>
<path d="M65.4508 119.947C65.5006 119.995 65.5646 120.026 65.6333 120.034C65.702 120.043 65.7717 120.03 65.8321 119.996C65.7033 119.998 65.5749 119.981 65.4508 119.947Z" fill="url(#paint0_linear)"/>
<path d="M79.8625 125.564L79.4862 127.606L79.1959 129.169L78.6679 132.026L73.5479 135.598C73.5479 135.598 73.0864 135.204 72.3251 134.584C70.2268 132.862 65.8167 129.357 62.5784 127.475C61.7454 126.946 60.8442 126.532 59.8994 126.245L79.8625 125.564Z" fill="#FEB9B9"/>
<path d="M76.1065 127.084C76.1065 127.084 82.0762 128.105 82.4258 125.564C82.7754 123.024 79.353 121.651 76.4526 121.48C73.5523 121.309 56.1446 122.501 56.1446 122.501C56.1446 122.501 53.074 126.582 64.1637 127.265L76.1065 127.084Z" fill="#3F3D56"/>
<path d="M89.1614 43.2551H57.9318V80.155H89.1614V43.2551Z" fill="#2F2E41"/>
<path opacity="0.1" d="M89.1614 43.4226H57.9318V80.3225H89.1614V43.4226Z" fill="black"/>
<path d="M21.3308 106.423C20.8166 106.552 20.1594 107.048 19.4285 107.764C16.2811 110.869 11.7732 118.156 11.7732 118.156C6.00983 111.315 12.3874 105.91 15.1059 104.053C15.7669 103.603 16.2109 103.356 16.2109 103.356L21.3308 106.423Z" fill="#FEB9B9"/>
<path d="M79.5198 54.9011C79.5198 54.9011 81.0562 65.6133 86.3461 68.164C91.636 70.7147 79.5198 75.4819 79.5198 75.4819L62.9678 69.3556C62.9678 69.3556 72.3542 66.2938 70.4761 57.2809L79.5198 54.9011Z" fill="#FEB9B9"/>
<path d="M61.7719 119.348L61.3975 121.383L61.0934 122.951L60.5654 125.808L55.4454 129.377C55.4454 129.377 54.9839 128.986 54.2226 128.366C52.1243 126.645 47.7145 123.139 44.4712 121.257C43.6386 120.728 42.7372 120.314 41.7922 120.027L61.7719 119.348Z" fill="#FEB9B9"/>
<path d="M57.343 121.857C57.343 121.857 62.7006 121.895 63.023 119.348C63.3453 116.8 60.1032 115.434 57.343 115.263C54.5828 115.092 37.8123 116.364 37.8123 116.364C37.8123 116.364 35.4331 121.175 45.9818 121.857L57.343 121.857Z" fill="#2F2E41"/>
<path d="M94.9072 161.879C94.673 161.764 94.4385 161.645 94.2077 161.53L93.5781 160.739L85.3214 150.306V150.487C85.2656 152.23 84.6711 166.036 80.0337 167.312C75.0852 168.671 69.1155 169.012 66.3942 159.83C63.6729 150.648 58.7007 130.583 53.5945 129.391L61.1903 123.185C61.1903 123.185 66.2193 129.046 68.2683 134.657C68.1915 134.308 64.7186 118.139 67.5688 115.278H92.4882C92.4882 115.278 96.3351 126.196 98.9718 131.604C101.025 135.803 104.106 145.731 106.089 152.45C108.053 159.084 101.153 164.942 94.9072 161.879Z" fill="#3F3D56"/>
<path opacity="0.1" d="M94.1974 118.326C90.3504 120.595 73.4626 119.671 67.9686 119.302L66.4717 119.194C66.3108 119.194 66.4962 119.103 66.4962 119.103L66.6501 117.56L70.7454 107.189L92.6726 94.5186C92.2283 95.8533 92.0815 97.8954 92.1166 100.234C92.2179 107.747 94.1974 118.326 94.1974 118.326Z" fill="black"/>
<path d="M94.1974 117.814C90.3504 120.083 73.4626 119.159 67.9686 118.79L66.4717 118.685L66.2234 118.664L66.4962 118.595L67.846 118.246L70.7451 106.684L92.6723 94.0171C92.2283 95.3518 92.0812 97.3939 92.1163 99.7322C92.2179 107.238 94.1974 117.814 94.1974 117.814Z" fill="#EFEFEF"/>
<path opacity="0.1" d="M92.1025 99.725C87.6435 100.749 77.8307 103.755 74.0606 111.015C71.5462 115.849 69.4304 117.922 67.9545 118.79L66.4576 118.685C66.4674 118.655 66.4755 118.625 66.482 118.595L67.8319 118.246L70.731 106.684L92.6581 94.0171C92.2192 95.3446 92.0674 97.3867 92.1025 99.725Z" fill="black"/>
<path opacity="0.1" d="M16.2109 103.363L21.3308 106.423C20.8166 106.552 20.1594 107.048 19.4285 107.765C19.0018 106.524 16.3244 104.792 15.1059 104.053C15.7666 103.611 16.2109 103.363 16.2109 103.363Z" fill="black"/>
<path opacity="0.1" d="M65.5452 118.884C65.4891 118.913 65.4252 118.924 65.3625 118.916C65.2999 118.907 65.2415 118.879 65.1956 118.835C65.3091 118.869 65.4269 118.885 65.5452 118.884Z" fill="black"/>
<path d="M77.1314 67.4845C77.1314 67.4845 72.5223 67.9932 69.2805 64.5923C69.2805 64.5923 55.641 68.5056 51.0218 77.3462C46.4026 86.1869 15.0009 103.534 15.0009 103.534C15.0009 103.534 20.4635 106.594 19.9493 108.123L40.6 96.2195C40.6 96.2195 47.944 90.9506 49.983 89.759C52.022 88.5673 63.2967 81.2563 65.6853 101.151C68.0739 121.045 65.6853 118.665 65.6853 118.665C65.6853 118.665 69.0986 119.857 74.0471 110.333C78.9955 100.809 94.3516 98.5996 94.3516 98.5996L95.2048 88.5705C95.2048 88.5705 98.2509 81.9215 95.9043 79.1618C95.1934 78.3446 94.7205 77.3492 94.5369 76.2833C94.1488 73.736 94.5369 69.4916 99.9714 65.9651C108.333 60.5219 111.575 56.1034 111.575 56.1034C111.575 56.1034 111.746 52.8697 106.626 51.3397C101.507 49.8097 80.688 41.478 80.688 41.478L79.9885 44.3702L96.4148 55.9222C96.4148 55.9222 88.2245 62.543 81.7268 62.3828C81.7265 62.3828 82.9331 67.3136 77.1314 67.4845Z" fill="#EB5452"/>
<path opacity="0.1" d="M80.2927 59.5636C79.8891 58.2006 79.5737 56.8131 79.3486 55.4098L70.3048 57.7905C70.7035 59.5109 70.6323 61.3062 70.0985 62.9898C71.9475 63.4814 73.901 63.4186 75.7143 62.8091C77.5276 62.1997 79.1202 61.0707 80.2927 59.5636Z" fill="black"/>
<path d="M72.7809 62.8083C78.1523 62.8083 82.5066 58.4694 82.5066 53.1171C82.5066 47.7649 78.1523 43.426 72.7809 43.426C67.4096 43.426 63.0553 47.7649 63.0553 53.1171C63.0553 58.4694 67.4096 62.8083 72.7809 62.8083Z" fill="#FEB9B9"/>
<path opacity="0.1" d="M83.3598 131.164C83.3598 131.164 88.9902 142.218 87.2836 145.615L83.3598 131.164Z" fill="black"/>
<path d="M77.953 30.7346C80.6526 31.0414 83.2162 32.1946 85.8742 32.8254C86.5385 33.0312 87.2457 33.0576 87.9235 32.9019C88.9551 32.5848 89.7945 31.5082 90.8646 31.5394C91.5231 31.5604 92.106 32.0065 92.6481 32.4349C93.5174 33.0978 94.3356 33.8247 95.096 34.6094C96.9284 36.5921 98.065 39.2616 99.7365 41.4186C101.408 43.5757 103.792 46.1052 106.167 45.116C104.551 51.3884 99.5127 55.3123 93.7882 55.7029C91.5046 55.8591 89.1649 55.3857 86.9547 56.0512C86.4042 56.2761 85.8228 56.417 85.2301 56.4693C83.9571 56.4693 82.9325 55.3054 82.1385 54.1729C80.2779 51.5106 78.8058 48.4893 76.711 46.0605C76.0115 45.2556 75.2038 44.4924 74.2245 44.3461C73.2453 44.1999 72.3467 44.6667 71.476 45.1163C70.0386 45.8586 68.57 46.625 67.4544 47.9042C66.3388 49.1833 65.6358 51.0716 66.0973 52.7828C66.3457 53.7098 66.9125 54.5462 66.9226 55.5148C66.9436 57.0619 65.5727 58.1911 65.3034 59.6964C65.2426 60.3287 65.2204 60.9641 65.2369 61.5991C65.1181 63.6612 63.7633 65.3484 62.3523 66.6484C61.7998 67.1502 61.1921 67.6938 61.0303 68.4708C60.9219 69.0038 61.0304 69.5644 60.9604 70.1052C60.7541 71.4433 59.4146 72.1229 58.2291 72.2972C56.8439 72.5016 55.4292 72.3344 54.1304 71.813C55.7881 71.0319 56.8093 68.8092 56.4246 66.8193C55.8966 64.0592 53.1129 62.0765 53.3518 59.2681C53.4827 58.4063 53.742 57.5689 54.1213 56.7836C54.7279 55.2659 55.1688 53.6875 55.4363 52.0758C55.6461 50.8317 55.7477 49.511 55.3557 48.3228C55.0061 47.2424 54.2752 46.382 53.656 45.4687C52.8168 44.2264 52.1543 42.8742 51.6872 41.4508C51.5179 41.0286 51.4534 40.5719 51.4991 40.1195C51.6393 39.5852 51.9379 39.1055 52.356 38.7429C53.8773 37.1495 55.5034 35.4952 57.5424 35.0387C58.5153 34.8777 59.5047 34.8403 60.487 34.9272C62.1954 34.9805 63.9054 34.9083 65.6032 34.7109C67.0019 34.5472 69.3658 34.5682 70.5516 33.6655C71.6566 32.822 72.2793 31.7628 73.6395 31.2264C75.017 30.7176 76.4977 30.5489 77.9549 30.7349L77.953 30.7346Z" fill="#2F2E41"/>
<path d="M258.667 232.951C266.459 232.951 272.775 231.887 272.775 230.574C272.775 229.261 266.459 228.197 258.667 228.197C250.875 228.197 244.559 229.261 244.559 230.574C244.559 231.887 250.875 232.951 258.667 232.951Z" fill="#EB5452"/>
<path d="M264.502 226.686C265.145 226.162 265.613 225.457 265.846 224.662C266.021 223.861 265.677 222.912 264.905 222.603C264.042 222.274 263.118 222.872 262.421 223.473C261.724 224.074 260.919 224.763 260.003 224.634C260.475 224.209 260.828 223.67 261.028 223.069C261.228 222.468 261.268 221.825 261.145 221.204C261.104 220.947 260.993 220.705 260.826 220.505C260.348 219.994 259.477 220.211 258.906 220.617C257.082 221.893 256.573 224.366 256.563 226.584C256.377 225.784 256.534 224.948 256.528 224.137C256.521 223.326 256.3 222.387 255.601 221.959C255.171 221.729 254.687 221.615 254.198 221.63C253.377 221.599 252.465 221.683 251.903 222.281C251.202 223.022 251.391 224.266 251.995 225.077C252.598 225.889 253.521 226.409 254.37 226.972C255.049 227.376 255.627 227.927 256.063 228.584C256.115 228.676 256.157 228.773 256.189 228.874H261.315C262.471 228.292 263.542 227.556 264.501 226.687L264.502 226.686Z" fill="#EB5452"/>
<path d="M66.8527 234C71.9947 234 76.1632 233.298 76.1632 232.431C76.1632 231.565 71.9947 230.862 66.8527 230.862C61.7106 230.862 57.5421 231.565 57.5421 232.431C57.5421 233.298 61.7106 234 66.8527 234Z" fill="#EFEFEF"/>
<path d="M70.7034 229.866C71.1276 229.52 71.4368 229.054 71.5901 228.53C71.6576 228.266 71.6329 227.988 71.52 227.741C71.4072 227.494 71.213 227.293 70.9696 227.17C70.3998 226.954 69.7909 227.348 69.3303 227.745C68.8697 228.142 68.3392 228.596 67.735 228.511C68.046 228.231 68.2788 227.875 68.4107 227.478C68.5425 227.082 68.569 226.658 68.4875 226.248C68.4604 226.078 68.3876 225.918 68.2768 225.786C67.9632 225.45 67.3876 225.593 67.0104 225.86C65.8063 226.704 65.4705 228.333 65.4636 229.799C65.341 229.27 65.4451 228.719 65.4404 228.184C65.4357 227.648 65.2899 227.03 64.829 226.746C64.5447 226.594 64.2252 226.52 63.9028 226.53C63.3609 226.509 62.7589 226.564 62.3883 226.959C61.9252 227.448 62.0503 228.27 62.4485 228.805C62.8467 229.34 63.4556 229.684 64.0163 230.055C64.4644 230.32 64.8467 230.684 65.1347 231.117C65.1694 231.177 65.1974 231.242 65.2181 231.308H68.601C69.3638 230.923 70.0709 230.437 70.7034 229.864V229.866Z" fill="#EFEFEF"/>
<path d="M14.1975 234C19.3396 234 23.5081 233.298 23.5081 232.431C23.5081 231.565 19.3396 230.862 14.1975 230.862C9.05547 230.862 4.88699 231.565 4.88699 232.431C4.88699 233.298 9.05547 234 14.1975 234Z" fill="#EFEFEF"/>
<path d="M18.0483 229.866C18.4726 229.52 18.7817 229.054 18.935 228.53C19.0025 228.266 18.9778 227.988 18.8649 227.741C18.7521 227.494 18.5579 227.293 18.3145 227.17C17.7448 226.954 17.1358 227.348 16.6752 227.745C16.2146 228.142 15.6841 228.596 15.0799 228.511C15.3909 228.231 15.6237 227.875 15.7556 227.478C15.8875 227.082 15.9139 226.658 15.8324 226.248C15.8053 226.078 15.7325 225.918 15.6217 225.786C15.3082 225.45 14.7325 225.593 14.3553 225.86C13.1512 226.704 12.8154 228.333 12.8085 229.799C12.6859 229.27 12.79 228.719 12.7853 228.184C12.7806 227.648 12.6348 227.03 12.1739 226.746C11.8896 226.594 11.5702 226.52 11.2477 226.53C10.7059 226.509 10.1039 226.564 9.73324 226.959C9.27013 227.448 9.39522 228.27 9.79343 228.805C10.1916 229.34 10.8006 229.684 11.3612 230.055C11.8093 230.32 12.1916 230.684 12.4796 231.117C12.5143 231.177 12.5423 231.242 12.563 231.308H15.9459C16.7087 230.923 17.4159 230.437 18.0483 229.864V229.866Z" fill="#EFEFEF"/>
<path d="M283 233.104H0V233.673H283V233.104Z" fill="#2F2E41"/>
<path d="M269.186 15.7855C269.186 15.7855 239.643 14.0093 243.124 34.6369C243.124 34.6369 242.422 38.2834 245.748 39.9371C245.748 39.9371 245.801 38.4093 248.779 38.9301C249.84 39.1053 250.917 39.1568 251.99 39.0838C253.437 38.989 254.813 38.4282 255.912 37.486C255.912 37.486 264.217 34.0667 267.445 20.5436C267.445 20.5436 269.835 17.593 269.74 16.8341L264.755 18.9561C264.755 18.9561 266.46 22.5398 265.105 25.5173C265.105 25.5173 264.944 19.0842 263.986 19.2242C263.793 19.2523 261.397 20.4652 261.397 20.4652C261.397 20.4652 264.326 26.7058 262.116 31.2442C262.116 31.2442 262.954 23.5527 260.481 20.9163L256.972 22.9581C256.972 22.9581 260.397 29.4052 258.074 34.6669C258.074 34.6669 258.67 26.5977 256.232 23.4546L253.053 25.9262C253.053 25.9262 256.27 32.2787 254.309 36.6428C254.309 36.6428 254.053 27.2519 252.365 26.5424C252.365 26.5424 249.583 28.9897 249.158 29.9895C249.158 29.9895 251.362 34.6045 249.993 37.0377C249.993 37.0377 249.155 30.7796 248.467 30.7446C248.467 30.7446 245.695 34.891 245.407 37.7369C245.407 37.7369 245.527 33.51 247.796 30.3531C247.796 30.3531 245.116 30.8112 243.551 32.5402C243.551 32.5402 243.982 29.6105 248.481 29.3518C248.481 29.3518 250.772 26.2052 251.382 26.0165C251.382 26.0165 246.912 25.6416 244.2 26.8417C244.2 26.8417 246.586 24.0763 252.203 25.3348L255.344 22.7791C255.344 22.7791 249.456 21.9783 246.958 22.8631C246.958 22.8631 249.832 20.4158 256.189 22.1989L259.607 20.164C259.607 20.164 254.586 19.087 251.597 19.4648C251.597 19.4648 254.754 17.7692 260.61 19.6082L263.066 18.5147C263.066 18.5147 259.389 17.7945 258.312 17.6792C257.235 17.5639 257.179 17.2702 257.179 17.2702C259.508 16.8832 261.9 17.1483 264.087 18.036C264.087 18.036 269.274 16.1108 269.186 15.7855Z" fill="#EB5452"/>
<path d="M228.708 4.86487C228.708 4.86487 215.375 4.0641 216.932 13.385C216.932 13.385 216.619 15.0318 218.118 15.7798C218.118 15.7798 218.143 15.0806 219.49 15.3218C219.969 15.402 220.455 15.4255 220.939 15.3918C221.593 15.3486 222.216 15.0931 222.711 14.6644C222.711 14.6644 226.465 13.1191 227.925 7.00787C227.925 7.00787 229.002 5.67596 228.959 5.33322L226.707 6.29114C226.707 6.29114 227.475 7.90987 226.872 9.25584C226.872 9.25584 226.798 6.35019 226.367 6.41705C226.279 6.41705 225.195 6.97944 225.195 6.97944C225.195 6.97944 226.521 9.80073 225.521 11.8497C225.521 11.8497 225.9 8.37446 224.781 7.18221L223.195 8.11951C223.195 8.11951 224.742 11.0317 223.693 13.4094C223.693 13.4094 223.963 9.76292 222.861 8.34353L221.426 9.46236C221.426 9.46236 222.879 12.3327 221.995 14.3051C221.995 14.3051 221.876 10.0607 221.114 9.73918C221.114 9.73918 219.858 10.844 219.665 11.2985C219.665 11.2985 220.661 13.3962 220.044 14.4835C220.044 14.4835 219.665 11.655 219.342 11.6403C219.342 11.6403 218.089 13.515 217.96 14.7869C218.022 13.6003 218.395 12.4507 219.04 11.4516C218.318 11.5881 217.651 11.932 217.121 12.4411C217.121 12.4411 217.318 11.1161 219.349 11.0008C219.349 11.0008 220.402 9.57796 220.662 9.49048C220.662 9.49048 218.641 9.3227 217.416 9.8654C217.416 9.8654 218.493 8.61722 221.03 9.18367L222.433 8.02984C222.433 8.02984 219.771 7.67679 218.643 8.06609C218.643 8.06609 219.941 6.96131 222.814 7.76552L224.358 6.84603C224.358 6.84603 222.088 6.36019 220.737 6.53359C220.737 6.53359 222.165 5.76781 224.811 6.59608L225.916 6.10305C225.916 6.10305 224.254 5.77781 223.765 5.72532C223.276 5.67283 223.253 5.54004 223.253 5.54004C224.306 5.36545 225.388 5.48651 226.376 5.88966C226.376 5.88966 228.749 5.01047 228.708 4.86487Z" fill="#3F3D56"/>
<path d="M23.0999 147.16C23.0999 147.16 9.7671 146.359 11.3248 155.68C11.3248 155.68 11.0113 157.327 12.5107 158.074C12.5107 158.074 12.5351 157.375 13.8824 157.616C14.3609 157.697 14.8473 157.72 15.3313 157.686C15.9858 157.643 16.6081 157.388 17.1032 156.959C17.1032 156.959 20.8574 155.414 22.3169 149.303C22.3169 149.303 23.394 147.971 23.3517 147.628L21.0991 148.586C21.0991 148.586 21.8676 150.205 21.264 151.551C21.264 151.551 21.1903 148.645 20.7589 148.712C20.6711 148.712 19.5869 149.274 19.5869 149.274C19.5869 149.274 20.9132 152.095 19.9133 154.144C19.9133 154.144 20.292 150.669 19.173 149.477L17.587 150.414C17.587 150.414 19.1344 153.326 18.0853 155.704C18.0853 155.704 18.3555 152.058 17.2537 150.638L15.8186 151.757C15.8186 151.757 17.2713 154.627 16.3871 156.6C16.3871 156.6 16.2679 152.355 15.5063 152.034C15.5063 152.034 14.2502 153.139 14.0571 153.593C14.0571 153.593 15.0535 155.691 14.4362 156.778C14.4362 156.778 14.0571 153.95 13.7344 153.935C13.7344 153.935 12.4818 155.81 12.352 157.082C12.4147 155.895 12.7873 154.745 13.4328 153.746C12.71 153.883 12.0429 154.227 11.5136 154.736C11.5136 154.736 11.7102 153.411 13.7417 153.295C13.7417 153.295 14.7943 151.873 15.0539 151.785C15.0539 151.785 13.033 151.617 11.8083 152.16C11.8083 152.16 12.8854 150.912 15.4223 151.478L16.8257 150.325C16.8257 150.325 14.1637 149.971 13.0349 150.361C13.0349 150.361 14.333 149.256 17.2067 150.06L18.7506 149.141C18.7506 149.141 16.4805 148.655 15.1298 148.828C15.1298 148.828 16.5576 148.062 19.2034 148.891L20.3086 148.398C20.3086 148.398 18.6468 148.072 18.1577 148.02C17.6686 147.968 17.6453 147.835 17.6453 147.835C18.6986 147.66 19.7799 147.781 20.768 148.184C20.768 148.184 23.1409 147.305 23.0999 147.16Z" fill="#3F3D56"/>
</g>
<defs>
<linearGradient id="paint0_linear" x1="65.6433" y1="120.038" x2="65.6433" y2="119.947" gradientUnits="userSpaceOnUse">
<stop stop-color="#808080" stop-opacity="0.251"/>
<stop offset="0.54" stop-color="#808080" stop-opacity="0.122"/>
<stop offset="1" stop-color="#808080" stop-opacity="0.102"/>
</linearGradient>
<clipPath id="clip0">
<rect width="283" height="234" fill="white"/>
</clipPath>
</defs>
</svg>
