<svg width="108" height="108" viewBox="0 0 108 108" fill="none" xmlns="http://www.w3.org/2000/svg">
<g filter="url(#filter0_di)">
<rect x="9" y="5" width="90" height="90" stroke="#FFF8F8" stroke-width="10"/>
</g>
<g filter="url(#filter1_d)">
<path d="M80.0156 27.6943H60.416V81H47.2324V27.6943H27.8965V17.0156H80.0156V27.6943Z" fill="#FFF8F8"/>
<path d="M80.0156 27.6943V28.6943H81.0156V27.6943H80.0156ZM60.416 27.6943V26.6943H59.416V27.6943H60.416ZM60.416 81V82H61.416V81H60.416ZM47.2324 81H46.2324V82H47.2324V81ZM47.2324 27.6943H48.2324V26.6943H47.2324V27.6943ZM27.8965 27.6943H26.8965V28.6943H27.8965V27.6943ZM27.8965 17.0156V16.0156H26.8965V17.0156H27.8965ZM80.0156 17.0156H81.0156V16.0156H80.0156V17.0156ZM80.0156 26.6943H60.416V28.6943H80.0156V26.6943ZM59.416 27.6943V81H61.416V27.6943H59.416ZM60.416 80H47.2324V82H60.416V80ZM48.2324 81V27.6943H46.2324V81H48.2324ZM47.2324 26.6943H27.8965V28.6943H47.2324V26.6943ZM28.8965 27.6943V17.0156H26.8965V27.6943H28.8965ZM27.8965 18.0156H80.0156V16.0156H27.8965V18.0156ZM79.0156 17.0156V27.6943H81.0156V17.0156H79.0156Z" fill="#FFF8F8"/>
</g>
<defs>
<filter id="filter0_di" x="0" y="0" width="108" height="108" filterUnits="userSpaceOnUse" color-interpolation-filters="sRGB">
<feFlood flood-opacity="0" result="BackgroundImageFix"/>
<feColorMatrix in="SourceAlpha" type="matrix" values="0 0 0 0 0 0 0 0 0 0 0 0 0 0 0 0 0 0 127 0"/>
<feOffset dy="4"/>
<feGaussianBlur stdDeviation="2"/>
<feColorMatrix type="matrix" values="0 0 0 0 0 0 0 0 0 0 0 0 0 0 0 0 0 0 0.25 0"/>
<feBlend mode="normal" in2="BackgroundImageFix" result="effect1_dropShadow"/>
<feBlend mode="normal" in="SourceGraphic" in2="effect1_dropShadow" result="shape"/>
<feColorMatrix in="SourceAlpha" type="matrix" values="0 0 0 0 0 0 0 0 0 0 0 0 0 0 0 0 0 0 127 0" result="hardAlpha"/>
<feOffset dy="4"/>
<feGaussianBlur stdDeviation="2"/>
<feComposite in2="hardAlpha" operator="arithmetic" k2="-1" k3="1"/>
<feColorMatrix type="matrix" values="0 0 0 0 0 0 0 0 0 0 0 0 0 0 0 0 0 0 0.25 0"/>
<feBlend mode="normal" in2="shape" result="effect2_innerShadow"/>
</filter>
<filter id="filter1_d" x="22.8965" y="16.0156" width="62.1191" height="73.9844" filterUnits="userSpaceOnUse" color-interpolation-filters="sRGB">
<feFlood flood-opacity="0" result="BackgroundImageFix"/>
<feColorMatrix in="SourceAlpha" type="matrix" values="0 0 0 0 0 0 0 0 0 0 0 0 0 0 0 0 0 0 127 0"/>
<feOffset dy="4"/>
<feGaussianBlur stdDeviation="2"/>
<feColorMatrix type="matrix" values="0 0 0 0 0 0 0 0 0 0 0 0 0 0 0 0 0 0 0.25 0"/>
<feBlend mode="normal" in2="BackgroundImageFix" result="effect1_dropShadow"/>
<feBlend mode="normal" in="SourceGraphic" in2="effect1_dropShadow" result="shape"/>
</filter>
</defs>
</svg>
