<svg width="244" height="170" viewBox="0 0 244 170" fill="none" xmlns="http://www.w3.org/2000/svg">
<g opacity="0.3" clip-path="url(#clip0)">
<path d="M48.6154 170C75.4649 170 97.2308 168.345 97.2308 166.303C97.2308 164.261 75.4649 162.605 48.6154 162.605C21.7658 162.605 0 164.261 0 166.303C0 168.345 21.7658 170 48.6154 170Z" fill="#E6E6E6"/>
<path d="M37.1607 37.72C45.6212 34.1164 56.159 36.3996 66.4502 37.9842C66.546 36.0653 67.7068 33.7298 66.4908 32.391C65.0136 30.7645 65.1496 29.0555 66.0385 27.3366C68.3117 22.9413 65.0548 18.2644 61.7664 14.3756C61.0252 13.5011 60.0885 12.8139 59.0323 12.37C57.9761 11.9261 56.8303 11.7379 55.6878 11.8207L49.5963 12.2565C48.114 12.3625 46.6994 12.9193 45.5417 13.8524C44.3841 14.7856 43.5386 16.0505 43.1185 17.4779C41.6639 19.4589 40.8854 21.4344 41.3756 23.3995C39.1969 24.8905 38.8309 26.6902 39.8099 28.7191C40.64 29.9965 40.6312 31.24 39.7721 32.4491C38.6439 33.9905 37.7798 35.7093 37.2152 37.5349L37.1607 37.72Z" fill="#2F2E41"/>
<path d="M238.218 146.962H65.7819C64.2484 146.962 62.7778 146.352 61.6935 145.266C60.6092 144.181 60 142.708 60 141.172C122.508 133.898 183.841 133.898 244 141.172C244 142.708 243.391 144.181 242.307 145.266C241.222 146.352 239.752 146.962 238.218 146.962Z" fill="#2F2E41"/>
<path d="M244 141.513L60 141.172L81.325 105.241L81.427 105.07V25.8811C81.4269 24.9199 81.6159 23.9681 81.9832 23.08C82.3505 22.192 82.8888 21.3851 83.5676 20.7054C84.2463 20.0258 85.052 19.4867 85.9388 19.1189C86.8256 18.7511 87.7761 18.5618 88.736 18.5619H214.244C215.204 18.5618 216.154 18.7511 217.041 19.1189C217.928 19.4867 218.733 20.0258 219.412 20.7054C220.091 21.3851 220.629 22.192 220.996 23.08C221.364 23.9681 221.553 24.9199 221.553 25.8811V105.615L244 141.513Z" fill="#3F3D56"/>
<path d="M88.5693 23.6707C87.9381 23.6714 87.333 23.9228 86.8866 24.3697C86.4403 24.8167 86.1892 25.4227 86.1885 26.0547V98.2587C86.1893 98.8908 86.4403 99.4967 86.8867 99.9437C87.333 100.391 87.9381 100.642 88.5693 100.643H215.431C216.062 100.642 216.667 100.391 217.113 99.9437C217.56 99.4967 217.811 98.8908 217.811 98.2587V26.0547C217.811 25.4227 217.56 24.8167 217.113 24.3698C216.667 23.9228 216.062 23.6714 215.431 23.6707H88.5693Z" fill="white"/>
<path d="M89.1009 110.179C88.9059 110.179 88.715 110.236 88.5507 110.341C88.3865 110.446 88.2558 110.596 88.1739 110.774L81.603 125.078C81.5315 125.234 81.5002 125.405 81.5121 125.576C81.5239 125.747 81.5785 125.912 81.6708 126.057C81.7631 126.201 81.8901 126.32 82.0403 126.402C82.1904 126.484 82.3588 126.527 82.5299 126.527H220.712C220.886 126.527 221.057 126.483 221.209 126.398C221.361 126.313 221.489 126.191 221.58 126.043C221.671 125.894 221.723 125.725 221.731 125.551C221.739 125.377 221.702 125.204 221.624 125.048L214.482 110.744C214.398 110.574 214.268 110.431 214.106 110.331C213.945 110.231 213.759 110.179 213.57 110.179H89.1009Z" fill="#2F2E41"/>
<path d="M151.49 22.4786C152.335 22.4786 153.02 21.7924 153.02 20.946C153.02 20.0995 152.335 19.4133 151.49 19.4133C150.645 19.4133 149.959 20.0995 149.959 20.946C149.959 21.7924 150.645 22.4786 151.49 22.4786Z" fill="white"/>
<path d="M137.908 129.252C137.683 129.252 137.465 129.326 137.287 129.463C137.109 129.6 136.981 129.791 136.923 130.008L135.274 136.138C135.234 136.29 135.228 136.449 135.259 136.603C135.289 136.756 135.354 136.901 135.45 137.026C135.545 137.15 135.667 137.251 135.808 137.32C135.948 137.39 136.103 137.426 136.259 137.426H167.605C167.768 137.426 167.928 137.387 168.073 137.312C168.217 137.238 168.342 137.129 168.436 136.997C168.531 136.864 168.592 136.711 168.615 136.549C168.638 136.388 168.622 136.224 168.569 136.07L166.45 129.939C166.381 129.739 166.25 129.565 166.078 129.441C165.905 129.318 165.698 129.252 165.486 129.252H137.908Z" fill="#2F2E41"/>
<path d="M221.553 103.878V105.241H81.3249L81.4305 105.07V103.878H221.553Z" fill="#2F2E41"/>
<path d="M217.641 47.6818C230.79 47.6818 241.449 37.0079 241.449 23.8409C241.449 10.6739 230.79 0 217.641 0C204.493 0 193.834 10.6739 193.834 23.8409C193.834 37.0079 204.493 47.6818 217.641 47.6818Z" fill="#EB5452"/>
<path d="M227.505 34.2288H207.778C207.417 34.2284 207.072 34.0848 206.817 33.8294C206.562 33.5739 206.418 33.2276 206.418 32.8664V20.946C206.418 20.5848 206.562 20.2385 206.817 19.9831C207.072 19.7277 207.418 19.584 207.778 19.5836H227.505C227.865 19.584 228.211 19.7277 228.466 19.9831C228.721 20.2385 228.865 20.5848 228.865 20.946V32.8664C228.865 33.2276 228.721 33.5739 228.466 33.8294C228.211 34.0848 227.865 34.2284 227.505 34.2288ZM207.778 20.946V32.8664H227.506L227.505 20.946L207.778 20.946Z" fill="white"/>
<path d="M223.763 20.946H211.519V15.4966C211.519 11.5496 214.094 8.68494 217.641 8.68494C221.189 8.68494 223.763 11.5496 223.763 15.4966L223.763 20.946ZM212.88 19.5836H222.403V15.4966C222.403 12.2882 220.445 10.0473 217.641 10.0473C214.838 10.0473 212.88 12.2882 212.88 15.4966L212.88 19.5836Z" fill="white"/>
<path d="M217.641 27.9279C218.393 27.9279 219.002 27.318 219.002 26.5656C219.002 25.8132 218.393 25.2032 217.641 25.2032C216.89 25.2032 216.281 25.8132 216.281 26.5656C216.281 27.318 216.89 27.9279 217.641 27.9279Z" fill="white"/>
<path d="M201.022 76.1519H102.978C102.497 76.1513 102.036 75.9596 101.695 75.6187C101.355 75.2779 101.163 74.8158 101.163 74.3338V49.9796C101.163 49.4975 101.355 49.0354 101.695 48.6946C102.036 48.3537 102.497 48.162 102.978 48.1614H201.022C201.503 48.162 201.964 48.3537 202.305 48.6946C202.645 49.0354 202.837 49.4975 202.837 49.9796V74.3338C202.837 74.8158 202.645 75.2779 202.305 75.6187C201.964 75.9596 201.503 76.1513 201.022 76.1519ZM102.978 48.8887C102.69 48.889 102.413 49.0041 102.209 49.2086C102.004 49.4131 101.889 49.6904 101.889 49.9796V74.3338C101.889 74.623 102.004 74.9003 102.209 75.1048C102.413 75.3093 102.69 75.4243 102.978 75.4246H201.022C201.31 75.4243 201.587 75.3093 201.791 75.1048C201.996 74.9003 202.111 74.623 202.111 74.3338V49.9796C202.111 49.6904 201.996 49.4131 201.791 49.2085C201.587 49.004 201.31 48.889 201.022 48.8887L102.978 48.8887Z" fill="#E6E6E6"/>
<path d="M118.212 68.6284C122.297 68.6284 125.608 65.3125 125.608 61.2222C125.608 57.1319 122.297 53.8161 118.212 53.8161C114.128 53.8161 110.817 57.1319 110.817 61.2222C110.817 65.3125 114.128 68.6284 118.212 68.6284Z" fill="#E6E6E6"/>
<path d="M135.293 56.2848C135.131 56.2845 134.971 56.3163 134.821 56.3782C134.671 56.4401 134.535 56.531 134.42 56.6456C134.306 56.7603 134.215 56.8964 134.153 57.0463C134.091 57.1962 134.059 57.3569 134.059 57.5191C134.059 57.6814 134.091 57.8421 134.153 57.992C134.215 58.1418 134.306 58.278 134.42 58.3927C134.535 58.5073 134.671 58.5982 134.821 58.6601C134.971 58.722 135.131 58.7538 135.293 58.7535H193.403C193.73 58.7535 194.044 58.6234 194.275 58.392C194.506 58.1605 194.636 57.8465 194.636 57.5191C194.636 57.1918 194.506 56.8778 194.275 56.6463C194.044 56.4148 193.73 56.2848 193.403 56.2848H135.293Z" fill="#E6E6E6"/>
<path d="M135.293 63.6909C134.966 63.6909 134.653 63.821 134.422 64.0524C134.19 64.2839 134.061 64.5979 134.061 64.9253C134.061 65.2526 134.19 65.5666 134.422 65.7981C134.653 66.0296 134.966 66.1596 135.293 66.1596H160.298C160.625 66.1596 160.939 66.0296 161.17 65.7981C161.401 65.5666 161.531 65.2526 161.531 64.9253C161.531 64.5979 161.401 64.2839 161.17 64.0524C160.939 63.821 160.625 63.6909 160.298 63.6909H135.293Z" fill="#E6E6E6"/>
<path d="M81.0837 64.1903L62.9597 73.8393L62.7303 65.7984C68.6458 64.8095 74.2739 63.0878 79.4778 60.2847L81.3733 55.5951C81.5799 55.0841 81.9156 54.6357 82.3475 54.2938C82.7793 53.952 83.2926 53.7285 83.8368 53.6453C84.381 53.562 84.9375 53.622 85.4516 53.8191C85.9657 54.0163 86.4197 54.344 86.7691 54.77C87.2804 55.3933 87.536 56.1878 87.4841 56.9927C87.4322 57.7976 87.0767 58.5527 86.4896 59.1049L81.0837 64.1903Z" fill="#FFB8B8"/>
<path d="M36.7994 119.9C36.6672 119.414 36.6391 118.906 36.7171 118.409C36.795 117.912 36.9771 117.437 37.2515 117.015L41.2329 110.896C42.1745 109.449 43.6195 108.404 45.2873 107.963C46.9551 107.523 48.727 107.718 50.259 108.512C48.5858 111.364 48.819 113.866 50.8369 116.04C47.7044 117.572 44.8093 119.548 42.2412 121.908C41.7723 122.228 41.2339 122.432 40.6708 122.501C40.1076 122.571 39.536 122.504 39.0036 122.308C38.4712 122.111 37.9934 121.79 37.61 121.372C37.2266 120.953 36.9487 120.448 36.7994 119.9Z" fill="#2F2E41"/>
<path d="M81.9092 111.9C81.3067 112.905 80.4563 113.739 79.4395 114.32C78.4227 114.902 77.2737 115.212 76.1027 115.221L49.6534 115.422L48.5063 108.759L60.2067 105.313L50.3417 97.7319L61.1243 85.0964L80.7089 103.375C81.8536 104.444 82.5973 105.873 82.8158 107.425C83.0343 108.976 82.7142 110.556 81.9092 111.9Z" fill="#2F2E41"/>
<path d="M45.5239 157.464H39.3296C33.768 119.288 28.1069 81.006 44.8357 66.7173L64.5656 69.9337L62.042 86.7045L51.0299 99.3401L45.5239 157.464Z" fill="#2F2E41"/>
<path d="M50.969 166.112C50.4841 166.244 49.9767 166.272 49.4801 166.194C48.9836 166.116 48.5091 165.934 48.088 165.659L41.3623 164.754C39.9171 163.811 38.8731 162.364 38.433 160.694C37.9929 159.024 38.188 157.249 38.9804 155.715C41.8287 157.391 44.3272 157.157 46.4985 155.136C48.0326 158.238 50.5603 158.049 52.9743 160.662C53.294 161.132 53.497 161.671 53.5664 162.235C53.6358 162.799 53.5697 163.371 53.3735 163.904C53.1773 164.437 52.8567 164.916 52.4385 165.3C52.0202 165.684 51.5164 165.962 50.969 166.112Z" fill="#2F2E41"/>
<path d="M60.2066 41.2165L48.7357 38.4597C50.6409 34.5546 50.7978 30.2094 49.8828 25.5944L57.683 25.3646C57.9274 31.1035 58.6669 36.4651 60.2066 41.2165Z" fill="#FFB8B8"/>
<path d="M63.3592 76.851C55.0088 82.5491 49.1087 77.0459 44.6062 68.5553C45.2319 63.3598 44.2188 57.1423 42.3426 50.3865C41.5082 47.4068 41.8197 44.222 43.2157 41.461C44.6116 38.7 46.9906 36.5634 49.8828 35.4731L59.7478 39.6084C68.1243 46.4457 69.773 53.8519 66.6303 61.6632L63.3592 76.851Z" fill="#EB5452"/>
<path d="M39.3296 46.9599L30.1529 51.7844L46.4416 61.4334L48.708 67.0318C48.8593 67.4055 48.933 67.8061 48.9246 68.2092C48.9162 68.6123 48.826 69.0095 48.6593 69.3765C48.4926 69.7435 48.253 70.0727 47.9552 70.344C47.6573 70.6153 47.3074 70.823 46.9267 70.9545C46.494 71.1039 46.0327 71.1509 45.5788 71.092C45.1249 71.0331 44.6908 70.8697 44.3104 70.6147C43.9301 70.3597 43.6139 70.02 43.3866 69.6222C43.1592 69.2244 43.027 68.7793 43.0001 68.3217L42.7709 64.42L22.0682 57.5786C21.3706 57.3481 20.7346 56.9616 20.2083 56.4485C19.682 55.9354 19.2792 55.3092 19.0304 54.6171C18.6678 53.6083 18.6493 52.5076 18.9779 51.4872C19.3066 50.4667 19.9637 49.5842 20.8466 48.9777L37.4943 37.5407L39.3296 46.9599Z" fill="#FFB8B8"/>
<path d="M48.5063 47.8789C44.6791 46.1993 41.1988 48.0238 36.806 49.487L36.1178 37.311C40.4797 34.9829 44.6384 34.3552 48.5063 36.1623L48.5063 47.8789Z" fill="#EB5452"/>
<path d="M53.0846 31.3959C57.1294 31.3959 60.4083 28.1124 60.4083 24.062C60.4083 20.0115 57.1294 16.728 53.0846 16.728C49.0398 16.728 45.7609 20.0115 45.7609 24.062C45.7609 28.1124 49.0398 31.3959 53.0846 31.3959Z" fill="#FFB8B8"/>
<path d="M61.8461 23.1366C54.595 23.8477 49.0697 22.6602 45.5385 19.2789V16.5558H61.2308L61.8461 23.1366Z" fill="#2F2E41"/>
</g>
<defs>
<clipPath id="clip0">
<rect width="244" height="170" fill="white"/>
</clipPath>
</defs>
</svg>
